SplineFontDB: 2.0
FontName: Waree-Oblique
FullName: Waree Oblique
FamilyName: Waree
Weight: Book
Copyright: Copyright (c) 2003 by Bitstream, Inc. All Rights Reserved.\n\nTLWG changes are in public domain.
Version: 0.11.0: 2007-10-04
ItalicAngle: -10
UnderlinePosition: -170
UnderlineWidth: 20
Ascent: 1638
Descent: 410
NeedsXUIDChange: 1
FSType: 0
OS2Version: 0
OS2_WeightWidthSlopeOnly: 0
OS2_UseTypoMetrics: 0
CreationTime: 1153662374
ModificationTime: 1192713054
PfmFamily: 33
TTFWeight: 400
TTFWidth: 5
LineGap: 0
VLineGap: 0
Panose: 2 11 5 4 2 2 2 2 2 4
OS2TypoAscent: 0
OS2TypoAOffset: 1
OS2TypoDescent: 0
OS2TypoDOffset: 1
OS2TypoLinegap: 0
OS2WinAscent: 0
OS2WinAOffset: 1
OS2WinDescent: 0
OS2WinDOffset: 1
HheadAscent: 0
HheadAOffset: 1
HheadDescent: 0
HheadDOffset: 1
OS2SubXSize: -12660
OS2SubYSize: -12824
OS2SubXOff: 24034
OS2SubYOff: -18656
OS2SupXSize: -12836
OS2SupYSize: -12856
OS2SupXOff: -28420
OS2SupYOff: -18656
OS2StrikeYSize: -12928
OS2StrikeYPos: -12660
OS2Vendor: 'PfEd'
Lookup: 6 0 0 "'ccmp' Glyph Composition/Decomposition in Thai lookup 0"  {"'ccmp' Glyph Composition/Decomposition in Thai lookup 0"  } ['ccmp' ('thai' <'KUY ' 'PAL ' 'THA ' 'dflt' > ) ]
Lookup: 6 0 0 "'ccmp' Glyph Composition/Decomposition in Thai lookup 1"  {"'ccmp' Glyph Composition/Decomposition in Thai lookup 1"  } ['ccmp' ('thai' <'KUY ' 'PAL ' 'THA ' 'dflt' > ) ]
Lookup: 5 0 0 "Required Feature in Thai lookup 2"  {"Required Feature in Thai lookup 2"  } [' RQD' ('thai' <'PAL ' > ) ]
Lookup: 1 0 0 "Single Substitution lookup 3"  {"Single Substitution lookup 3"  } []
Lookup: 2 0 0 "Multiple Substitution lookup 4"  {"Multiple Substitution lookup 4"  } []
Lookup: 1 0 0 "Single Substitution lookup 5"  {"Single Substitution lookup 5"  } []
Lookup: 2 0 0 "Multiple Substitution lookup 6"  {"Multiple Substitution lookup 6"  } []
Lookup: 1 0 0 "Single Substitution lookup 7"  {"Single Substitution lookup 7"  } []

StartChar: .notdef
Encoding: 65536 -1 0
Width: 1229
Flags: W
HStem: -362 114<173 968> 1329 115<451 1246>
Fore
38 -362 m 1
 357 1444 l 1
 1381 1444 l 1
 1062 -362 l 1
 38 -362 l 1
173 -248 m 1
 968 -248 l 1
 1246 1329 l 1
 451 1329 l 1
 173 -248 l 1
EndSplineSet
EndChar
StartChar: uni0E4D.high
Encoding: 63262 63262 2
Width: 0
VWidth: 2561
Flags: W
HStem: 1881 102<-84.2087 55.9187> 2139 103<-73.5942 68.8951>
VStem: -191 102<1986.79 2124.44> 73 102<2001.22 2135.23>
AnchorPoint: "AboveMark" -38.1475 1848 mark 0
Fore
-191 2024 m 0
 -191 2148 -83 2242 25 2242 c 24
 123 2242 175 2167 175 2094 c 0
 175 1979 72 1881 -39 1881 c 0
 -139 1881 -191 1959 -191 2024 c 0
-89 2046 m 0
 -89 2012 -60 1983 -22 1983 c 0
 19 1983 73 2023 73 2075 c 0
 73 2111 46 2139 6 2139 c 0
 -52 2139 -89 2091 -89 2046 c 0
EndSplineSet
EndChar
StartChar: exclam
Encoding: 33 33 5
Width: 821
Flags: W
HStem: 0 254<354 512> 1473 20G<568.489 775>
VStem: 309 466<0 1493>
Fore
354 254 m 1
 557 254 l 1
 512 0 l 1
 309 0 l 1
 354 254 l 1
572 1493 m 1
 775 1493 l 1
 660 838 l 1
 577 481 l 1
 415 481 l 1
 457 838 l 1
 572 1493 l 1
EndSplineSet
EndChar
StartChar: quotedbl
Encoding: 34 34 6
Width: 942
Flags: W
HStem: 1473 20G<456.468 630 834.468 1008>
VStem: 362 646<938 1493>
Fore
630 1493 m 1
 532 938 l 1
 362 938 l 1
 460 1493 l 1
 630 1493 l 1
1008 1493 m 1
 910 938 l 1
 740 938 l 1
 838 1493 l 1
 1008 1493 l 1
EndSplineSet
EndChar
StartChar: numbersign
Encoding: 35 35 7
Width: 1716
Flags: W
HStem: 0 21G<369 538.502 823 991.551> 414 153<258 546 772 999 1226 1517> 901 154<458 753 979 1206 1433 1718>
Fore
1206 901 m 1
 915 901 l 1
 772 567 l 1
 1065 567 l 1
 1206 901 l 1
1156 1470 m 1
 979 1055 l 1
 1271 1055 l 1
 1449 1470 l 1
 1609 1470 l 1
 1433 1055 l 1
 1745 1055 l 1
 1718 901 l 1
 1367 901 l 1
 1226 567 l 1
 1544 567 l 1
 1517 414 l 1
 1160 414 l 1
 983 0 l 1
 823 0 l 1
 999 414 l 1
 706 414 l 1
 530 0 l 1
 369 0 l 1
 546 414 l 1
 231 414 l 1
 258 567 l 1
 610 567 l 1
 753 901 l 1
 431 901 l 1
 458 1055 l 1
 819 1055 l 1
 994 1470 l 1
 1156 1470 l 1
EndSplineSet
EndChar
StartChar: dollar
Encoding: 36 36 8
Width: 1303
Flags: W
HStem: 0 142<375.3 591> 1179 145<925 1130.17> 1536 20G<862.511 966>
VStem: 333 189<832.845 1067.51> 1015 192<310.288 502.381>
Fore
825 752 m 1
 1050 716 1207 636 1207 450 c 0
 1207 310 1127 32 692 2 c 1
 639 -301 l 1
 539 -301 l 1
 591 0 l 1
 428 3 297 41 186 92 c 1
 218 272 l 1
 329 194 457 143 617 142 c 1
 697 598 l 1
 481 634 333 710 333 888 c 0
 333 1061 441 1295 825 1321 c 1
 866 1556 l 1
 966 1556 l 1
 925 1324 l 1
 1019 1320 1136 1306 1265 1262 c 1
 1234 1087 l 1
 1146 1136 1035 1173 900 1179 c 1
 825 752 l 1
800 1180 m 1
 640 1162 522 1081 522 932 c 0
 522 834 602 792 728 770 c 1
 800 1180 l 1
718 145 m 1
 998 182 1015 349 1015 400 c 0
 1015 511 918 555 794 578 c 1
 718 145 l 1
EndSplineSet
EndChar
StartChar: percent
Encoding: 37 37 9
Width: 1946
Flags: W
HStem: -29 127<1405.05 1621.74> 657 127<1492.1 1705.2> 707 127<504.666 724.391> 1393 127<584.389 803.783>
VStem: 299 160<875.939 1229.21> 848 161<993.382 1348.79> 1199 162<141.922 496.005> 1749 160<260.084 612.947>
Fore
1749 473 m 0xdf
 1749 554 1720 657 1605 657 c 0
 1438 657 1361 441 1361 286 c 0
 1361 200 1390 98 1506 98 c 0
 1700 98 1749 369 1749 473 c 0xdf
1199 272 m 0
 1199 466 1311 784 1627 784 c 0
 1853 784 1909 614 1909 485 c 0
 1909 291 1801 -29 1484 -29 c 0
 1256 -29 1199 139 1199 272 c 0
848 1206 m 0
 848 1290 819 1393 703 1393 c 0
 508 1393 459 1121 459 1024 c 0
 459 862 545 834 602 834 c 2
 604 834 l 258xbf
 799 834 848 1103 848 1206 c 0
1628 1520 m 1
 1788 1520 l 1
 581 -29 l 1
 421 -29 l 1
 1628 1520 l 1
299 1005 m 0
 299 1265 457 1520 725 1520 c 256
 952 1520 1009 1349 1009 1222 c 0
 1009 1017 894 707 582 707 c 256
 355 707 299 875 299 1005 c 0
EndSplineSet
EndChar
StartChar: ampersand
Encoding: 38 38 10
Width: 1597
Flags: W
HStem: -29 162<537.146 923.792> 1362 158<804.302 1160.93>
VStem: 202 198<265.559 579.194> 499 192<1031.01 1252.68>
Fore
400 405 m 0
 400 283 495 133 713 133 c 2
 717 133 l 2
 860 133 977 186 1074 260 c 1
 640 803 l 1
 451 658 400 528 400 405 c 0
202 345 m 0
 202 515.132 247.428 710.052 558 913 c 1
 508 998 499 1069 499 1108 c 0
 499 1274 638 1520 973 1520 c 0
 1069 1520 1177 1502 1293 1448 c 1
 1261 1266 l 1
 1196 1305 1083 1362 965 1362 c 0
 783 1362 691 1234 691 1132 c 0
 691 1064 730 1004 800 915 c 2
 1217 395 l 1
 1330 531 1390 672 1419 801 c 1
 1605 801 l 1
 1574 683 1502 501 1305 285 c 1
 1534 0 l 1
 1282 0 l 1
 1165 147 l 1
 1029 46 869 -29 671 -29 c 0
 317 -29 202 204 202 345 c 0
EndSplineSet
EndChar
StartChar: quotesingle
Encoding: 39 39 11
Width: 563
Flags: W
HStem: 1473 20G<456.468 630>
VStem: 362 268<938 1493>
Fore
630 1493 m 1
 532 938 l 1
 362 938 l 1
 460 1493 l 1
 630 1493 l 1
EndSplineSet
EndChar
StartChar: parenleft
Encoding: 40 40 12
Width: 799
Flags: W
VStem: 268 192<54.1118 738.163>
Fore
268 404 m 0
 268 864 506 1257 749 1554 c 1
 909 1554 l 1
 662 1229 460 835 460 356 c 0
 460 168 496 -44 587 -270 c 1
 427 -270 l 1
 349 -101 268 135 268 404 c 0
EndSplineSet
EndChar
StartChar: parenright
Encoding: 41 41 13
Width: 799
Flags: W
VStem: 566 191<550.195 1227.92>
Fore
566 923 m 0
 566 1176 503 1393 438 1554 c 1
 598 1554 l 1
 710 1308 757 1085 757 884 c 0
 757 422 522 31 276 -270 c 1
 116 -270 l 1
 305 -21 566 396 566 923 c 0
EndSplineSet
EndChar
StartChar: asterisk
Encoding: 42 42 14
Width: 1024
Flags: W
HStem: 586 934<672 723>
VStem: 212 971<858 1247>
Fore
1183 1247 m 1
 790 1053 l 1
 1114 858 l 1
 1039 760 l 1
 739 963 l 1
 672 586 l 1
 558 586 l 1
 625 963 l 1
 253 760 l 1
 212 858 l 1
 606 1053 l 1
 281 1247 l 1
 356 1346 l 1
 657 1143 l 1
 723 1520 l 1
 837 1520 l 1
 771 1143 l 1
 1142 1346 l 1
 1183 1247 l 1
EndSplineSet
EndChar
StartChar: plus
Encoding: 43 43 15
Width: 1716
Flags: W
HStem: 0 21G<774 945.519> 557 170<345 872 1070 1597>
Fore
1168 1284 m 1
 1070 727 l 1
 1627 727 l 1
 1597 557 l 1
 1040 557 l 1
 942 0 l 1
 774 0 l 1
 872 557 l 1
 315 557 l 1
 345 727 l 1
 902 727 l 1
 1000 1284 l 1
 1168 1284 l 1
EndSplineSet
EndChar
StartChar: comma
Encoding: 44 44 16
Width: 651
Flags: W
HStem: -238 492<245 285>
VStem: 116 380<-238 254>
Fore
285 254 m 1
 496 254 l 1
 465 82 l 1
 245 -238 l 1
 116 -238 l 1
 254 82 l 1
 285 254 l 1
EndSplineSet
EndChar
StartChar: hyphen
Encoding: 45 45 17
Width: 739
Flags: W
HStem: 479 164<213 723>
VStem: 184 568<479 643>
Fore
213 643 m 1
 752 643 l 1
 723 479 l 1
 184 479 l 1
 213 643 l 1
EndSplineSet
EndChar
StartChar: period
Encoding: 46 46 18
Width: 651
Flags: W
HStem: 0 254<264 430>
VStem: 219 256<0 254>
Fore
264 254 m 1
 475 254 l 1
 430 0 l 1
 219 0 l 1
 264 254 l 1
EndSplineSet
EndChar
StartChar: slash
Encoding: 47 47 19
Width: 690
Flags: W
HStem: 1473 20G<773.291 953>
VStem: -34 987<-190 1493>
Fore
783 1493 m 1
 953 1493 l 1
 136 -190 l 1
 -34 -190 l 1
 783 1493 l 1
EndSplineSet
EndChar
StartChar: zero
Encoding: 48 48 20
Width: 1303
Flags: W
HStem: -29 160<534.362 818.078> 1360 160<749.801 1025.57>
VStem: 239 202<237.498 828.891> 1124 201<659.998 1247.38>
Fore
441 483 m 0
 441 184 553.292 131 674 131 c 0
 1045.7 131 1124 841.379 1124 1020 c 0
 1123.98 1198.31 1077.89 1360 890 1360 c 0
 513.671 1360 441 634 441 483 c 0
914 1520 m 0
 1083.63 1520 1325 1456.27 1325 1023 c 0
 1325 803 1236 -29 646 -29 c 256
 321 -29 239 224 239 470 c 0
 239 784 374 1520 914 1520 c 0
EndSplineSet
EndChar
StartChar: one
Encoding: 49 49 21
Width: 1303
Flags: W
HStem: 0 170<284 614 814 1114> 1473 20G<742.5 1047>
VStem: 254 890<0 170>
Fore
284 170 m 1
 614 170 l 1
 815 1309 l 1
 443 1237 l 1
 476 1421 l 1
 845 1493 l 1
 1047 1493 l 1
 814 170 l 1
 1144 170 l 1
 1114 0 l 1
 254 0 l 1
 284 170 l 1
EndSplineSet
EndChar
StartChar: two
Encoding: 50 50 22
Width: 1303
Flags: W
HStem: 0 170<423 1098> 1217 21G<378.529 416> 1350 170<582.593 991.386>
VStem: 1083 208<978.996 1264.49>
Fore
423 170 m 1
 1128 170 l 1
 1098 0 l 1
 150 0 l 1
 180 170 l 1
 550 490 l 2
 940 824 1083 953 1083 1132 c 0
 1083 1268 978 1350 824 1350 c 0
 644 1350 457 1259 375 1217 c 1
 411 1421 l 1
 620 1500 762 1520 850 1520 c 0
 1116 1520 1291 1397 1291 1177 c 0
 1291 905 1065 729 870 558 c 2
 423 170 l 1
EndSplineSet
EndChar
StartChar: three
Encoding: 51 51 23
Width: 1303
Flags: W
HStem: -29 170<306.413 817.445> 715 166<569 918.234> 1350 170<648.206 1025.59>
VStem: 1020 204<325.37 620.125> 1103 207<1023.98 1275.43>
Fore
1224 503 m 0xf0
 1224 338 1107 -29 550 -29 c 0
 405 -29 271 5 164 45 c 1
 198 240 l 1
 322 160 466 141 574 141 c 0
 956 141 1020 376 1020 490 c 0xf0
 1020 644 894 715 714 715 c 2
 540 715 l 1
 569 881 l 1
 751 881 l 2
 1038 881 1103 1049 1103 1160 c 0
 1103 1296 987 1350 826 1350 c 0
 679 1350 521 1306 426 1276 c 1
 458 1456 l 1
 660 1510 791 1520 874 1520 c 0
 1147 1520 1310 1403 1310 1204 c 0xe8
 1310 1048 1220 865 973 805 c 1
 1151 765 1224 641 1224 503 c 0xf0
EndSplineSet
EndChar
StartChar: four
Encoding: 52 52 24
Width: 1303
Flags: W
HStem: 0 21G<774 978.523> 352 168<356 836 1067 1250> 1473 20G<967.34 1238>
Fore
1006 1317 m 1
 356 520 l 1
 866 520 l 1
 1006 1317 l 1
984 1493 m 1
 1238 1493 l 1
 1067 520 l 1
 1280 520 l 1
 1250 352 l 1
 1037 352 l 1
 975 0 l 1
 774 0 l 1
 836 352 l 1
 162 352 l 1
 196 547 l 1
 984 1493 l 1
EndSplineSet
EndChar
StartChar: five
Encoding: 53 53 25
Width: 1303
Flags: W
HStem: -29 170<312.592 777.436> 817 170<625.193 885.423> 1323 170<639 1247>
VStem: 1013 206<368.078 701.716>
Fore
1013 552 m 0
 1013 729 879 817 691 817 c 0
 555 817 438 779 352 743 c 1
 484 1493 l 1
 1277 1493 l 1
 1247 1323 l 1
 639 1323 l 1
 575 957 l 1
 630 975 689 987 756 987 c 0
 1045 987 1219 841 1219 591 c 0
 1219 361 1084 -29 546 -29 c 0
 403 -29 273 0 164 35 c 1
 200 238 l 1
 326 162 455 141 572 141 c 0
 866 141 1013 345 1013 552 c 0
EndSplineSet
EndChar
StartChar: six
Encoding: 54 54 26
Width: 1303
Flags: W
HStem: -29 160<551.11 862.579> 827 160<727.732 973.708> 1350 170<805.959 1177.67>
VStem: 248 208<226.974 598.485> 1064 206<361.69 735.541>
Fore
1064 575 m 0
 1064 684 1016 827 822 827 c 256
 549 827 456 554 456 384 c 0
 456 275 505 131 699 131 c 256
 980 131 1064 418 1064 575 c 0
248 476 m 0
 248 998 522 1520 1028 1520 c 0
 1121 1520 1219 1504 1334 1460 c 1
 1302 1276 l 1
 1197 1330 1096 1350 1008 1350 c 0
 695 1350 554 1100 486 807 c 1
 636 981 811 987 862 987 c 0
 1188 987 1270 770 1270 604 c 0
 1270 255 1030 -29 671 -29 c 0
 333 -29 248 228 248 476 c 0
EndSplineSet
EndChar
StartChar: seven
Encoding: 55 55 27
Width: 1303
Flags: W
HStem: 0 21G<375 597.23> 1323 170<431 1118>
VStem: 375 1016<0 1493>
Fore
431 1493 m 1
 1391 1493 l 1
 1376 1407 l 1
 586 0 l 1
 375 0 l 1
 1118 1323 l 1
 401 1323 l 1
 431 1493 l 1
EndSplineSet
EndChar
StartChar: eight
Encoding: 56 56 28
Width: 1303
Flags: W
HStem: -29 160<503.073 860.71> 709 159<637.77 948.859> 1360 160<715.637 1053.56>
VStem: 204 206<217.51 532.74> 367 199<936.073 1217.19> 1041 203<309.134 622.619> 1129 206<1021.44 1291.12>
Fore
1041 486 m 0xf4
 1041 575 997 709 776 709 c 0
 520 709 410 522 410 354 c 0
 410 265 454 131 674 131 c 256
 931 131 1041 320 1041 486 c 0xf4
204 305 m 0
 204 697 513 778 589 795 c 1
 423 838 367 956 367 1060 c 0
 367 1264 517 1520 919 1520 c 0
 1265 1520 1335 1332 1335 1207 c 0xea
 1335 1051 1243 854 994 795 c 1
 1169 752 1244 632 1244 497 c 0
 1244 351 1159 -29 646 -29 c 256
 277 -29 204 171 204 305 c 0
890 1360 m 0
 659 1360 566 1200 566 1060 c 0
 566 983 603 868 805 868 c 0
 1026 868 1129 1017 1129 1169 c 0
 1129 1246 1090 1360 890 1360 c 0
EndSplineSet
EndChar
StartChar: nine
Encoding: 57 57 29
Width: 1303
Flags: W
HStem: -29 170<385.435 761.763> 506 158<591.056 839.021> 1360 160<703.603 1017.03>
VStem: 296 205<759.167 1129.47> 1109 208<904.261 1266.98>
Fore
892 1520 m 0
 1032 1520 1317 1481 1317 1017 c 0
 1317 447 1011 -29 536 -29 c 0
 444 -29 345 -13 230 31 c 1
 263 215 l 1
 372 160 469 141 563 141 c 0
 882 141 1016 415 1079 684 c 1
 928 509 748 506 695 506 c 0
 429 506 296 674 296 878 c 0
 296 1239 534 1520 892 1520 c 0
866 1360 m 0
 635 1360 501 1141 501 917 c 0
 501 808 550 664 744 664 c 256
 1024 664 1109 948 1109 1108 c 0
 1109 1261 1023 1360 866 1360 c 0
EndSplineSet
EndChar
StartChar: colon
Encoding: 58 58 30
Width: 690
Flags: W
HStem: 0 254<285 451> 805 254<427 593>
VStem: 240 398<0 1059>
Fore
285 254 m 1
 496 254 l 1
 451 0 l 1
 240 0 l 1
 285 254 l 1
427 1059 m 1
 638 1059 l 1
 593 805 l 1
 382 805 l 1
 427 1059 l 1
EndSplineSet
EndChar
StartChar: semicolon
Encoding: 59 59 31
Width: 690
Flags: W
HStem: 805 254<427 593>
VStem: 116 522<-238 1059>
Fore
427 1059 m 1
 638 1059 l 1
 593 805 l 1
 382 805 l 1
 427 1059 l 1
285 254 m 1
 496 254 l 1
 465 82 l 1
 245 -238 l 1
 116 -238 l 1
 254 82 l 1
 285 254 l 1
EndSplineSet
EndChar
StartChar: less
Encoding: 60 60 32
Width: 1716
Flags: W
Fore
1677 1008 m 1
 580 641 l 1
 1548 276 l 1
 1516 94 l 1
 316 559 l 1
 345 725 l 1
 1709 1190 l 1
 1677 1008 l 1
EndSplineSet
EndChar
StartChar: equal
Encoding: 61 61 33
Width: 1716
Flags: W
HStem: 352 170<309 1561> 762 168<381 1633>
Fore
381 930 m 1
 1663 930 l 1
 1633 762 l 1
 351 762 l 1
 381 930 l 1
309 522 m 1
 1591 522 l 1
 1561 352 l 1
 279 352 l 1
 309 522 l 1
EndSplineSet
EndChar
StartChar: greater
Encoding: 62 62 34
Width: 1716
Flags: W
Fore
395 1008 m 1
 427 1190 l 1
 1627 725 l 1
 1598 559 l 1
 234 94 l 1
 266 276 l 1
 1360 641 l 1
 395 1008 l 1
EndSplineSet
EndChar
StartChar: question
Encoding: 63 63 35
Width: 1087
Flags: W
HStem: 0 254<436 594> 1219 21G<365.511 391.5> 1356 164<548.648 891.619>
VStem: 950 206<1071.37 1300.17>
Fore
436 254 m 1
 639 254 l 1
 594 0 l 1
 391 0 l 1
 436 254 l 1
659 401 m 1
 468 401 l 1
 495 555 l 2
 522 705 575 772 697 872 c 2
 802 961 l 2
 904 1042 950 1127 950 1197 c 0
 950 1289 871 1356 741 1356 c 0
 589 1356 421 1255 362 1219 c 1
 395 1407 l 1
 504 1466 641 1520 805 1520 c 0
 1014 1520 1156 1418 1156 1236 c 0
 1156 1052 1026 942 935 868 c 2
 832 782 l 2
 721 688 709 672 680 524 c 2
 659 401 l 1
EndSplineSet
EndChar
StartChar: at
Encoding: 64 64 36
Width: 2048
Flags: W
HStem: -356 143<744.528 1256.4> 88 143<926.008 1208.57> 842 145<1017 1318.03> 1298 144<1009.76 1533.74>
VStem: 215 144<169.489 656.499> 685 164<308.054 653.089> 1886 146<530.008 977.34>
Fore
1069 231 m 0
 1321 231 1394 483 1394 614 c 0
 1394 755 1315 842 1174 842 c 0
 914 842 849 574 849 454 c 0
 849 314 927 231 1069 231 c 0
1284 1298 m 0
 777 1298 359 877 359 402 c 0
 359 37 625 -213 1000 -213 c 0
 1202 -213 1383 -134 1512 -45 c 1
 1582 -156 l 1
 1432 -258 1217 -356 975 -356 c 0
 551 -356 215 -76 215 369 c 0
 215 931 707 1442 1307 1442 c 0
 1748 1442 2032 1147 2032 784 c 0
 2032 471 1831 95 1322 84 c 1
 1349 238 l 1
 1250 135 1143 88 1005 88 c 0
 783 88 685 250 685 436 c 0
 685 689 866 987 1163 987 c 0
 1307 987 1397 932 1454 836 c 1
 1478 967 l 1
 1621 967 l 1
 1491 231 l 1
 1769 272 1886 544 1886 766 c 0
 1886 1094 1612 1298 1284 1298 c 0
EndSplineSet
EndChar
StartChar: A
Encoding: 65 65 37
Width: 1401
Flags: W
HStem: 0 21G<16 239.653 1170.45 1384> 383 168<523 1072> 1473 20G<837.841 1082.1>
Fore
928 1294 m 1
 523 551 l 1
 1072 551 l 1
 928 1294 l 1
849 1493 m 1
 1078 1493 l 1
 1384 0 l 1
 1174 0 l 1
 1106 383 l 1
 433 383 l 1
 229 0 l 1
 16 0 l 1
 849 1493 l 1
EndSplineSet
EndChar
StartChar: B
Encoding: 66 66 38
Width: 1405
Flags: W
HStem: 0 166<432 953.853> 713 164<558 1053.28> 1327 166<637 1126.8>
VStem: 1131 211<326.015 601.951> 1194 209<1064.79 1264.42>
Fore
1131 510 m 0xf0
 1131 632 1063 713 853 713 c 2
 529 713 l 1
 432 166 l 1
 756 166 l 2
 1078 166 1131 380 1131 510 c 0xf0
1194 1153 m 0xe8
 1194 1258 1127 1327 936 1327 c 2
 637 1327 l 1
 558 877 l 1
 857 877 l 2
 1143 877 1194 1043 1194 1153 c 0xe8
1342 502 m 0xf0
 1342 303 1216 0 737 0 c 2
 201 0 l 1
 464 1493 l 1
 980 1493 l 2
 1217 1493 1403 1415 1403 1194 c 0xe8
 1403 1138 1382 851 1088 805 c 1
 1333 750 1342 556 1342 502 c 0xf0
EndSplineSet
EndChar
StartChar: C
Encoding: 67 67 39
Width: 1430
Flags: W
HStem: -29 166<720.073 1121.27> 1354 166<858.914 1322.31>
VStem: 231 211<340.522 860.524>
Fore
442 564 m 0
 442 137 801 137 880 137 c 0
 1078 137 1243 219 1376 326 c 1
 1339 115 l 1
 1205 33 1039 -29 839 -29 c 0
 613 -29 447 40 342 178 c 0
 255 292 231 440 231 622 c 0
 231 822 391 1520 1112 1520 c 0
 1264 1520 1422 1486 1562 1378 c 1
 1524 1165 l 1
 1410 1292 1267 1354 1095 1354 c 0
 549 1354 442 811 442 564 c 0
EndSplineSet
EndChar
StartChar: D
Encoding: 68 68 40
Width: 1577
Flags: HW
HStem: 0 166<432 977.889> 1327 166<637 1151.9>
VStem: 1391 216<632.401 1125.62>
Fore
1391 918 m 0
 1391 1163 1271 1327 881 1327 c 2
 637 1327 l 1
 432 166 l 1
 694 166 l 2
 891 166 1044 215 1154 306 c 0
 1336 458 1391 748 1391 918 c 0
879 1493 m 2
 1433 1493 1607 1276 1607 950 c 0
 1607 689 1514 357 1284 181 c 0
 1127 60 904 0 616 0 c 2
 201 0 l 1
 464 1493 l 1
 879 1493 l 2
EndSplineSet
EndChar
StartChar: E
Encoding: 69 69 41
Width: 1294
Flags: W
HStem: 0 170<433 1163> 711 170<558 1239> 1323 170<636 1378>
Fore
464 1493 m 1
 1408 1493 l 1
 1378 1323 l 1
 636 1323 l 1
 558 881 l 1
 1269 881 l 1
 1239 711 l 1
 528 711 l 1
 433 170 l 1
 1193 170 l 1
 1163 0 l 1
 201 0 l 1
 464 1493 l 1
EndSplineSet
EndChar
StartChar: F
Encoding: 70 70 42
Width: 1178
Flags: W
HStem: 0 21G<201 406.534> 713 170<559 1121> 1323 170<636 1292>
Fore
464 1493 m 1
 1322 1493 l 1
 1292 1323 l 1
 636 1323 l 1
 559 883 l 1
 1151 883 l 1
 1121 713 l 1
 529 713 l 1
 403 0 l 1
 201 0 l 1
 464 1493 l 1
EndSplineSet
EndChar
StartChar: G
Encoding: 71 71 43
Width: 1587
Flags: W
HStem: -29 166<658.691 1167.29> 614 166<1027 1327> 1354 166<859.146 1363.16>
VStem: 228 214<346.033 866.595>
Fore
442 564 m 0
 442 222 666 137 901 137 c 0
 1047 137 1160 162 1257 213 c 1
 1327 614 l 1
 997 614 l 1
 1027 780 l 1
 1557 780 l 1
 1444 139 l 1
 1291 43 1095 -29 855 -29 c 0
 353 -29 228 288 228 551 c 0
 228 1036 530 1520 1114 1520 c 0
 1278 1520 1460 1493 1623 1378 c 1
 1585 1163 l 1
 1475 1273 1325 1354 1116 1354 c 0
 534 1354 442 802 442 564 c 0
EndSplineSet
EndChar
StartChar: H
Encoding: 72 72 44
Width: 1540
Flags: W
HStem: 0 21G<201 406.516 1137 1342.52> 711 170<558 1262> 1473 20G<460.477 666 1396.47 1602>
Fore
464 1493 m 1
 666 1493 l 1
 558 881 l 1
 1292 881 l 1
 1400 1493 l 1
 1602 1493 l 1
 1339 0 l 1
 1137 0 l 1
 1262 711 l 1
 528 711 l 1
 403 0 l 1
 201 0 l 1
 464 1493 l 1
EndSplineSet
EndChar
StartChar: I
Encoding: 73 73 45
Width: 604
Flags: W
HStem: 0 21G<201 406.523> 1473 20G<460.477 666>
VStem: 201 465<0 1493>
Fore
464 1493 m 1
 666 1493 l 1
 403 0 l 1
 201 0 l 1
 464 1493 l 1
EndSplineSet
EndChar
StartChar: J
Encoding: 74 74 46
Width: 604
Flags: W
HStem: -410 170<-148 78.7488> 1473 20G<460.472 666>
VStem: -178 844<-410 1493>
Fore
464 1493 m 1
 666 1493 l 1
 421 104 l 2
 360.942 -241.014 212.2 -410 -101 -410 c 2
 -178 -410 l 1
 -148 -240 l 1
 -85 -240 l 2
 95.2971 -240 174.737 -148.558 219 104 c 2
 464 1493 l 1
EndSplineSet
EndChar
StartChar: K
Encoding: 75 75 47
Width: 1343
Flags: W
HStem: 0 21G<201 406.533 1103.59 1386> 1473 20G<460.477 666 1311.25 1596>
Fore
464 1493 m 1
 666 1493 l 1
 555 862 l 1
 1336 1493 l 1
 1596 1493 l 1
 733 797 l 1
 1386 0 l 1
 1120 0 l 1
 530 719 l 1
 403 0 l 1
 201 0 l 1
 464 1493 l 1
EndSplineSet
EndChar
StartChar: L
Encoding: 76 76 48
Width: 1141
Flags: W
HStem: 0 170<433 1130> 1473 20G<460.477 666>
VStem: 201 959<0 170>
Fore
464 1493 m 1
 666 1493 l 1
 433 170 l 1
 1160 170 l 1
 1130 0 l 1
 201 0 l 1
 464 1493 l 1
EndSplineSet
EndChar
StartChar: M
Encoding: 77 77 49
Width: 1767
Flags: W
HStem: 0 21G<201 400.524 1370 1570.52> 1473 20G<460.477 768.976 1517.94 1830>
Fore
464 1493 m 1
 765 1493 l 1
 967 477 l 1
 1529 1493 l 1
 1830 1493 l 1
 1567 0 l 1
 1370 0 l 1
 1601 1311 l 1
 1036 287 l 1
 833 287 l 1
 628 1311 l 1
 397 0 l 1
 201 0 l 1
 464 1493 l 1
EndSplineSet
EndChar
StartChar: N
Encoding: 78 78 50
Width: 1532
Flags: W
HStem: 0 21G<201 400.523 1051.92 1334.52> 1473 20G<460.477 743.078 1394.48 1594>
Fore
464 1493 m 1
 736 1493 l 1
 1178 244 l 1
 1398 1493 l 1
 1594 1493 l 1
 1331 0 l 1
 1059 0 l 1
 617 1249 l 1
 397 0 l 1
 201 0 l 1
 464 1493 l 1
EndSplineSet
EndChar
StartChar: O
Encoding: 79 79 51
Width: 1612
Flags: W
HStem: -29 164<643.778 1038.31> 1356 164<845.568 1231.79>
VStem: 228 215<348.068 859.685> 1432 215<625.951 1146.67>
Fore
1432 921 m 0
 1432 1117 1353 1356 1042 1356 c 0
 683 1356 443 1002 443 547 c 0
 443 417 505 135 831 135 c 256
 1257 135 1432 597 1432 921 c 0
1073 1520 m 0
 1532 1520 1647 1181 1647 950 c 0
 1647 435 1325 -29 802 -29 c 0
 444 -29 228 182 228 566 c 0
 228 993 510 1520 1073 1520 c 0
EndSplineSet
EndChar
StartChar: P
Encoding: 80 80 52
Width: 1235
Flags: W
HStem: 0 21G<201 406.533> 600 166<538 974.298> 1327 166<637 1057.48>
VStem: 1143 217<934.749 1248.56>
Fore
1143 1114 m 0
 1143 1188 1114 1327 892 1327 c 2
 637 1327 l 1
 538 766 l 1
 793 766 l 2
 1073 766 1143 985 1143 1114 c 0
1360 1154 m 0
 1360 927 1243 600 764 600 c 2
 509 600 l 1
 403 0 l 1
 201 0 l 1
 464 1493 l 1
 922 1493 l 2
 1178 1493 1360 1400 1360 1154 c 0
EndSplineSet
EndChar
StartChar: Q
Encoding: 81 81 53
Width: 1612
Flags: W
HStem: -29 164<643.778 895.91> 1356 164<845.568 1231.79>
VStem: 228 215<348.514 859.924> 1432 215<629.364 1146.67>
Fore
1432 921 m 0
 1432 1117 1353 1356 1042 1356 c 0
 683 1356 443 1002 443 547 c 0
 443 417 505 135 831 135 c 256
 1257 135 1432 597 1432 921 c 0
1073 1520 m 0
 1532 1520 1647 1181 1647 950 c 0
 1647 732 1573 224 1095 27 c 1
 1309 -264 l 1
 1065 -264 l 1
 887 -25 l 1
 819 -29 828 -29 802 -29 c 0
 444 -29 228 183 228 567 c 0
 228 993 510 1520 1073 1520 c 0
EndSplineSet
EndChar
StartChar: R
Encoding: 82 82 54
Width: 1423
Flags: W
HStem: 0 21G<201 406.518 1140.58 1364> 631 166<544 905.802> 1327 166<637 1067.84>
VStem: 1146 216<953.62 1259.48>
Fore
1362 1175 m 0
 1362 994 1289 770 1032 700 c 1
 1086 681 1161 629 1231 408 c 2
 1364 0 l 1
 1147 0 l 1
 1024 383 l 2
 967 562 908 631 734 631 c 2
 514 631 l 1
 403 0 l 1
 201 0 l 1
 464 1493 l 1
 920 1493 l 2
 1240 1493 1362 1366 1362 1175 c 0
1146 1130 m 0
 1146 1274 1040 1327 892 1327 c 2
 637 1327 l 1
 544 797 l 1
 798 797 l 2
 1091 797 1146 1012 1146 1130 c 0
EndSplineSet
EndChar
StartChar: S
Encoding: 83 83 55
Width: 1300
Flags: W
HStem: -29 164<384.345 866.722> 1356 164<696.041 1169.09>
VStem: 320 209<955.461 1212.36> 1050 217<295.809 569.901>
Fore
320 1009 m 0
 320 1225 472 1520 927 1520 c 0
 1097 1520 1241 1483 1351 1444 c 1
 1316 1247 l 1
 1214 1300 1079 1356 921 1356 c 0
 605 1356 529 1178 529 1063 c 0
 529 976 569 919 778 879 c 2
 896 854 l 2
 1114 811 1267 714 1267 504 c 0
 1267 318 1171 -29 609 -29 c 0
 440 -29 278 16 153 66 c 1
 189 274 l 1
 316 195 463 135 645 135 c 0
 950 135 1050 307 1050 449 c 0
 1050 534 1013 618 803 662 c 2
 684 686 l 2
 374 750 320 880 320 1009 c 0
EndSplineSet
EndChar
StartChar: T
Encoding: 84 84 56
Width: 1251
Flags: W
HStem: 0 21G<524 730.522> 1323 170<257 757 960 1490>
Fore
257 1493 m 1
 1520 1493 l 1
 1490 1323 l 1
 960 1323 l 1
 727 0 l 1
 524 0 l 1
 757 1323 l 1
 227 1323 l 1
 257 1493 l 1
EndSplineSet
EndChar
StartChar: U
Encoding: 85 85 57
Width: 1499
Flags: W
HStem: -29 164<577.538 985.391> 1473 20G<437.481 644 1377.47 1584>
VStem: 261 207<242.045 506.916>
Fore
786 135 m 0
 1076 135 1177 335 1221 586 c 2
 1381 1493 l 1
 1584 1493 l 1
 1420 561 l 2
 1356 200 1148 -29 745 -29 c 0
 391 -29 261 144 261 403 c 0
 261 452 267 504 277 561 c 2
 441 1493 l 1
 644 1493 l 1
 484 586 l 2
 473 525 468 470 468 422 c 0
 468 222 558 135 786 135 c 0
EndSplineSet
EndChar
StartChar: V
Encoding: 86 86 58
Width: 1401
Flags: W
HStem: 0 21G<581.887 826.145> 1473 20G<279 494.01 1425.94 1647>
Fore
586 0 m 1
 279 1493 l 1
 490 1493 l 1
 742 236 l 1
 1437 1493 l 1
 1647 1493 l 1
 815 0 l 1
 586 0 l 1
EndSplineSet
EndChar
StartChar: W
Encoding: 87 87 59
Width: 2025
Flags: W
HStem: 0 21G<440.513 704.441 1327.67 1591.55> 1473 20G<331 536.458 1153.52 1390.46 2007.52 2221>
VStem: 331 204<212.819 1478.17>
Fore
331 1493 m 1
 535 1493 l 1
 627 231 l 1
 1162 1493 l 1
 1389 1493 l 1
 1481 231 l 1
 2016 1493 l 1
 2221 1493 l 1
 1583 0 l 1
 1329 0 l 1
 1243 1296 l 1
 696 0 l 1
 442 0 l 1
 331 1493 l 1
EndSplineSet
EndChar
StartChar: X
Encoding: 88 88 60
Width: 1403
Flags: W
HStem: 0 21G<61 295.85 1112.3 1339> 1473 20G<392 618.838 1336.03 1570>
Fore
392 1493 m 1
 609 1493 l 1
 882 938 l 1
 1353 1493 l 1
 1570 1493 l 1
 964 776 l 1
 1339 0 l 1
 1122 0 l 1
 814 635 l 1
 279 0 l 1
 61 0 l 1
 735 797 l 1
 392 1493 l 1
EndSplineSet
EndChar
StartChar: Y
Encoding: 89 89 61
Width: 1251
Flags: W
HStem: 0 21G<524 730.516> 1473 20G<259 485.967 1284.09 1518>
Fore
259 1493 m 1
 476 1493 l 1
 782 879 l 1
 1301 1493 l 1
 1518 1493 l 1
 852 711 l 1
 727 0 l 1
 524 0 l 1
 649 711 l 1
 259 1493 l 1
EndSplineSet
EndChar
StartChar: Z
Encoding: 90 90 62
Width: 1403
Flags: W
HStem: 0 170<374 1311> 1323 170<378 1269>
Fore
378 1493 m 1
 1551 1493 l 1
 1524 1339 l 1
 374 170 l 1
 1341 170 l 1
 1311 0 l 1
 92 0 l 1
 119 154 l 1
 1269 1323 l 1
 348 1323 l 1
 378 1493 l 1
EndSplineSet
EndChar
StartChar: bracketleft
Encoding: 91 91 63
Width: 799
Flags: W
HStem: -270 143<338 552> 1413 143<609 849>
VStem: 128 746<-270 1556>
Fore
450 1556 m 1
 874 1556 l 1
 849 1413 l 1
 609 1413 l 1
 338 -127 l 1
 578 -127 l 1
 552 -270 l 1
 128 -270 l 1
 450 1556 l 1
EndSplineSet
EndChar
StartChar: backslash
Encoding: 92 92 64
Width: 690
Flags: W
HStem: 1473 20G<263 435.65>
VStem: 263 393<-190 1493> 263 170<-204.71 1470.67>
Fore
433 1493 m 1xa0
 656 -190 l 1
 486 -190 l 1
 263 1493 l 1xc0
 433 1493 l 1xa0
EndSplineSet
EndChar
StartChar: bracketright
Encoding: 93 93 65
Width: 799
Flags: W
HStem: -270 143<177 416> 1413 143<473 687>
VStem: 151 746<-270 1556>
Fore
897 1556 m 1
 575 -270 l 1
 151 -270 l 1
 177 -127 l 1
 416 -127 l 1
 687 1413 l 1
 448 1413 l 1
 473 1556 l 1
 897 1556 l 1
EndSplineSet
EndChar
StartChar: asciicircum
Encoding: 94 94 66
Width: 1716
Flags: W
HStem: 936 557<1219 1664>
Fore
1219 1493 m 1
 1664 936 l 1
 1463 936 l 1
 1093 1331 l 1
 583 936 l 1
 382 936 l 1
 1023 1493 l 1
 1219 1493 l 1
EndSplineSet
EndChar
StartChar: underscore
Encoding: 95 95 67
Width: 1024
Flags: W
HStem: -483 143<-80 959>
Fore
984 -340 m 1
 959 -483 l 1
 -105 -483 l 1
 -80 -340 l 1
 984 -340 l 1
EndSplineSet
EndChar
StartChar: grave
Encoding: 96 96 68
Width: 1024
Flags: W
HStem: 1264 374<656 872>
VStem: 459 413<1264 1638>
Fore
656 1638 m 1
 872 1264 l 1
 719 1264 l 1
 459 1638 l 1
 656 1638 l 1
EndSplineSet
EndChar
StartChar: a
Encoding: 97 97 69
Width: 1255
Flags: W
HStem: -29 154<419.615 721.129> 563 144<509.556 984> 991 156<594.406 930.249>
VStem: 173 190<180.063 441.151> 1018 178<713.105 906.552>
Back
205 899 m 9
 205 1069 l 17
 308.333 1120.33 435.333 1146.33 586 1147 c 0
 746.687 1148.41 867.854 1106.25 949.5 1020.5 c 128
 1029.17 936.833 1069 809.667 1069 639 c 2
 1069 0 l 1
 885 0 l 1
 885 170 l 1
 843 102 790.667 51.8333 728 19.5 c 128
 665.333 -12.8333 588.667 -29 498 -29 c 0
 383.333 -29 292.167 3.16667 224.5 67.5 c 128
 156.833 131.833 123 218 123 326 c 0
 123 452 165.167 547 249.5 611 c 128
 333.833 675 459.667 707 627 707 c 2
 885 707 l 1
 885 725 l 2
 885 809.667 857.167 875.167 801.5 921.5 c 128
 746.491 967.285 668.325 990.452 567 991 c 8
 450.333 991.667 329.667 961 205 899 c 9
702 563 m 2
 553.333 563 450.333 546 393 512 c 128
 335.667 478 307 420 307 338 c 0
 307 272.667 328.5 220.833 371.5 182.5 c 128
 414.5 144.167 473 125 547 125 c 0
 649 125 730.833 161.167 792.5 233.5 c 128
 854.167 305.833 885 402 885 522 c 2
 885 563 l 1
 702 563 l 2
EndSplineSet
Fore
363 290 m 0
 363 224 396 125 581 125 c 0
 733 125 927 242 977 522 c 2
 984 563 l 1
 801 563 l 2
 547 563 363 518 363 290 c 0
788 1147 m 0
 1046 1147 1196 1041 1196 787 c 0
 1196 742 1191 693 1182 639 c 2
 1069 0 l 1
 885 0 l 1
 915 170 l 1
 823 54 697 -29 493 -29 c 0
 254 -29 173 112 173 252 c 0
 173 396 243 707 752 707 c 2
 1010 707 l 1
 1012 721 1018 750 1018 779 c 0
 1018 949 872 991 744 991 c 0
 592 991 466 950 364 899 c 1
 393 1069 l 1
 580 1136 709 1147 788 1147 c 0
EndSplineSet
EndChar
StartChar: b
Encoding: 98 98 70
Width: 1300
Flags: W
HStem: -29 154<558.446 864.664> 993 154<721.541 1004.9> 1536 20G<456.478 645>
VStem: 1108 194<437.4 884.012>
Fore
706 125 m 256
 999 125 1108 476 1108 692 c 0
 1108 876 1025 993 859 993 c 256
 563 993 457 638 457 423 c 0
 457 288 507 125 706 125 c 256
724 -29 m 0
 536 -29 446 56 401 168 c 1
 371 0 l 1
 186 0 l 1
 460 1556 l 1
 645 1556 l 1
 539 950 l 1
 622 1061 743 1147 931 1147 c 0
 1164 1147 1302 975 1302 716 c 0
 1302 361 1083 -29 724 -29 c 0
EndSplineSet
EndChar
StartChar: c
Encoding: 99 99 71
Width: 1126
Flags: W
HStem: -29 156<528.605 933.817> 991 156<668.01 1076.28>
VStem: 200 194<260.891 683.346>
Fore
394 438 m 0
 394 294 457 127 706 127 c 0
 838 127 955 172 1037 213 c 1
 1007 43 l 1
 911 2 798 -29 659 -29 c 0
 292 -29 200 205 200 457 c 0
 200 640 333 1147 878 1147 c 0
 1002 1147 1106 1118 1189 1077 c 1
 1159 905 l 1
 1081 952 981 991 857 991 c 0
 487 991 394 623 394 438 c 0
EndSplineSet
EndChar
StartChar: d
Encoding: 100 100 72
Width: 1300
Flags: W
HStem: -29 154<492.434 775.114> 993 154<630.86 939.062> 1536 20G<1200.5 1388>
VStem: 198 191<234.356 684.929>
Fore
1098 950 m 1
 1204 1556 l 1
 1388 1556 l 1
 1114 0 l 1
 930 0 l 1
 960 168 l 1
 875 57 756 -29 566 -29 c 0
 419 -29 198 33 198 444 c 0
 198 650 355 1147 773 1147 c 0
 961 1147 1052 1063 1098 950 c 1
791 993 m 256
 495 993 389 638 389 423 c 0
 389 288 439 125 638 125 c 256
 929 125 1041 471 1041 692 c 0
 1041 828 991 993 791 993 c 256
EndSplineSet
EndChar
StartChar: e
Encoding: 101 101 73
Width: 1260
Flags: W
HStem: -29 156<530.905 996.376> 516 143<427 1083> 991 156<648.427 992.847>
VStem: 198 193<262.501 512.885> 1090 181<663.081 891.576>
Fore
864 1147 m 0
 1131 1147 1271 987 1271 742 c 0
 1271 699 1266 654 1258 606 c 2
 1242 516 l 1
 396 516 l 1
 393 490 391 465 391 442 c 0
 391 282 462 127 727 127 c 0
 893 127 1034 175 1149 231 c 1
 1118 57 l 1
 963 -4 818 -29 689 -29 c 0
 287 -29 198 242 198 398 c 0
 198 807 454 1147 864 1147 c 0
1090 738 m 0
 1090 887 1003 991 839 991 c 0
 615 991 478 851 427 659 c 1
 1083 660 l 1
 1088 688 1090 714 1090 738 c 0
EndSplineSet
EndChar
StartChar: f
Encoding: 102 102 74
Width: 721
Flags: W
HStem: 0 21G<223 411.521> 977 143<244 395 605 883> 1403 153<686.141 1007>
VStem: 219 815<977 1556>
Fore
1034 1556 m 1
 1007 1403 l 1
 831 1403 l 2
 698 1403 646 1354 623 1219 c 2
 605 1120 l 1
 908 1120 l 1
 883 977 l 1
 580 977 l 1
 408 0 l 1
 223 0 l 1
 395 977 l 1
 219 977 l 1
 244 1120 l 1
 420 1120 l 1
 434 1198 l 2
 475 1430 592 1556 860 1556 c 2
 1034 1556 l 1
EndSplineSet
EndChar
StartChar: g
Encoding: 103 103 75
Width: 1300
Flags: W
HStem: -426 152<350.816 726.623> 0 154<495.689 781.696> 993 154<628.615 945.222>
VStem: 199 193<261.151 690.681>
Fore
656 154 m 0
 923 154 1043 471 1043 703 c 0
 1043 885 959 993 791 993 c 0
 517 993 392 699 392 430 c 0
 392 310 440 154 656 154 c 0
773 1147 m 0
 960 1147 1052 1063 1098 950 c 1
 1127 1120 l 1
 1311 1120 l 1
 1139 139 l 2
 1075 -219 893 -426 523 -426 c 0
 430 -426 309 -417 183 -367 c 1
 215 -188 l 1
 300 -239 399 -274 521 -274 c 0
 782 -274 907 -128 949 106 c 2
 965 197 l 1
 881 87 760 0 571 0 c 0
 338 0 199 164 199 418 c 0
 199 719 377 1147 773 1147 c 0
EndSplineSet
EndChar
StartChar: h
Encoding: 104 104 76
Width: 1298
Flags: W
HStem: 0 21G<186 374.539 940 1127.52> 987 160<733.832 1006.07> 1536 20G<456.478 645>
VStem: 1068 189<711.778 926.985>
Fore
935 1147 m 0
 1193 1147 1257 984 1257 826 c 0
 1257 781 1253 731 1243 676 c 2
 1124 0 l 1
 940 0 l 1
 1058 670 l 2
 1065 709 1068 744 1068 776 c 0
 1068 946.244 970.3 987 866 987 c 0
 651 987 519 835 483 633 c 2
 371 0 l 1
 186 0 l 1
 460 1556 l 1
 645 1556 l 1
 538 946 l 1
 626 1051 748 1147 935 1147 c 0
EndSplineSet
EndChar
StartChar: i
Encoding: 105 105 77
Width: 569
Flags: W
HStem: 0 21G<193 380.518> 1100 20G<386.482 574> 1323 233<467 610>
VStem: 193 458<0 1556>
Fore
390 1120 m 1
 574 1120 l 1
 377 0 l 1
 193 0 l 1
 390 1120 l 1
467 1556 m 1
 651 1556 l 1
 610 1323 l 1
 426 1323 l 1
 467 1556 l 1
EndSplineSet
EndChar
StartChar: j
Encoding: 106 106 78
Width: 569
Flags: W
HStem: -426 156<-85 103.351> 1100 20G<386.474 574> 1323 233<467 610>
VStem: -112 763<-426 1556>
Fore
390 1120 m 1
 574 1120 l 1
 373 -20 l 2
 326 -294 207 -426 -42 -426 c 2
 -112 -426 l 1
 -85 -270 l 1
 -36 -270 l 2
 111 -270 156 -209 189 -20 c 2
 390 1120 l 1
467 1556 m 1
 651 1556 l 1
 610 1323 l 1
 426 1323 l 1
 467 1556 l 1
EndSplineSet
EndChar
StartChar: k
Encoding: 107 107 79
Width: 1186
Flags: W
HStem: 0 21G<186 374.51 922.706 1180> 1100 20G<1090.75 1352> 1536 20G<456.478 645>
Fore
460 1556 m 1
 645 1556 l 1
 483 637 l 1
 1117 1120 l 1
 1352 1120 l 1
 666 596 l 1
 1180 0 l 1
 940 0 l 1
 467 547 l 1
 371 0 l 1
 186 0 l 1
 460 1556 l 1
EndSplineSet
EndChar
StartChar: l
Encoding: 108 108 80
Width: 569
Flags: W
HStem: 0 21G<193 380.522> 1536 20G<463.478 651>
VStem: 193 458<0 1556>
Fore
467 1556 m 1
 651 1556 l 1
 377 0 l 1
 193 0 l 1
 467 1556 l 1
EndSplineSet
EndChar
StartChar: m
Encoding: 109 109 81
Width: 1995
Flags: W
HStem: 0 21G<186 374.539 911 1099.54 1636 1824.52> 987 160<727.609 987.775 1452.66 1712.08>
VStem: 1766 188<719.138 930.676>
Fore
933 1147 m 0
 1004 1147 1184 1133 1225 905 c 1
 1315 1029 1447 1147 1658 1147 c 0
 1853 1147 1954 1029 1954 821 c 0
 1954 777 1949 729 1940 676 c 2
 1821 0 l 1
 1636 0 l 1
 1754 670 l 2
 1762 713 1766 751 1766 786 c 0
 1766 892 1728 987 1579 987 c 0
 1369 987 1243 831 1208 633 c 2
 1096 0 l 1
 911 0 l 1
 1029 670 l 2
 1037 713 1041 752 1041 786 c 0
 1041 946.8 953.793 987 852 987 c 0
 646 987 517 831 483 633 c 2
 371 0 l 1
 186 0 l 1
 383 1120 l 1
 568 1120 l 1
 538 946 l 1
 624 1055 742 1147 933 1147 c 0
EndSplineSet
EndChar
StartChar: n
Encoding: 110 110 82
Width: 1298
Flags: W
HStem: 0 21G<186 374.539 940 1127.52> 987 160<733.832 1006.02>
VStem: 1068 189<711.778 923.355>
Fore
935 1147 m 0
 1193 1147 1257 984 1257 826 c 0
 1257 781 1253 731 1243 676 c 2
 1124 0 l 1
 940 0 l 1
 1058 670 l 2
 1065 709 1068 744 1068 776 c 0
 1068 946 970 987 866 987 c 0
 651 987 519 835 483 633 c 2
 371 0 l 1
 186 0 l 1
 383 1120 l 1
 568 1120 l 1
 538 946 l 1
 626 1051 748 1147 935 1147 c 0
EndSplineSet
EndChar
StartChar: o
Encoding: 111 111 83
Width: 1253
Flags: W
HStem: -29 156<502.454 810.332> 991 156<639.734 947.971>
VStem: 197 196<240.339 682.042> 1057 198<437.998 875.238>
Fore
1057 686 m 0
 1057 872 969 991 802 991 c 0
 528 991 393 688 393 417 c 0
 393 298 444 127 649 127 c 0
 953 127 1057 491 1057 686 c 0
197 400 m 0
 197 645 323 1147 829 1147 c 0
 1169 1147 1255 910 1255 716 c 0
 1255 378 1062 -29 622 -29 c 0
 282 -29 197 207 197 400 c 0
EndSplineSet
EndChar
StartChar: p
Encoding: 112 112 84
Width: 1300
Flags: W
HStem: -426 21G<111 299.535> -29 154<558.446 864.664> 993 154<721.541 1004.9>
VStem: 1108 194<437.4 884.012>
Fore
724 -29 m 0
 536 -29 446 56 401 168 c 1
 296 -426 l 1
 111 -426 l 1
 383 1120 l 1
 568 1120 l 1
 539 950 l 1
 622 1061 743 1147 931 1147 c 0
 1164 1147 1302 975 1302 716 c 0
 1302 361 1083 -29 724 -29 c 0
706 125 m 256
 999 125 1108 476 1108 692 c 0
 1108 876 1025 993 859 993 c 256
 563 993 457 638 457 423 c 0
 457 288 507 125 706 125 c 256
EndSplineSet
EndChar
StartChar: q
Encoding: 113 113 85
Width: 1300
Flags: W
HStem: -426 21G<855 1042.52> -29 154<492.401 775.114> 993 154<630.86 939.141>
VStem: 198 191<234.356 684.929>
Fore
791 993 m 256
 495 993 389 638 389 423 c 0
 389 288 439 125 638 125 c 256
 929 125 1041 471 1041 692 c 0
 1041 828 991 993 791 993 c 256
1098 950 m 1
 1127 1120 l 1
 1311 1120 l 1
 1039 -426 l 1
 855 -426 l 1
 960 168 l 1
 875 57 756 -29 566 -29 c 0
 418.8 -29 198 33 198 444 c 0
 198 650 355 1147 773 1147 c 0
 961.396 1147 1051.93 1063.18 1098 950 c 1
EndSplineSet
EndChar
StartChar: r
Encoding: 114 114 86
Width: 842
Flags: W
HStem: 0 21G<186 374.525> 983 164<727.257 960.598>
VStem: 186 855<0 1137>
Fore
538 946 m 1
 626 1064 751 1147 950 1147 c 0
 968 1147 996 1145 1041 1137 c 1
 1009 948 l 1
 972 972 927 983 867 983 c 0
 553 983 490 675 475 590 c 2
 371 0 l 1
 186 0 l 1
 383 1120 l 1
 568 1120 l 1
 538 946 l 1
EndSplineSet
EndChar
StartChar: s
Encoding: 115 115 87
Width: 1067
Flags: W
HStem: -29 154<285.999 733.678> 993 154<535.603 994.028>
VStem: 257 183<717.245 911.04> 833 195<214.469 416.736>
Fore
257 760 m 0
 257 891 344 1147 751 1147 c 0
 886 1147 1004 1127 1099 1087 c 1
 1068 913 l 1
 957 976 843 993 746 993 c 0
 489 993 440 877 440 800 c 0
 440 733 482 696 658 655 c 2
 719 641 l 2
 923 596 1028 525 1028 378 c 0
 1028 189 886 -29 499 -29 c 0
 347 -29 208 10 118 41 c 1
 152 231 l 1
 252 174 378 125 530 125 c 0
 779 125 833 247 833 328 c 0
 833 419 755 450 592 487 c 2
 531 502 l 2
 290 555 257 657 257 760 c 0
EndSplineSet
EndChar
StartChar: t
Encoding: 116 116 88
Width: 803
Flags: W
HStem: 0 154<442.9 754> 977 143<252 362 572 926>
VStem: 242 187<173.069 330.945>
Fore
565 0 m 2
 291 0 242 94 242 236 c 0
 242 274 246 319 255 369 c 2
 362 977 l 1
 227 977 l 1
 252 1120 l 1
 387 1120 l 1
 444 1438 l 1
 629 1438 l 1
 572 1120 l 1
 951 1120 l 1
 926 977 l 1
 547 977 l 1
 440 369 l 2
 433 329 429 294 429 267 c 0
 429 198 444 154 592 154 c 2
 781 154 l 1
 754 0 l 1
 565 0 l 2
EndSplineSet
EndChar
StartChar: u
Encoding: 117 117 89
Width: 1298
Flags: W
HStem: -29 160<490.317 765.745> 1100 20G<367.49 555 1121.5 1309>
VStem: 238 189<193.07 405.835>
Fore
562 -29 m 0
 303 -29 238 141 238 283 c 0
 238 331 242 384 252 442 c 2
 371 1120 l 1
 555 1120 l 1
 437 449 l 2
 430 412 427 378 427 347 c 0
 427 230 467 131 629 131 c 0
 843 131 978 282 1014 485 c 2
 1125 1120 l 1
 1309 1120 l 1
 1112 0 l 1
 928 0 l 1
 958 172 l 1
 847 39 720 -29 562 -29 c 0
EndSplineSet
EndChar
StartChar: v
Encoding: 118 118 90
Width: 1212
Flags: W
HStem: 0 21G<477.018 742.018> 1100 20G<258 456.936 1142.04 1348>
Fore
258 1120 m 1
 453 1120 l 1
 638 180 l 1
 1153 1120 l 1
 1348 1120 l 1
 731 0 l 1
 481 0 l 1
 258 1120 l 1
EndSplineSet
EndChar
StartChar: w
Encoding: 119 119 91
Width: 1675
Flags: W
HStem: 0 21G<377.286 604.802 1077.28 1304.75> 1100 20G<283 468.739 917.236 1144.74 1593.24 1786>
VStem: 283 184<226.762 1104.06>
Fore
283 1120 m 1
 467 1120 l 1
 543 246 l 1
 926 1120 l 1
 1143 1120 l 1
 1219 246 l 1
 1602 1120 l 1
 1786 1120 l 1
 1296 0 l 1
 1079 0 l 1
 1000 918 l 1
 596 0 l 1
 379 0 l 1
 283 1120 l 1
EndSplineSet
EndChar
StartChar: x
Encoding: 120 120 92
Width: 1212
Flags: W
HStem: 0 21G<59 294.364 916.727 1145> 1100 20G<293 521.378 1085.6 1321>
Fore
1321 1120 m 1
 820 575 l 1
 1145 0 l 1
 928 0 l 1
 680 440 l 1
 276 0 l 1
 59 0 l 1
 597 586 l 1
 293 1120 l 1
 510 1120 l 1
 737 721 l 1
 1104 1120 l 1
 1321 1120 l 1
EndSplineSet
EndChar
StartChar: y
Encoding: 121 121 93
Width: 1212
Flags: W
HStem: -426 154<114 279.272> 1100 20G<258 457.475 1141.49 1348>
Fore
641 -104 m 2
 509 -335 420 -426 234 -426 c 2
 87 -426 l 1
 114 -272 l 1
 222 -272 l 2
 273 -272 314 -260 346 -236 c 0
 379 -212 420 -155 469 -66 c 2
 517 18 l 1
 258 1120 l 1
 453 1120 l 1
 649 244 l 1
 1153 1120 l 1
 1348 1120 l 1
 641 -104 l 2
EndSplineSet
EndChar
StartChar: z
Encoding: 122 122 94
Width: 1075
Flags: W
HStem: 0 147<321 987> 973 147<310 952>
Fore
310 1120 m 1
 1184 1120 l 1
 1155 952 l 1
 321 147 l 1
 1013 147 l 1
 987 0 l 1
 88 0 l 1
 118 168 l 1
 952 973 l 1
 285 973 l 1
 310 1120 l 1
EndSplineSet
EndChar
StartChar: braceleft
Encoding: 123 123 95
Width: 1303
Flags: W
HStem: -334 144<775.242 988> 541 143<377 583.553> 1413 143<1042.62 1296>
VStem: 559 190<-163.96 -2.93178> 625 190<312.609 499.23>
Fore
922 -334 m 0xf0
 617 -334 559 -255 559 -104 c 0xf0
 559 -64 564 -18 573 35 c 2
 615 274 l 2
 622 311 625 344 625 373 c 0
 625 474 594 541 412 541 c 2
 351 541 l 1
 377 684 l 1
 438 684 l 2
 627 684 700 751 734 948 c 2
 776 1188 l 2
 802 1335 848 1434 912 1482 c 0
 978 1532 1093 1556 1259 1556 c 2
 1321 1556 l 1
 1296 1413 l 1
 1228 1413 l 2
 1037 1413 993 1363 961 1184 c 2
 917 936 l 2
 884 750 826 649 659 612 c 1
 780 581 815 516 815 412 c 0xe8
 815 376 811 334 803 287 c 2
 759 39 l 2
 752 -1 749 -35 749 -63 c 0
 749 -144 771 -190 945 -190 c 2
 1013 -190 l 1
 988 -334 l 1
 922 -334 l 0xf0
EndSplineSet
EndChar
StartChar: bar
Encoding: 124 124 96
Width: 690
Flags: W
VStem: 175 531<-483 1565>
Fore
706 1565 m 1
 345 -483 l 1
 175 -483 l 1
 536 1565 l 1
 706 1565 l 1
EndSplineSet
EndChar
StartChar: braceright
Encoding: 125 125 97
Width: 1303
Flags: W
HStem: -334 144<222 477.807> 541 143<934.473 1142> 1413 143<530 739.571>
VStem: 703 189<726.594 907.591> 770 188<1225.71 1387.56>
Fore
593 1556 m 2xe8
 897 1556 958 1482 958 1327 c 0xe8
 958 1287 953 1240 944 1188 c 2
 902 948 l 2
 896 911 892 878 892 850 c 0
 892 750 926 684 1106 684 c 2
 1168 684 l 1
 1142 541 l 1
 1080 541 l 2
 891 541 818 472 783 274 c 2
 741 35 l 2
 715 -112 670 -211 606 -260 c 0
 542 -309 428 -334 264 -334 c 2
 197 -334 l 1
 222 -190 l 1
 292 -190 l 2
 482 -190 526 -141 558 39 c 2
 602 287 l 2
 635 475 693 573 860 612 c 1
 732 642 703 712 703 809 c 0xf0
 703 845 707 888 716 936 c 2
 760 1184 l 2
 767 1224 770 1258 770 1286 c 0
 770 1367 748 1413 575 1413 c 2
 505 1413 l 1
 530 1556 l 1
 593 1556 l 2xe8
EndSplineSet
EndChar
StartChar: asciitilde
Encoding: 126 126 98
Width: 1716
Flags: W
HStem: 492 165<1065.89 1420.98> 627 166<522.682 876.42>
Fore
1205 492 m 0x80
 1006 492 863 627 686 627 c 0
 609 627 492 609 299 467 c 1
 331 645 l 1
 442 718 575 793 738 793 c 0x40
 935 793 1080 657 1257 657 c 0
 1381 657 1502 717 1643 817 c 1
 1612 639 l 1
 1502 566 1368 492 1205 492 c 0x80
EndSplineSet
EndChar
StartChar: exclamdown
Encoding: 161 161 100
Width: 821
Flags: W
HStem: 0 21G<309 515.511> 1239 254<572 730>
VStem: 309 466<0 1493>
Fore
730 1239 m 1
 527 1239 l 1
 572 1493 l 1
 775 1493 l 1
 730 1239 l 1
512 0 m 1
 309 0 l 1
 424 655 l 1
 508 1012 l 1
 670 1012 l 1
 627 655 l 1
 512 0 l 1
EndSplineSet
EndChar
StartChar: cent
Encoding: 162 162 101
Width: 1303
Flags: W
HStem: 991 154<983 1139.76>
VStem: 257 198<257.71 681.949>
Fore
852 987 m 1
 553 951 455 635 455 444 c 0
 455 194 611 142 701 131 c 1
 852 987 l 1
674 -25 m 1
 408 -3 257 146 257 422 c 0
 257 593 341 1097 880 1145 c 1
 930 1432 l 1
 1032 1432 l 1
 983 1145 l 1
 1064 1141 1153 1124 1249 1077 c 1
 1219 905 l 1
 1150 947 1063 986 956 991 c 1
 802 127 l 1
 922 135 1023 176 1097 213 c 1
 1067 43 l 1
 985 8 893 -18 775 -29 c 1
 725 -313 l 1
 623 -313 l 1
 674 -25 l 1
EndSplineSet
EndChar
StartChar: sterling
Encoding: 163 163 102
Width: 1303
Flags: W
HStem: 0 170<159 395 595 1122> 635 143<303 477 702 1068> 1360 160<889.764 1255.75>
Fore
1327 1278 m 1
 1265 1315 1172 1360 1069 1360 c 0
 866 1360 787 1263 740 993 c 2
 702 778 l 1
 1093 778 l 1
 1068 635 l 1
 677 635 l 1
 595 170 l 1
 1152 170 l 1
 1122 0 l 1
 129 0 l 1
 159 170 l 1
 395 170 l 1
 477 635 l 1
 278 635 l 1
 303 778 l 1
 502 778 l 1
 544 1016 l 2
 603 1349 758 1520 1079 1520 c 0
 1178 1520 1284 1490 1359 1460 c 1
 1327 1278 l 1
EndSplineSet
EndChar
StartChar: currency
Encoding: 164 164 103
Width: 1303
Flags: W
HStem: 215 158<576.959 877.861> 909 158<655.62 956.073> 1182 20G<1286.65 1326.35>
VStem: 334 157<484.777 747.389> 1040 159<537.54 802.07>
Fore
841 1067 m 0
 936 1067 1008 1034 1066 993 c 1
 1310 1202 l 1
 1404 1087 l 1
 1161 881 l 1
 1189 820 1199 764 1199 714 c 0
 1199 591 1147 490 1073 406 c 1
 1245 199 l 1
 1111 86 l 1
 941 293 l 1
 875 253 791 215 691 215 c 0
 599 215 522 250 465 289 c 1
 221 82 l 1
 129 197 l 1
 372 403 l 1
 345 467 334 524 334 576 c 0
 334 713 406 817 458 877 c 1
 287 1083 l 1
 422 1198 l 1
 593 991 l 1
 662 1034 742 1067 841 1067 c 0
719 373 m 256
 895 373 1040 528 1040 694 c 0
 1040 802 964 909 812 909 c 0
 646 909 491 766 491 591 c 0
 491 478 573 373 719 373 c 256
EndSplineSet
EndChar
StartChar: yen
Encoding: 165 165 104
Width: 1303
Flags: W
HStem: 0 21G<551 755.516> 455 123<237 631 852 1245> 784 123<295 559 1061 1303> 1473 20G<345 542.314 1276.71 1482>
Fore
1245 455 m 1
 832 455 l 1
 752 0 l 1
 551 0 l 1
 631 455 l 1
 215 455 l 1
 237 578 l 1
 653 578 l 1
 662 629 l 1
 605 784 l 1
 273 784 l 1
 295 907 l 1
 559 907 l 1
 345 1493 l 1
 535 1493 l 1
 791 793 l 1
 1291 1493 l 1
 1482 1493 l 1
 1061 907 l 1
 1325 907 l 1
 1303 784 l 1
 972 784 l 1
 861 629 l 1
 852 578 l 1
 1267 578 l 1
 1245 455 l 1
EndSplineSet
EndChar
StartChar: brokenbar
Encoding: 166 166 105
Width: 690
Flags: W
VStem: 198 484<-350 1432>
Fore
502 408 m 1
 368 -350 l 1
 198 -350 l 1
 332 408 l 1
 502 408 l 1
682 1432 m 1
 549 674 l 1
 379 674 l 1
 512 1432 l 1
 682 1432 l 1
EndSplineSet
EndChar
StartChar: section
Encoding: 167 167 106
Width: 1024
Flags: W
HStem: -195 144<253.267 623.338> 1376 144<627.552 983.226>
VStem: 214 171<616.705 800.94> 370 187<1119.68 1310.7> 700 189<22.8633 223.913> 875 170<514.279 728.538>
Fore
715 410 m 1xe4
 804 467 875 536 875 619 c 0
 875 720 785 793 544 936 c 1
 397 841 385 768 385 726 c 0
 385 625 475 553 715 410 c 1xe4
370 1180 m 0xd0
 370 1345 511 1520 792 1520 c 0
 910 1520 1011 1492 1087 1462 c 1
 1058 1298 l 1
 1009 1323 897 1376 790 1376 c 0
 617 1376 557 1276 557 1209 c 0
 557 1153 615 1090 728 1020 c 2
 764 997 l 2
 987 857 1045 782 1045 673 c 0xd4
 1045 540 961 421 805 340 c 1
 861 285 889 229 889 163 c 0
 889 20 772 -195 453 -195 c 0
 337 -195 230 -166 148 -137 c 1
 177 27 l 1
 239 -3 350 -51 456 -51 c 0
 641 -51 700 56 700 127 c 0
 700 190 639 259 518 334 c 2
 495 348 l 2
 268 490 214 563 214 672 c 0xe8
 214 805 301 931 453 1006 c 1
 412 1042 370 1097 370 1180 c 0xd0
EndSplineSet
EndChar
StartChar: dieresis
Encoding: 168 168 107
Width: 1024
Flags: W
HStem: 1350 202<489 656 880 1047>
VStem: 453 630<1350 1552>
Fore
880 1552 m 1
 1083 1552 l 1
 1047 1350 l 1
 844 1350 l 1
 880 1552 l 1
489 1552 m 1
 692 1552 l 1
 656 1350 l 1
 453 1350 l 1
 489 1552 l 1
EndSplineSet
EndChar
StartChar: copyright
Encoding: 169 169 108
Width: 2048
Flags: W
HStem: 0 102<819.547 1276.87> 289 119<964.933 1349.49> 1073 119<1067.43 1458.68> 1382 103<1029.81 1493.02>
VStem: 401 103<420.397 857.227> 703 165<504.519 858.534> 1805 104<623.433 1076.88>
Fore
1024 0 m 256
 618 0 401 312 401 603 c 0
 401 1069 821 1485 1286 1485 c 256
 1679 1485 1909 1187 1909 879 c 0
 1909 414 1485 0 1024 0 c 256
1805 859 m 0
 1805 1128 1611 1382 1268 1382 c 0
 859 1382 504 1010 504 629 c 0
 504 371 693 102 1042 102 c 0
 1438 102 1805 455 1805 859 c 0
703 631 m 0
 703 928 898 1192 1259 1192 c 0
 1365 1192 1451 1169 1523 1137 c 1
 1501 1008 l 1
 1435 1044 1351 1073 1250 1073 c 0
 944 1073 868 802 868 656 c 0
 868 529 933 408 1143 408 c 0
 1248 408 1334 439 1406 473 c 1
 1384 346 l 1
 1305 314 1209 289 1100 289 c 0
 777 289 703 497 703 631 c 0
EndSplineSet
EndChar
StartChar: ordfeminine
Encoding: 170 170 109
Width: 965
Flags: W
HStem: 469 123<243 910> 698 119<457.661 710.119> 1104 115<502.204 871> 1405 115<470.083 853.909>
VStem: 277 152<847.09 1040.79> 896 144<1219.71 1363.78>
Fore
243 592 m 1
 931 592 l 1
 910 469 l 1
 222 469 l 1
 243 592 l 1
731 1520 m 0
 959 1520 1040 1418 1040 1265 c 0
 1040 1234 1036 1201 1030 1165 c 2
 951 717 l 1
 802 717 l 1
 822 829 l 1
 795 798 700 698 518 698 c 0
 367 698 277 774 277 895 c 0
 277 1024 353 1219 709 1219 c 2
 891 1219 l 1
 893 1228 896 1246 896 1264 c 0
 896 1349 841 1405 690 1405 c 0
 579 1405 476 1366 412 1337 c 1
 434 1464 l 1
 504 1489 612 1520 731 1520 c 0
429 935 m 0
 429 854 497 817 586 817 c 0
 735 817 840 933 866 1075 c 2
 871 1104 l 1
 744 1104 l 2
 568 1104 429 1077 429 935 c 0
EndSplineSet
EndChar
StartChar: guillemotleft
Encoding: 171 171 110
Width: 1253
Flags: W
HStem: 141 918<1086 1248>
VStem: 257 991<559 1059>
Fore
1248 1059 m 1
 1214 868 l 1
 866 600 l 1
 1120 332 l 1
 1086 141 l 1
 691 559 l 1
 705 641 l 1
 1248 1059 l 1
814 1059 m 1
 780 868 l 1
 432 600 l 1
 686 332 l 1
 652 141 l 1
 257 559 l 1
 271 641 l 1
 814 1059 l 1
EndSplineSet
EndChar
StartChar: logicalnot
Encoding: 172 172 111
Width: 1716
Flags: W
HStem: 692 170<369 1453>
Fore
369 862 m 1
 1651 862 l 1
 1550 287 l 1
 1382 287 l 1
 1453 692 l 1
 339 692 l 1
 369 862 l 1
EndSplineSet
EndChar
StartChar: uni00AD
Encoding: 173 173 112
Width: 739
Flags: W
HStem: 479 164<213 723>
VStem: 184 568<479 643>
Fore
213 643 m 1
 752 643 l 1
 723 479 l 1
 184 479 l 1
 213 643 l 1
EndSplineSet
EndChar
StartChar: registered
Encoding: 174 174 113
Width: 2048
Flags: W
HStem: 0 102<819.547 1276.87> 694 101<1014 1162.62> 1071 103<1063 1341.91> 1382 103<1029.81 1493.02>
VStem: 401 103<420.397 857.227> 1362 162<887.393 1048.58> 1805 104<623.433 1076.88>
Fore
1805 859 m 0
 1805 1128 1611 1382 1268 1382 c 0
 859 1382 504 1010 504 629 c 0
 504 371 693 102 1042 102 c 0
 1438 102 1805 455 1805 859 c 0
1024 0 m 256
 618 0 401 312 401 603 c 0
 401 1069 821 1485 1286 1485 c 256
 1679 1485 1909 1187 1909 879 c 0
 1909 414 1485 0 1024 0 c 256
1362 969 m 0
 1362 1030 1331 1071 1186 1071 c 2
 1063 1071 l 1
 1014 795 l 1
 1137 795 l 2
 1246 795 1362 814 1362 969 c 0
1524 983 m 0
 1524 929 1505 758 1280 719 c 1
 1309 708 1345 658 1389 561 c 2
 1487 338 l 1
 1315 338 l 1
 1222 547 l 2
 1174 656 1144 694 1062 694 c 2
 996 694 l 1
 934 338 l 1
 779 338 l 1
 926 1174 l 1
 1211 1174 l 2
 1442 1174 1524 1098 1524 983 c 0
EndSplineSet
EndChar
StartChar: macron
Encoding: 175 175 114
Width: 1024
Flags: W
HStem: 1378 148<482 1054>
VStem: 456 624<1378 1526>
Fore
482 1526 m 1
 1080 1526 l 1
 1054 1378 l 1
 456 1378 l 1
 482 1526 l 1
EndSplineSet
EndChar
StartChar: degree
Encoding: 176 176 115
Width: 1024
Flags: W
HStem: 885 127<574.5 820.549> 1391 129<628.078 870.384>
VStem: 401 130<1054.59 1296.31> 917 129<1108.79 1344.05>
Fore
917 1236 m 0
 917 1314 860 1391 757 1391 c 0
 631 1391 531 1281 531 1164 c 0
 531 1088 584 1012 690 1012 c 0
 813 1012 917 1117 917 1236 c 0
401 1142 m 0
 401 1329 566 1520 780 1520 c 0
 940 1520 1046 1403 1046 1259 c 0
 1046 1062 872 885 666 885 c 0
 506 885 401 988 401 1142 c 0
EndSplineSet
EndChar
StartChar: plusminus
Encoding: 177 177 116
Width: 1716
Flags: W
HStem: 0 170<247 1499> 727 170<375 902 1100 1627>
Fore
1168 1284 m 1
 1100 897 l 1
 1657 897 l 1
 1627 727 l 1
 1070 727 l 1
 1002 340 l 1
 834 340 l 1
 902 727 l 1
 345 727 l 1
 375 897 l 1
 932 897 l 1
 1000 1284 l 1
 1168 1284 l 1
247 170 m 1
 1529 170 l 1
 1499 0 l 1
 217 0 l 1
 247 170 l 1
EndSplineSet
EndChar
StartChar: uni00B2
Encoding: 178 178 117
Width: 821
Flags: W
HStem: 668 114<406 810> 1411 109<398.417 728.174>
VStem: 761 155<1192.16 1376.46>
Fore
635 1520 m 0
 858 1520 916 1402 916 1323 c 0
 916 1231 859 1120 506 857 c 2
 406 782 l 1
 830 782 l 1
 810 668 l 1
 212 668 l 1
 231 778 l 1
 344 865 l 2
 720 1154 761 1232 761 1291 c 0
 761 1347 717 1411 595 1411 c 0
 498 1411 385 1363 336 1341 c 1
 358 1464 l 1
 422 1486 533 1520 635 1520 c 0
EndSplineSet
EndChar
StartChar: uni00B3
Encoding: 179 179 118
Width: 821
Flags: W
HStem: 653 109<377.101 649.494> 1061 108<466 696.915> 1411 109<541.6 753.708>
VStem: 729 153<833.28 1010.67> 775 154<1253.46 1383.9>
Fore
929 1339 m 0xe8
 929 1300 916 1161 721 1120 c 1
 871 1090 882 990 882 951 c 0
 882 832 792 653 470 653 c 0
 412.866 652.813 343 658 220 694 c 1
 242 815 l 1
 302 780 377 762 470 762 c 0
 678 762 729 869 729 940 c 0xf0
 729 1013 673 1061 533 1061 c 2
 447 1061 l 1
 466 1169 l 1
 560 1169 l 2
 736 1169 775 1255 775 1312 c 0
 775 1352 752 1411 599 1411 c 0
 553 1411 493 1403 369 1370 c 1
 389 1485 l 1
 518 1514 599 1520 651 1520 c 0
 877 1520 929 1411 929 1339 c 0xe8
EndSplineSet
EndChar
StartChar: acute
Encoding: 180 180 119
Width: 1024
Flags: W
HStem: 1262 376<747 940>
VStem: 594 545<1262 1638>
Fore
940 1638 m 1
 1139 1638 l 1
 747 1262 l 1
 594 1262 l 1
 940 1638 l 1
EndSplineSet
EndChar
StartChar: mu
Encoding: 181 181 120
Width: 1303
Flags: W
HStem: -426 21G<99 286.508> -29 160<492.955 825.084> 1100 20G<367.481 555 1121.48 1309>
Fore
640 -29 m 0
 502 -29 418 25 380 127 c 1
 283 -426 l 1
 99 -426 l 1
 371 1120 l 1
 555 1120 l 1
 433 424 l 2
 428 393 425 365 425 339 c 0
 425 214 489 131 654 131 c 0
 868 131 975 262 1010 467 c 2
 1125 1120 l 1
 1309 1120 l 1
 1157 258 l 2
 1154 240 1153 225 1153 211 c 0
 1153 166 1168 141 1209 141 c 0
 1224 141 1254 153 1282 164 c 1
 1256 16 l 1
 1220 -2 1161 -29 1099 -29 c 0
 989 -29 962 47 961 129 c 1
 874 22 768 -29 640 -29 c 0
EndSplineSet
EndChar
StartChar: paragraph
Encoding: 182 182 121
Width: 1303
Flags: W
HStem: 1370 123<992 1182>
VStem: 339 1005<983 1493>
Fore
339 983 m 0
 339 1231 526 1493 896 1493 c 2
 1344 1493 l 1
 1046 -197 l 1
 905 -197 l 1
 1182 1370 l 1
 992 1370 l 1
 715 -197 l 1
 573 -197 l 1
 722 649 l 1
 408 674 339 849 339 983 c 0
EndSplineSet
EndChar
StartChar: periodcentered
Encoding: 183 183 122
Width: 651
Flags: W
HStem: 584 254<367 533>
VStem: 322 256<584 838>
Fore
367 838 m 1
 578 838 l 1
 533 584 l 1
 322 584 l 1
 367 838 l 1
EndSplineSet
EndChar
StartChar: cedilla
Encoding: 184 184 123
Width: 1024
Flags: W
HStem: -395 123<316.023 510.881> -20 20G<477 628>
VStem: 535 135<-246.62 -127.274>
Fore
535 -161 m 0
 535 -129 523 -82 477 0 c 1
 596 0 l 1
 660 -90 670 -146 670 -182 c 0
 670 -255 629 -395 400 -395 c 0
 317 -395 259 -381 226 -371 c 1
 249 -240 l 1
 300 -268 354 -272 398 -272 c 0
 514 -272 535 -200 535 -161 c 0
EndSplineSet
EndChar
StartChar: uni0E01
Encoding: 3585 3585 124
Width: 1340
Flags: W
HStem: 1072 160<612.256 1019.58>
VStem: 1104 186<776.766 992.398>
Back
104.5 1046.5 m 13
 105 843.5 l 5
 342.5 751 l 5
 288.061 723.613 245.584 681.353 215.068 624.22 c 132
 184.527 567.041 169.269 510.968 169.294 456 c 6
 169.5 0 l 5
 354.5 0 l 5
 354.294 456 l 6
 354.27 508.919 368.377 554.728 396.614 593.427 c 132
 424.827 632.084 463.456 660.609 512.5 679 c 5
 512 826.5 l 5
 260.608 940.811 l 5
 309.117 977.608 365.992 1007.49 431.233 1030.45 c 132
 496.474 1053.41 563.563 1064.26 632.5 1063 c 4
 733.784 1061.2 809.272 1033.41 858.963 979.636 c 132
 908.654 925.863 933.5 842.985 933.5 731 c 6
 933.5 0 l 5
 1116.5 0 l 5
 1116.5 747 l 6
 1116.5 905.919 1071.32 1025.04 980.974 1104.37 c 132
 890.623 1183.69 774.465 1223.23 632.5 1223 c 4
 533.315 1222.84 439.217 1208.91 350.205 1181.2 c 132
 261.193 1153.49 179.291 1108.59 104.5 1046.5 c 13
EndSplineSet
Fore
1290 874 m 0
 1290 1160.4 1058.08 1232 879 1232 c 0
 599 1232 419 1127 320 1056 c 9
 286 862 l 1
 506 760 l 1
 379 701 298 564 281 465 c 2
 200 0 l 1
 384 0 l 1
 466 465 l 2
 485 574 562 652 663 688 c 1
 689 836 l 1
 459 950 l 1
 549 1011 692 1072 840 1072 c 0
 1038 1072 1104 979 1104 838 c 0
 1104 808 1100 776 1094 740 c 2
 964 0 l 1
 1146 0 l 1
 1279 756 l 2
 1286 798 1290 837 1290 874 c 0
EndSplineSet
EndChar
StartChar: uni0E02
Encoding: 3586 3586 125
Width: 1220
Flags: W
HStem: 0 154<557 867.508> 761 106<353.595 491.207> 1085 135<565 657.137>
VStem: 236 115<870.768 999.309> 506 115<881.013 1013.09> 690 184<900.286 1053.73>
Back
1315 927 m 132
 1315 953.667 1324.33 976.333 1343 995 c 132
 1361.67 1013.67 1384.33 1023 1411 1023 c 132
 1437.67 1023 1460.33 1013.67 1479 995 c 132
 1497.67 976.333 1507 953.667 1507 927 c 132
 1507 900.333 1497.67 877.667 1479 859 c 132
 1460.33 840.333 1437.67 831 1411 831 c 132
 1384.33 831 1361.67 840.333 1343 859 c 132
 1324.33 877.667 1315 900.333 1315 927 c 132
1303.5 1118.5 m 132
 1243.83 1062.83 1215.67 999 1219 927 c 4
 1221.67 871.667 1241.17 825.833 1277.5 789.5 c 132
 1313.83 753.167 1358.33 735 1411 735 c 132
 1463.67 735 1508.83 753.833 1546.5 791.5 c 132
 1584.17 829.167 1603 874.333 1603 927 c 260
 1603 987 1584.33 1032 1547 1062 c 5
 1595 1058.67 1631.5 1039.17 1656.5 1003.5 c 132
 1681.39 967.833 1693.55 934.333 1693 903 c 4
 1691.91 856.779 1684.07 820.752 1669.46 794.919 c 132
 1654.86 769.086 1631.47 735.808 1599.28 695.085 c 132
 1567.09 654.362 1542.33 610 1525 562 c 132
 1507.67 514 1499 468.333 1499 425 c 6
 1499 0 l 5
 1917 0 l 6
 2014.33 0 2084 19.5 2126 58.5 c 132
 2168.05 97.564 2189.05 142.731 2189 194 c 6
 2188 1202 l 5
 1998 1202 l 5
 1998 261 l 6
 1998 227.667 1989.83 202.5 1973.5 185.5 c 132
 1957.17 168.5 1932.33 160 1899 160 c 6
 1691 160 l 5
 1691 425 l 6
 1691 464.403 1696.51 500.743 1707.54 534.021 c 132
 1718.57 567.299 1741.07 605.615 1775.04 648.97 c 132
 1809.01 692.323 1832.17 731 1844.5 765 c 132
 1856.83 799 1863 839 1863 885 c 4
 1861.67 981.667 1827 1059 1759 1117 c 132
 1691 1175 1613 1203.67 1525 1203 c 132
 1437 1202.33 1363.17 1174.17 1303.5 1118.5 c 132
564 875 m 0
 564 926.333 549.167 970.333 519.5 1007 c 128
 489.833 1043.67 446.333 1064 389 1068 c 1
 412.333 1056 430.833 1037.33 444.5 1012 c 128
 458.167 986.667 465 956.333 465 921 c 0
 465 874.333 447.5 832.833 412.5 796.5 c 128
 377.5 760.167 334 742.667 282 744 c 0
 225.333 745.333 179 763.5 143 798.5 c 128
 107 833.5 88.6667 877.667 88 931 c 0
 86.6667 1005.67 115.333 1069.67 174 1123 c 128
 232.667 1176.33 306.667 1203 396 1203 c 128
 485.333 1203 563.665 1174.12 630.995 1116.36 c 128
 698.325 1058.61 732.66 981.487 734 885 c 0
 734.667 837 729.5 796.167 718.5 762.5 c 128
 707.5 728.833 683.167 689 645.5 643 c 128
 607.833 597 583.5 557.667 572.5 525 c 128
 561.5 492.333 556 459 556 425 c 2
 556 154 l 9
 761 154 l 2
 794.333 154 819.167 162.5 835.5 179.5 c 128
 851.833 196.5 860 221.667 860 255 c 2
 860 1202 l 1
 1039 1202 l 1
 1040 194 l 2
 1040.05 142.649 1019.05 97.482 977 58.5 c 128
 935 19.5 865.333 0 768 0 c 2
 367 0 l 1
 366 425 l 18
 365.841 492.331 374.135 545.331 390.881 584 c 128
 407.627 622.667 435.381 664.314 474.143 708.943 c 128
 512.905 753.571 537.465 785.898 547.823 805.925 c 128
 558.182 825.952 563.574 848.977 564 875 c 0
281.5 999.5 m 152
 260.5 999.833 242.167 993 226.5 979 c 128
 210.833 965 202.667 947.5 202 926.5 c 128
 201.333 905.5 208.333 887.667 223 873 c 128
 237.667 858.333 255.5 850.833 276.5 850.5 c 128
 297.5 850.167 315.5 857 330.5 871 c 128
 345.5 885 353.333 902.333 354 923 c 128
 354.667 943.667 348 961.5 334 976.5 c 128
 320 991.5 302.5 999.167 281.5 999.5 c 152
EndSplineSet
Fore
621 990 m 0
 621 844 485 761 405 761 c 0
 309 761 236 819 236 913 c 0
 236 1062 389 1220 591 1220 c 0
 779 1220 874 1097 874 960 c 0
 874 922 870 847 772 716 c 2
 704 623 l 2
 675 584 618 495 601 402 c 2
 557 154 l 1
 772 154 l 2
 840 154 879 190 891 258 c 2
 1058 1202 l 25
 1240 1202 l 9
 1063 196 l 2
 1040 65 932 0 740 0 c 2
 341 0 l 1
 421 452 l 2
 435 539 481 611 520 658 c 2
 588 735 l 2
 679 836 690 905 690 947 c 0
 690 1025 641 1082 565 1085 c 1
 596 1062 621 1044 621 990 c 0
506 957 m 0
 506 984 486 1016 442 1016 c 0
 394 1016 351 971 351 928 c 0
 351 902 370 867 418 867 c 0
 470 867 506 917 506 957 c 0
EndSplineSet
EndChar
StartChar: uni0E03
Encoding: 3587 3587 126
Width: 1310
Flags: W
HStem: 0 154<661 970.508> 638 107<356.629 494.481> 1201 20<453 563.642 726.742 829 1157.46 1343>
VStem: 224 130<763.725 876.38> 509 112<759.525 891.23> 807 178<852.274 1079>
Fore
509 833 m 0
 509 863 487 892 449 894 c 16
 393 894 354 847 354 805 c 0
 354 786 365 745 421 745 c 0
 470 745 509 792 509 833 c 0
769 1221 m 1
 889 1199 985 1104 985 956 c 0
 985 911 982 833 882 711 c 2
 810 623 l 2
 767 568 720 490 706 408 c 2
 661 154 l 1
 875 154 l 2
 943 154 982 190 994 258 c 2
 1161 1202 l 1
 1343 1202 l 1
 1166 196 l 18
 1143 65 1035 0 843 0 c 2
 444 0 l 1
 525 458 l 2
 540 544 584 613 628 659 c 2
 697 730 l 2
 771 805 807 875 807 971 c 0
 807 1026 789 1064 753 1086 c 1
 611 1026 l 1
 492 1088 l 1
 440 1065 408 1032 395 987 c 1
 471 1001 l 1
 592 1000 621 906 621 850 c 0
 621 739 508 638 398 638 c 0
 341 638 224 667 224 824 c 0
 224 1040 374 1185 532 1226 c 1
 638 1159 l 1
 769 1221 l 1
EndSplineSet
EndChar
StartChar: uni0E04
Encoding: 3588 3588 127
Width: 1340
Flags: HW
HStem: 0 21G<205 405.332 973 1160.51> 461 132<686.703 819.917> 737 132<696.758 829.307> 1072 160<643.157 1025.63>
VStem: 832 133<605.71 734.711> 1114 184<774.625 988.205>
Back
378 0 m 1
 195 0 l 1
 118 757.885 l 2
 114.361 793.704 119.893 837.177 134.597 888.306 c 128
 149.301 939.435 170.495 984.893 198.178 1024.68 c 128
 225.861 1064.47 259.635 1099.06 299.502 1128.46 c 128
 339.369 1157.85 388.133 1181.11 445.794 1198.22 c 128
 503.455 1215.33 566.857 1223.89 636 1223.89 c 0
 702.043 1223.89 762.777 1215.34 818.203 1198.25 c 128
 873.629 1181.15 920.64 1157.9 959.237 1128.5 c 128
 997.832 1099.09 1030.61 1064.57 1057.56 1024.92 c 128
 1084.51 985.266 1104.53 942.348 1117.6 896.166 c 128
 1130.67 849.984 1137.14 778.262 1137 681 c 2
 1136 0 l 1
 953 0 l 1
 953 742.886 l 2
 953 790.849 947.445 833.726 936.336 871.518 c 128
 925.227 909.31 907.743 942.916 883.882 972.335 c 128
 860.022 1001.75 827.528 1024.37 786.399 1040.18 c 128
 745.27 1055.99 696.47 1063.89 640 1063.89 c 0
 581.045 1063.89 528.983 1055.49 483.814 1038.7 c 128
 438.645 1021.91 402.527 998.627 375.46 968.862 c 128
 348.393 939.099 328.636 904.599 316.191 865.363 c 128
 303.746 826.126 299.015 783.301 302 736.886 c 2
 322 425.886 l 1
 328.235 443.701 335.915 472.139 345.039 511.202 c 128
 354.162 550.264 364.249 586.669 375.3 620.417 c 128
 386.351 654.166 399.917 683.322 416 707.886 c 0
 437.563 740.819 457.847 767.295 476.853 787.314 c 128
 495.858 807.333 519.962 824.225 549.164 837.99 c 128
 578.366 851.755 611.332 858.868 648.062 859.329 c 0
 699.763 859.978 743.276 842.361 778.6 806.479 c 128
 813.925 770.597 832.225 727.399 833.5 676.886 c 0
 834.801 625.394 816.578 582.521 778.832 548.267 c 0
 742.602 515.388 700.325 498.261 652 496.886 c 0
 623.076 496.063 598.964 498.883 579.663 505.346 c 128
 560.363 511.809 546.042 519.594 536.699 528.7 c 128
 527.356 537.805 516.79 551.201 505 568.886 c 1
 442.333 437.629 400 248 378 0 c 1
649 600.886 m 24
 669.922 600.886 687.952 607.934 703.089 622.031 c 128
 718.226 636.128 725.863 653.413 726 673.886 c 0
 726.14 694.812 718.756 712.71 703.848 727.581 c 128
 688.94 742.451 670.991 749.886 650 749.886 c 128
 629.074 749.886 611.211 742.467 596.411 727.629 c 128
 581.611 712.791 574.141 694.877 574 673.886 c 0
 573.865 653.631 581.188 636.4 595.971 622.194 c 128
 610.754 607.989 628.43 600.886 649 600.886 c 24
EndSplineSet
Fore
965 703 m 0
 965 576 850 461 722 461 c 0
 666 461 622 481 589 521 c 9
 398 0 l 17
 205 0 l 1
 269 686 l 2
 278 785 291 984 520 1136 c 0
 636 1213 776 1232 873 1232 c 0
 1206 1232 1298 1016 1298 871 c 0
 1298 826 1292 766 1278 689 c 2
 1157 0 l 1
 973 0 l 1
 1105 751 l 2
 1111 783 1114 813 1114 840 c 0
 1114 979 1041 1072 849 1072 c 0
 532 1072 472 850 453 745 c 2
 353 168 l 1
 391 296 524 711 619 800 c 0
 668 846 727 869 794 869 c 0
 903 869 965 787 965 703 c 0
771 737 m 0
 724 737 685 695 685 651 c 0
 685 619 710 593 746 593 c 0
 793 593 832 635 832 679 c 0
 832 711 807 737 771 737 c 0
EndSplineSet
EndChar
StartChar: uni0E05
Encoding: 3589 3589 128
Width: 1340
Flags: W
HStem: 1 21G<225 435.5 981 1167.52> 451 132<695.382 827.575> 727 132<704.964 837.235>
VStem: 839 135<593.977 724.09> 1130 184<815.356 1033.18>
Fore
693 642 m 0
 693 612 715 583 754 583 c 0
 807 583 839 629 839 669 c 0
 839 700 820 727 779 727 c 0
 731 727 693 683 693 642 c 0
974 692 m 0
 974 562 856 451 731 451 c 256
 675 451 630 471 597 511 c 1
 526 394 463 224 408 1 c 1
 225 1 l 1
 287 801 l 2
 303 1024 498 1186 692 1244 c 1
 857 1093 l 1
 1066 1244 l 1
 1178 1205 1314 1104 1314 895 c 0
 1314 865 1311 834 1305 802 c 2
 1164 1 l 1
 981 1 l 1
 1120 786 l 2
 1126 822 1130 855 1130 885 c 0
 1130 979 1098 1041 1037 1073 c 1
 869 959 l 1
 802 959 l 1
 670 1073 l 1
 618 1048 487 966 468 780 c 2
 433 448 l 1
 442 505 581 859 802 859 c 0
 914 859 974 774 974 692 c 0
EndSplineSet
EndChar
StartChar: uni0E06
Encoding: 3590 3590 129
Width: 1360
Flags: W
HStem: -10 142<318.623 446.696> 276 143<327.29 459> 638 107<337.602 472.624> 894 107<396.481 485.775> 1206 20<408 543.642 706.742 818.5 1196.44 4840>
VStem: 179 136<135.452 263.056> 203 132<747.142 877.411> 489 113<757.697 891.294> 788 178<858.085 1078>
Fore
429 419 m 0xfd80
 449 419 471 420 497 414 c 9
 505 458 l 2
 520 544 564 613 608 659 c 2
 677 730 l 2
 757 812 788 897 788 964 c 0
 788 1021 766 1066 733 1086 c 1
 591 1026 l 1
 472 1088 l 1
 420 1065 388 1032 375 987 c 1
 375 987 446 1001 451 1001 c 0
 546 1001 602 934 602 855 c 0
 602 749 496 638 378 638 c 0
 322 638 203 667 203 832 c 0xfb80
 203 980 304 1172 512 1226 c 1
 618 1159 l 1
 749 1221 l 1
 888 1195 966 1080 966 956 c 0
 966 907 957 827 862 711 c 2
 792 626 l 2
 762 587 702 500 686 408 c 10
 681 379 l 17
 810 341 925 286 1024 215 c 1
 1200 1204 l 1
 1382 1203 l 1
 1170 0 l 1
 980 0 l 1
 887 99 778 173 653 224 c 1
 637 127 551 -10 350 -10 c 0
 241 -10 179 69 179 163 c 0
 179 290 296 419 429 419 c 0xfd80
489 834 m 0
 489 865 463 893 429 894 c 16
 369 894 335 845 335 804 c 0
 335 772 354 745 397 745 c 0
 400 745 l 0
 450 745 489 789 489 834 c 0
401 276 m 0
 358 276 315 239 315 191 c 0xfd80
 315 159 338 132 375 132 c 0
 418 132 461 169 461 217 c 0
 461 249 438 276 401 276 c 0
EndSplineSet
EndChar
StartChar: uni0E07
Encoding: 3591 3591 130
Width: 1050
Flags: W
HStem: 0 21G<558 833.531> 804 132<696.933 784.717> 1080 132<706.498 835.693>
VStem: 561 133<938.384 1067.64> 840 165<959.461 1076.9>
Back
586 922.902 m 24
 606.922 922.902 624.952 929.95 640.089 944.047 c 128
 655.226 958.143 662.863 975.427 663 995.9 c 0
 663.14 1016.83 655.756 1034.73 640.849 1049.6 c 128
 625.941 1064.47 607.991 1071.9 587 1071.9 c 128
 566.073 1071.9 548.21 1064.48 533.411 1049.64 c 128
 518.611 1034.81 511.141 1016.89 511 995.9 c 0
 510.864 975.647 518.188 958.417 532.971 944.211 c 128
 547.754 930.005 565.431 922.902 586 922.902 c 24
643.821 800.898 m 9
 644 300 l 1
 533.615 462.551 369.225 616.185 150.83 760.902 c 1
 91.8301 640.902 l 1
 161.415 591.613 249.587 500.398 356.346 367.257 c 128
 463.105 234.117 548.989 111.698 614 0 c 1
 830 0 l 1
 829.83 952.902 l 18
 829.816 1031.37 807.581 1092.59 763.126 1136.57 c 128
 718.671 1180.55 666.629 1202.66 607 1202.9 c 0
 539.959 1203.17 484.759 1184.44 441.401 1146.7 c 128
 398.044 1108.96 376.91 1056.03 378 987.9 c 0
 378.944 928.91 400.033 881.907 441.267 846.892 c 128
 482.501 811.877 529.412 794.214 582 793.902 c 0
 608.445 793.745 629.052 796.077 643.821 800.898 c 9
EndSplineSet
Fore
694 995 m 0
 694 965 716 936 755 936 c 0
 808 936 840 982 840 1022 c 0
 840 1053 821 1080 780 1080 c 0
 732 1080 694 1036 694 995 c 0
804 1212 m 0
 965 1212 1005 1096 1005 1014 c 0
 1005 997 1003 981 1000 963 c 10
 830 0 l 1
 604 0 l 1
 512 216 387 478 205 641 c 1
 285 761 l 1
 446 637 600 482 697 300 c 1
 786 807 l 17
 785 805 767 804 732 804 c 0
 623 804 561 886 561 970 c 0
 561 1097 676 1212 804 1212 c 0
EndSplineSet
EndChar
StartChar: uni0E08
Encoding: 3592 3592 131
Width: 1140
Flags: W
HStem: 0 21G<680 872.189> 449 126<432.55 570.343> 724 125<442.861 578.737> 1076 156<503.236 839.968>
VStem: 298 131<578.551 707.971> 689 120<230.945 513.35> 933 188<819.683 994.74>
Back
946 723 m 10
 946 0 l 1
 760 0 l 1
 733.333 128 702.43 240.5 667.289 337.5 c 128
 632.148 434.5 596.219 497.333 559.5 526 c 1
 551.876 509.725 535.543 492.841 510.502 475.348 c 128
 485.461 457.855 448.96 449.093 401 449.06 c 8
 341.135 449.019 292.545 467.128 255.23 503.388 c 128
 217.915 539.648 198.505 585.872 197 642.06 c 0
 195.275 706.452 215.318 757.164 257.129 794.196 c 128
 298.94 831.229 353.23 849.517 420 849.06 c 0
 469.687 849.043 512.608 836.528 548.765 811.517 c 128
 584.922 786.506 614.345 759.895 637.036 731.685 c 128
 659.726 703.475 684.061 665.912 710.041 618.996 c 128
 736.021 572.081 753.341 529.749 762 492 c 1
 762 810 l 2
 762 894.667 734.167 960.167 678.5 1006.5 c 128
 622.833 1052.83 544.667 1076 444 1076 c 0
 380 1076 317.667 1068.33 257 1053 c 128
 196.333 1037.67 138 1014.67 82 984 c 1
 82 1154 l 1
 149.333 1180 214.667 1199.5 278 1212.5 c 128
 341.333 1225.5 403 1232 463 1232 c 0
 625 1232 746 1190 826 1106 c 128
 906 1022 946 894.333 946 723 c 10
401 575.06 m 24
 421.922 575.06 439.952 582.108 455.089 596.205 c 128
 470.226 610.302 477.863 627.587 478 648.06 c 0
 478.14 668.986 470.756 686.884 455.848 701.755 c 128
 440.94 716.625 422.991 724.06 402 724.06 c 128
 381.074 724.06 363.211 716.641 348.411 701.803 c 128
 333.611 686.965 326.141 669.051 326 648.06 c 0
 325.865 627.804 333.188 610.573 347.971 596.368 c 128
 362.754 582.163 380.43 575.06 401 575.06 c 24
EndSplineSet
Fore
809 381 m 0
 809 363 809 345 808 326 c 1
 925 810 l 2
 930 833 933 854 933 875 c 0
 933 957 877 1076 655 1076 c 0
 540 1076 413 1052 276 984 c 1
 305 1154 l 1
 495 1222 625 1232 705 1232 c 0
 1026 1232 1121 1032 1121 887 c 0
 1121 845 1113 800 1099 753 c 10
 866 0 l 1
 680 0 l 1
 686 71 689 135 689 193 c 0
 689 326 672 431 642 526 c 1
 633 511 585 449 470 449 c 8
 332 449 298 547 298 607 c 0
 298 752 412 849 556 849 c 0
 706 849 809 759 809 381 c 0
429 636 m 0
 429 602 455 575 492 575 c 24
 539 575 583 612 583 663 c 0
 583 689 565 724 520 724 c 0
 470 724 429 679 429 636 c 0
EndSplineSet
EndChar
StartChar: uni0E09
Encoding: 3593 3593 132
Width: 1300
Flags: W
HStem: 0 132<968.511 1100.53> 424 132<327.693 415.599> 700 132<337.663 464.613> 1076 156<591.972 958.746>
VStem: 192 133<558.289 687.29> 472 164<580.95 696.544> 1046 178<796.45 994.711> 1112 134<144.466 273.666>
Fore
436 832 m 2xfd
 596 832 636 715 636 634 c 0
 636 617 634 601 631 583 c 2
 564 207 l 1
 690 308 824 369 967 391 c 9
 1041 810 l 2
 1044 829 1046 848 1046 865 c 0
 1046 991 966 1076 757 1076 c 0
 696 1076 556 1075 348 964 c 1
 378 1134 l 1
 559 1212 668 1232 806 1232 c 0
 1120 1232 1224 1088 1224 872 c 0xfe
 1224 827 1219 777 1209 723 c 10
 1150 388 l 17
 1205 370 1246 312 1246 241 c 0
 1246 115 1131 0 1003 0 c 0
 894 0 832 82 832 166 c 0
 832 178 833 191 835 204 c 1
 702 155 598 87 524 0 c 1
 342 0 l 1
 417 427 l 1
 416 425 398 424 363 424 c 0
 254 424 192 506 192 590 c 0
 192 717 307 832 435 832 c 2
 436 832 l 2xfd
1112 217 m 0xfd
 1112 249 1089 276 1052 276 c 0
 999 276 967 230 967 189 c 0
 967 159 985 132 1026 132 c 0
 1069 132 1112 169 1112 217 c 0xfd
411 700 m 0
 364 700 325 658 325 614 c 0
 325 582 350 556 386 556 c 0
 433 556 472 598 472 642 c 0
 472 674 447 700 411 700 c 0
EndSplineSet
EndChar
StartChar: uni0E0A
Encoding: 3594 3594 133
Width: 1260
Flags: W
HStem: 0 154<567 877.508> 761 106<365.173 500.41> 1085 135<575 667.137>
VStem: 246 115<870.129 999.123> 516 115<879.95 1013.43> 700 184<857.139 1053.54> 987 183<712.076 886.14>
Fore
601 1220 m 0
 789 1220 884 1097 884 960 c 0
 884 922 880 847 782 716 c 2
 714 623 l 2
 671 565 625 484 611 402 c 2
 567 154 l 1
 782 154 l 2
 850 154 889 190 901 258 c 2
 981 709 l 2
 985 729 987 748 987 766 c 0
 987 826 968 870 928 898 c 1
 951 1024 l 1
 1147 1067 1196 1296 1213 1392 c 1
 1393 1392 l 1
 1369 1253 1329 1151 1274 1084 c 0
 1219 1018 1163 970 1106 940 c 1
 1147 906 1170 855 1170 786 c 0
 1170 762 1168 737 1163 709 c 2
 1073 196 l 2
 1050 65 942 0 750 0 c 2
 351 0 l 1
 431 452 l 2
 445 539 491 611 530 658 c 2
 598 735 l 2
 642 784 700 861 700 946 c 0
 700 1024 651 1082 575 1085 c 1
 624 1065 631 1024 631 991 c 0
 631 872 539 761 410 761 c 0
 300 761 246 836 246 913 c 0
 246 1061 399 1220 601 1220 c 0
516 957 m 0
 516 984 496 1016 452 1016 c 0
 404 1016 361 971 361 928 c 0
 361 902 380 867 428 867 c 0
 480 867 516 917 516 957 c 0
EndSplineSet
EndChar
StartChar: uni0E0B
Encoding: 3595 3595 134
Width: 1370
Flags: W
HStem: 0 154<671 989.508> 638 107<367.322 503.727> 894 107<427.233 514.722> 1206 20G<454 573.642 736.742 837.5>
VStem: 234 130<747.911 879.062> 519 112<759.109 891.24> 817 179<853.394 1079.33> 1095 185<701.689 872.378>
Fore
1216 930 m 1
 1263 891 1280 830 1280 770 c 0
 1280 748 1278 724 1273 699 c 2
 1185 196 l 2
 1162 65 1054 0 862 0 c 10
 454 0 l 17
 535 458 l 2
 550 544 594 613 638 659 c 2
 707 730 l 2
 781 805 817 875 817 971 c 0
 817 1026 799 1064 763 1086 c 1
 621 1026 l 1
 502 1088 l 1
 450 1065 418 1032 405 987 c 1
 481 1001 l 1
 602 1000 631 906 631 850 c 0
 631 739 518 638 408 638 c 0
 351 638 234 667 234 824 c 0
 234 1022 366 1180 542 1226 c 1
 648 1159 l 1
 779 1221 l 1
 896 1199 996 1104 996 958 c 0
 996 909 990 830 892 711 c 2
 820 623 l 2
 777 568 730 490 716 408 c 2
 671 154 l 1
 894 154 l 2
 962 154 1001 190 1013 258 c 2
 1091 699 l 2
 1094 714 1095 729 1095 743 c 0
 1095 797 1076 845 1038 888 c 1
 1060 1014 l 1
 1256 1057 1305 1286 1322 1382 c 1
 1502 1382 l 1
 1478 1243 1438 1141 1383 1074 c 0
 1328 1008 1272 960 1216 930 c 1
519 834 m 0
 519 865 493 893 459 894 c 24
 413 894 364 857 364 805 c 0
 364 772 389 745 427 745 c 0
 430 745 l 0
 479 745 519 788 519 834 c 0
EndSplineSet
EndChar
StartChar: uni0E0C
Encoding: 3596 3596 135
Width: 1800
Flags: W
HStem: -11 119<928.751 1042.97> -10 132<397.452 525.357> 261 133<445.741 534.361 925.182 1023> 1072 160<604.528 1007.09>
VStem: 226 166<133.517 241.457> 537 133<133.513 264.015> 770 138<114.452 246.003> 1062 130<123.728 246.385> 1094 187<776.29 990.35>
Fore
870 1232 m 0x7e80
 1106 1232 1281 1117 1281 874 c 0x7e80
 1281 837 1277 798 1270 756 c 2
 1205 383 l 1
 1307 362 1395 306 1468 216 c 1
 1643 1203 l 1
 1824 1203 l 1
 1612 0 l 17
 1431 0 l 1
 1360 138 1280 222 1191 251 c 1
 1192 243 1192 235 1192 227 c 0
 1192 107 1098 -11 941 -11 c 0xbf
 804 -11 770 76 770 144 c 0
 770 276 883 394 1012 394 c 2
 1023 394 l 1
 1084 740 l 2
 1091 777 1094 810 1094 841 c 0
 1094 980 1024 1072 831 1072 c 0
 678 1072 536 1009 449 950 c 1
 679 836 l 1
 652 688 l 1
 609 672 481 614 456 464 c 2
 445 395 l 1
 446 397 464 398 499 398 c 0
 608 398 670 316 670 232 c 0
 670 105 555 -10 427 -10 c 0
 235 -10 226 156 226 187 c 0
 226 204 228 221 231 239 c 2
 271 465 l 2
 288 564 368 701 497 760 c 1
 277 862 l 1
 311 1056 l 17
 410 1127 590 1232 870 1232 c 0x7e80
392 181 m 0
 392 149 416 122 453 122 c 0
 506 122 537 168 537 208 c 0
 537 239 519 266 478 266 c 0
 435 266 392 229 392 181 c 0
1062 202 m 0xbf
 1062 234 1036 261 999 261 c 24
 954 261 908 224 908 173 c 0
 908 113 979 108 984 108 c 0
 1004 108 1062 149 1062 202 c 0xbf
EndSplineSet
EndChar
StartChar: uni0E0D
Encoding: 3597 3597 136
Width: 1800
Flags: HW
HStem: -396 144<1009.59 1159> -138 88<1015.26 1130.84> -10 132<393.074 524.843> 0 156<1134 1461> 266 132<444.741 533.704> 1072 160<601.854 989.877>
VStem: 226 165<131.858 241.649> 537 132<134.367 263.678> 917 92<-250.835 -143.203> 1065 186<786.024 999.17> 1132 94<-245.788 -151.283>
Fore
1080 -138 m 0xcfa0
 1037 -138 1009 -175 1009 -205 c 0
 1009 -233 1033 -252 1061 -252 c 0
 1094 -252 1132 -224 1132 -186 c 0
 1132 -170 1123 -138 1080 -138 c 0xcfa0
1551 -235 m 1
 1470 -301 1309 -396 1159 -396 c 0
 1058 -397 987 -376 954 -333 c 0
 929 -300 917 -264 917 -225 c 0
 917 -114 1018 -50 1097 -50 c 0
 1180 -50 1226 -106 1226 -170 c 0
 1226 -222 1204 -271 1163 -296 c 1
 1167 -296 l 2
 1318 -296 1490 -144 1544 -86 c 1
 1551 -235 l 1
EndSplineSet
Refer: 256 63247 N 1 0 0 1 0 0 2
Substitution2: "Single Substitution lookup 9" uni0E0D.descless
Substitution2: "Single Substitution lookup 8" uni0E0D.descless
EndChar
StartChar: uni0E0E
Encoding: 3598 3598 137
Width: 1440
Flags: HW
HStem: -410 148<510.031 622.046> -116 139<530.383 689.585> -10 132<237.285 368.041> 266 132<246.227 378.389> 1072 160<708.132 1121.32>
VStem: 100 134<125.706 252.113> 348 160<-261.786 -141.088> 1202 188<776.615 992.634>
AnchorPoint: "BelowBase" 1164.72 -478 basechar 0
Fore
636 -116 m 0xdf
 577 -116 508 -154 508 -215 c 0
 508 -244 528 -262 555 -262 c 0
 584 -262 654 -253 704 -133 c 1
 682 -121 659 -116 636 -116 c 0xdf
348 -250 m 0
 348 -121 474 23 657 23 c 0xdf
 699 23 734 18 763 9 c 1
 796 99 l 1
 946 42 l 1
 908 -52 l 1
 947 -81 987 -125 1029 -186 c 1
 1192 740 l 2
 1198 775 1202 810 1202 842 c 0
 1202 974 1141 1072 940 1072 c 0
 797 1072 655 1016 558 950 c 1
 788 836 l 1
 762 688 l 1
 697 661 621 615 602 506 c 2
 555 239 l 2
 532 110 431 -10 271 -10 c 0xbf
 170 -10 100 62 100 158 c 0
 100 288 218 398 343 398 c 0
 377 398 395 397 395 394 c 1
 415 506 l 2
 428 579 476 722 606 760 c 1
 385 862 l 1
 420 1056 l 17
 474 1095 662 1232 979 1232 c 0
 1165 1232 1390 1157 1390 872 c 0
 1390 836 1386 798 1379 756 c 2
 1174 -410 l 1
 989 -410 l 1
 940 -315 891 -246 841 -201 c 1
 762 -362 643 -410 529 -410 c 0
 405 -410 348 -333 348 -250 c 0
295 122 m 0xbf
 342 122 380 163 380 208 c 0
 380 243 354 266 320 266 c 0
 273 266 234 224 234 181 c 0
 234 145 261 122 295 122 c 0xbf
EndSplineSet
EndChar
StartChar: uni0E0F
Encoding: 3599 3599 138
Width: 1440
Flags: HW
HStem: -410 128<434.356 556.086> -132 120<444.851 583.169> -10 132<236.396 366.983> 266 132<245.998 377.346> 1072 160<713.528 1116.51>
VStem: 100 134<124.415 253.638> 282 140<-281.386 -153.239> 1202 188<776.352 989.909>
AnchorPoint: "BelowBase" 1164.72 -478 basechar 0
Fore
234 181 m 0
 234 152 255 122 295 122 c 0
 348 122 379 168 379 208 c 0
 379 239 361 266 320 266 c 0
 272 266 234 222 234 181 c 0
282 -258 m 0
 282 -153 380 -12 559 -12 c 0
 596 -12 626 -19 649 -32 c 1
 677 49 l 1
 800 33 l 1
 753 -87 l 1
 791 -113 817 -159 831 -224 c 1
 910 -104 l 1
 984 -104 l 1
 1022 -229 l 1
 1192 740 l 2
 1199 777 1202 811 1202 842 c 0
 1202 980 1134 1072 940 1072 c 0
 787 1072 645 1009 558 950 c 1
 788 836 l 1
 762 688 l 1
 717 669 625 629 602 506 c 2
 555 239 l 2
 535 124 442 -10 271 -10 c 0
 162 -10 100 72 100 156 c 0
 100 283 215 398 343 398 c 0
 377 398 394 397 395 394 c 1
 415 506 l 2
 421 542 459 717 606 760 c 1
 385 862 l 1
 420 1056 l 17
 519 1127 699 1232 979 1232 c 0
 1217 1232 1390 1114 1390 874 c 0
 1390 837 1386 798 1379 756 c 10
 1174 -410 l 17
 968 -410 l 1
 921 -271 l 1
 832 -410 l 1
 738 -410 l 1
 739 -399 739 -387 739 -376 c 0
 739 -315 726 -263 701 -221 c 1
 655 -341 558 -410 462 -410 c 0
 353 -410 282 -362 282 -258 c 0
422 -238 m 0
 422 -273 453 -282 477 -282 c 0
 552 -282 590 -185 602 -155 c 1
 564 -132 537 -132 530 -132 c 0
 459 -132 422 -193 422 -238 c 0
EndSplineSet
EndChar
StartChar: uni0E10
Encoding: 3600 3600 139
Width: 1170
Flags: W
HStem: -542 100<191.635 322.072> -320 105<184.601 353.104> -290 69<682.147 745.179> -119 75<686.158 784.909> 0 21<683 876.039> 269 126<400.358 538.453> 544 125<414.446 549.055> 1062 160<611.035 1014.67>
VStem: 56 120<-439.594 -349.265> 269 130<397.162 529.685> 604 78<-211.436 -122.501> 786 136<-218.186 -119.382> 899 201<591.421 745>
Back
461 395 m 152
 481.667 395 500.833 402 518.5 416 c 128
 536.167 430 547 447.333 551 468 c 0
 554.333 488.667 549.833 506.5 537.5 521.5 c 128
 525.167 536.5 508.667 544 488 544 c 128
 467.333 544 448.167 536.667 430.5 522 c 128
 412.833 507.333 402.333 489.333 399 468 c 0
 395 448 399.167 430.833 411.5 416.5 c 128
 423.833 402.167 440.333 395 461 395 c 152
1083 608 m 10
 869 0 l 1
 683 0 l 1
 683.667 36 678.5 90 667.5 162 c 128
 656.5 234 640.333 296 619 348 c 1
 611 334 591.333 317.333 560 298 c 128
 528.667 278.667 489 269 441 269 c 8
 381.667 269 336.5 287.167 305.5 323.5 c 128
 274.5 359.833 263 406 271 462 c 0
 281 526.667 310.5 577.667 359.5 615 c 128
 408.5 652.333 465.667 670.333 531 669 c 0
 609.667 667.667 672.5 630.333 719.5 557 c 128
 766.5 483.667 791.333 393.333 794 286 c 1
 890 566 l 2
 919.333 652 879 704 769 722 c 10
 275 802 l 17
 318 1046 l 17
 404.667 1108 494.833 1152.83 588.5 1180.5 c 128
 682.167 1208.17 778.333 1222 877 1222 c 0
 945 1222 1006.67 1212.5 1062 1193.5 c 128
 1117.33 1174.5 1163 1147 1199 1111 c 128
 1235 1075 1259.67 1037.67 1273 999 c 9
 1101 887 l 17
 1099.67 915 1087.33 944.333 1064 975 c 128
 1040.67 1005.67 1010.83 1027.67 974.5 1041 c 128
 938.167 1054.33 896.333 1061.33 849 1062 c 0
 781 1063.33 712.167 1052.5 642.5 1029.5 c 128
 572.833 1006.5 511 976.667 457 940 c 9
 867 878 l 18
 1064.33 848 1136.33 758 1083 608 c 10
727 -403 m 1
 748 -283 l 1
 739.333 -287.667 724 -290 702 -290 c 0
 671.333 -290 646.333 -279.167 627 -257.5 c 128
 607.667 -235.833 600.667 -207.333 606 -172 c 0
 610 -140 626.833 -110.5 656.5 -83.5 c 128
 686.167 -56.5 724 -43.3333 770 -44 c 0
 826.667 -44.6667 867.833 -64.3333 893.5 -103 c 128
 919.167 -141.667 927.333 -186.333 918 -237 c 2
 865 -540 l 1
 685 -540 l 1
 665 -501.333 643.333 -471.667 620 -451 c 1
 590.667 -472.333 560.667 -501.333 530 -538 c 1
 464 -538 l 1
 466.667 -496.667 454.667 -457 428 -419 c 1
 403.333 -457 373 -487 337 -509 c 128
 301 -531 259.667 -542 213 -542 c 0
 165.667 -542 126 -528.333 94 -501 c 128
 62 -473.667 50 -436.667 58 -390 c 0
 66 -346.667 90.1667 -306.333 130.5 -269 c 128
 170.833 -231.667 222.667 -213.667 286 -215 c 0
 338.667 -215.667 378.667 -229 406 -255 c 1
 446 -184 l 1
 526 -252 l 1
 484 -318 l 1
 508 -340.667 522.667 -370 528 -406 c 1
 561.333 -370 600 -341.333 644 -320 c 1
 671.333 -338 699 -365.667 727 -403 c 1
745 -119 m 24
 730.333 -119 716.833 -124 704.5 -134 c 128
 692.167 -144 684.667 -156 682 -170 c 128
 679.333 -184 682.333 -196 691 -206 c 128
 699.667 -216 711 -221 725 -221 c 128
 739 -221 751.833 -215.833 763.5 -205.5 c 128
 775.167 -195.167 782.333 -183 785 -169 c 128
 787.667 -155 785 -143.167 777 -133.5 c 128
 769 -123.833 758.333 -119 745 -119 c 24
176 -394 m 0
 174 -408.667 179.333 -420.333 192 -429 c 128
 204.667 -437.667 218.333 -442 233 -442 c 0
 279 -441.333 319.333 -412.333 354 -355 c 1
 330 -332.333 301.667 -320.667 269 -320 c 0
 239 -319.333 216.333 -326.5 201 -341.5 c 128
 185.667 -356.5 177.333 -374 176 -394 c 0
EndSplineSet
Fore
279 -215 m 0xdff0
 355 -215 389 -239 406 -255 c 1
 446 -184 l 1
 526 -252 l 1
 484 -318 l 1
 508 -341 523 -370 528 -406 c 1
 561 -370 600 -341 644 -320 c 1xdff0
 671 -338 699 -366 727 -403 c 1
 748 -283 l 1
 739 -288 723 -290 702 -290 c 0xbff0
 648 -290 604 -253 604 -194 c 0
 604 -120 665 -44 767 -44 c 0
 891 -44 922 -138 922 -198 c 0
 922 -211 920 -224 918 -237 c 2
 865 -540 l 1
 685 -540 l 1
 665 -501 643 -472 620 -451 c 1
 591 -472 561 -501 530 -538 c 1
 464 -538 l 1
 464 -527 l 2
 464 -489 452 -454 428 -419 c 1
 385 -485 317 -542 213 -542 c 0
 131 -542 56 -496 56 -417 c 0
 56 -342 127 -215 279 -215 c 0xdff0
786 -159 m 0
 786 -135 768 -119 745 -119 c 16
 705 -119 682 -152 682 -181 c 0
 682 -202 695 -221 725 -221 c 0xbff0
 760 -221 786 -188 786 -159 c 0
265 -320 m 0xdfe0
 188 -320 176 -378 176 -400 c 0
 176 -426 206 -442 233 -442 c 0
 279 -441 319 -412 354 -355 c 1
 348 -349 318 -320 265 -320 c 0xdfe0
EndSplineSet
Refer: 241 63232 N 1 0 0 1 0 0 2
Substitution2: "Single Substitution lookup 9" uni0E10.descless
Substitution2: "Single Substitution lookup 8" uni0E10.descless
EndChar
StartChar: uni0E11
Encoding: 3601 3601 140
Width: 1560
Flags: W
HStem: 0 21G<424 699 1178 1364.53> 638 106<336.741 474.526> 894 108<397.788 484.678> 1060 162<1230.36 1427>
VStem: 204 130<747.711 876.166> 489 112<758.744 891.186> 787 178<852.274 1079>
Fore
1367 1222 m 0
 1487 1222 1542 1136 1542 1046 c 0
 1542 1030 1540 1014 1537 997 c 2
 1361 0 l 1
 1178 0 l 1
 1351 980 l 2
 1353 991 1354 1000 1354 1008 c 0
 1354 1042 1339 1059 1309 1060 c 0
 1275 1060 1254 1047 1223 1007 c 0
 1162 930 1090 781 1007 558 c 0
 924 336 791 150 607 0 c 9
 424 0 l 1
 505 458 l 2
 520 544 564 613 608 659 c 2
 677 730 l 2
 751 805 787 875 787 971 c 0
 787 1026 769 1064 733 1086 c 1
 591 1026 l 1
 472 1088 l 1
 420 1065 388 1032 375 987 c 1
 451 1002 l 1
 572 1001 601 906 601 850 c 0
 601 737 487 638 378 638 c 0
 321 638 204 667 204 824 c 0
 204 1040 354 1185 512 1226 c 1
 618 1159 l 1
 749 1221 l 1
 869 1199 965 1104 965 956 c 0
 965 911 962 833 862 711 c 2
 790 623 l 2
 700 508 688 420 686 408 c 2
 657 243 l 17
 963 521 950 931 1205 1168 c 0
 1244 1204 1298 1222 1367 1222 c 0
489 833 m 0
 489 863 467 894 426 894 c 0
 382 894 334 855 334 805 c 0
 334 773 359 744 398 744 c 0
 448 744 489 787 489 833 c 0
EndSplineSet
EndChar
StartChar: uni0E12
Encoding: 3602 3602 141
Width: 1790
Flags: W
HStem: -10 132<915.641 1048.08> 266 132<924.664 1023> 713 132<675.831 807.704>
VStem: 529 135<572.5 701.097> 779 135<124.144 253.75> 810 134<585.45 710.678> 1096 185<791.867 1012.12>
Fore
950 -10 m 0xfa
 1065 -10 1170 82 1190 194 c 1
 1279 169 1356 104 1420 0 c 1
 1598 0 l 1
 1810 1203 l 1
 1630 1203 l 1
 1456 216 l 1
 1386 288 1301 338 1200 367 c 1
 1272 779 l 2
 1278 811 1281 842 1281 872 c 0
 1281 1083 1144 1185 1033 1224 c 1
 823 1073 l 1
 659 1224 l 1
 471 1168 273 1014 254 778 c 2
 195 0 l 1
 378 0 l 1
 594 162 944 449 944 679 c 0xf6
 944 763 882 845 773 845 c 0
 648 845 529 734 529 601 c 0
 529 518 590 442 700 442 c 2
 702 442 l 1
 631 362 509 271 396 220 c 1
 434 757 l 2
 445 894 529 1001 637 1053 c 1
 768 939 l 1
 835 939 l 1
 1004 1053 l 1
 1063 1021 1096 957 1096 864 c 0
 1096 834 1093 800 1086 763 c 2
 1023 398 l 1
 893 398 779 282 779 156 c 0
 779 72 841 -10 950 -10 c 0xfa
1059 207 m 0
 1059 161 1019 122 974 122 c 0
 932 122 914 149 914 180 c 0xfa
 914 220 945 266 999 266 c 0
 1036 266 1059 239 1059 207 c 0
664 628 m 0
 664 674 705 713 750 713 c 0
 787 713 810 686 810 654 c 0xf6
 810 608 769 569 724 569 c 0
 687 569 664 596 664 628 c 0
EndSplineSet
EndChar
StartChar: uni0E13
Encoding: 3603 3603 142
Width: 1850
Flags: W
HStem: -10 132<397.452 525.357 1538 1669.07> 266 132<445.741 534.361> 1072 160<678.737 997.127>
VStem: 226 166<133.517 241.457> 537 133<133.513 264.015> 1065 187<781.922 1004.22> 1402 133<125.919 201.141> 1681 135<133.887 262.309>
Fore
427 -10 m 0
 235 -10 226 156 226 187 c 0
 226 204 228 221 231 239 c 2
 271 465 l 2
 288 564 368 701 497 760 c 1
 277 862 l 1
 311 1056 l 17
 469 1170 645 1232 890 1232 c 0
 1005 1232 1099 1194 1173 1118 c 0
 1226 1063 1252 986 1252 886 c 0
 1252 834 1247 794 1240 756 c 2
 1145 216 l 1
 1247 288 1369 345 1511 387 c 1
 1655 1202 l 1
 1836 1202 l 1
 1694 398 l 1
 1742 398 1816 328 1816 235 c 0
 1816 100 1696 -10 1572 -10 c 0
 1468 -10 1402 64 1402 158 c 0
 1402 173 1403 188 1406 204 c 1
 1313 179 1213 111 1105 0 c 1
 924 0 l 1
 1054 740 l 2
 1062 783 1065 821 1065 855 c 0
 1065 1002 987 1072 848 1072 c 0
 769 1072 614 1062 449 950 c 1
 679 836 l 1
 652 688 l 1
 609 672 481 614 456 464 c 2
 445 395 l 1
 446 397 464 398 499 398 c 0
 608 398 670 316 670 232 c 0
 670 105 555 -10 427 -10 c 0
392 181 m 0
 392 149 416 122 453 122 c 0
 506 122 537 168 537 208 c 0
 537 239 519 266 478 266 c 0
 435 266 392 229 392 181 c 0
1596 122 m 0
 1641 122 1681 161 1681 207 c 0
 1681 239 1658 266 1621 266 c 0
 1578 266 1535 229 1535 181 c 0
 1535 149 1559 122 1596 122 c 0
EndSplineSet
EndChar
StartChar: uni0E14
Encoding: 3604 3604 143
Width: 1330
Flags: W
HStem: 0 21G<215 487.5 973 1160.51> 721 132<699.442 831.307> 1072 160<645.144 1025.63>
VStem: 553 134<578.918 706.674> 834 133<611.653 718.711> 1114 184<774.625 988.205>
Fore
1114 840 m 0
 1114 979 1041 1072 849 1072 c 0
 532 1072 460 836 453 745 c 2
 408 177 l 1
 502 243 608 334 725 450 c 1
 723 450 l 2
 613 450 553 526 553 610 c 0
 553 744 672 853 796 853 c 0
 905 853 967 771 967 687 c 0
 967 639 945 531 875 448 c 0
 736 282 577 133 398 0 c 1
 215 0 l 1
 269 686 l 2
 277 784 291 984 520 1136 c 0
 636 1213 776 1232 873 1232 c 0
 1206 1232 1298 1016 1298 871 c 0
 1298 826 1292 766 1278 689 c 2
 1157 0 l 1
 973 0 l 1
 1105 751 l 2
 1111 783 1114 813 1114 840 c 0
773 721 m 0
 726 721 687 679 687 635 c 0
 687 603 712 577 748 577 c 0
 795 577 834 619 834 663 c 0
 834 695 809 721 773 721 c 0
EndSplineSet
EndChar
StartChar: uni0E15
Encoding: 3605 3605 144
Width: 1340
Flags: W
HStem: 1 21G<-3252 491.5 981 1167.52> 731 132<711.032 842.704>
VStem: 564 135<590.5 718.8> 845 134<599.433 728.678> 1130 184<815.356 1033.18>
Fore
1066 1244 m 1
 1178 1205 1314 1104 1314 895 c 0
 1314 865 1311 834 1305 802 c 2
 1164 1 l 1
 981 1 l 1
 1120 786 l 2
 1126 822 1130 855 1130 885 c 0
 1130 979 1098 1041 1037 1073 c 1
 869 959 l 1
 802 959 l 1
 670 1073 l 1
 564 1021 478 915 468 780 c 2
 418 177 l 1
 737 460 l 1
 735 460 l 2
 625 460 564 536 564 619 c 0
 564 752 683 863 808 863 c 0
 917 863 979 781 979 697 c 0
 979 645 954 539 887 458 c 0
 735 277 575 124 408 0 c 1
 225 1 l 1
 287 801 l 2
 303 1024 498 1186 692 1244 c 1
 857 1093 l 1
 1066 1244 l 1
785 731 m 0
 742 731 699 694 699 646 c 0
 699 614 723 587 760 587 c 0
 805 587 845 626 845 672 c 0
 845 704 822 731 785 731 c 0
EndSplineSet
EndChar
StartChar: uni0E16
Encoding: 3606 3606 145
Width: 1340
Flags: W
HStem: -10 132<405.753 537.138> 266 132<458.727 546.643> 1072 160<617.528 1020.34>
VStem: 239 165<131.45 242.5> 549 134<134.362 263.778> 1106 188<774.439 990.053>
Fore
549 207 m 0
 549 236 529 266 489 266 c 0
 436 266 404 220 404 180 c 0
 404 149 423 122 464 122 c 0
 512 122 549 166 549 207 c 0
883 1232 m 0
 1119 1232 1294 1117 1294 874 c 0
 1294 837 1290 798 1283 756 c 2
 1150 0 l 17
 968 0 l 1
 1097 740 l 2
 1103 776 1106 810 1106 840 c 0
 1106 979 1039 1072 844 1072 c 0
 691 1072 549 1009 462 950 c 1
 692 836 l 1
 665 688 l 1
 622 672 494 614 469 464 c 2
 458 395 l 1
 459 397 477 398 512 398 c 0
 621 398 683 316 683 232 c 0
 683 105 568 -10 440 -10 c 0
 248 -10 239 156 239 187 c 0
 239 204 241 221 244 239 c 2
 284 465 l 2
 301 564 381 701 510 760 c 1
 290 862 l 1
 324 1056 l 17
 423 1127 603 1232 883 1232 c 0
EndSplineSet
EndChar
StartChar: uni0E17
Encoding: 3607 3607 146
Width: 1420
Flags: W
HStem: 0 21G<345 616.5 1040 1226.52> 804 132<396.933 484.717> 1070 152<1045.71 1208.47> 1080 132<406.498 536.023>
VStem: 261 133<938.384 1067.64> 540 165<959.497 1077.31>
Fore
394 995 m 0xdc
 394 965 416 936 455 936 c 0
 508 936 540 982 540 1022 c 0
 540 1053 521 1080 480 1080 c 0
 432 1080 394 1036 394 995 c 0xdc
1201 1222 m 0xec
 1325 1222 1401 1128 1401 1030 c 0
 1401 1016 1400 1002 1397 988 c 2
 1223 0 l 1
 1040 0 l 1
 1209 961 l 2
 1212 975 1213 988 1213 1000 c 0
 1213 1046 1190 1070 1145 1070 c 0xec
 1092 1070 1049 1043 1016 988 c 0
 872 745 708 416 525 0 c 1
 345 0 l 25
 486 807 l 17
 485 805 467 804 432 804 c 0
 323 804 261 886 261 970 c 0
 261 1097 376 1212 504 1212 c 0xdc
 669 1212 705 1088 705 1014 c 0
 705 998 703 981 700 963 c 10
 610 454 l 1
 718 701 815 894 901 1033 c 0
 959 1126 1055 1222 1201 1222 c 0xec
EndSplineSet
EndChar
StartChar: uni0E18
Encoding: 3608 3608 147
Width: 1200
Flags: W
HStem: 0 154<434 843.234> 1062 160<610.425 1015.09>
VStem: 920 192<564.281 670.849>
Fore
1273 999 m 17
 1229 1126 1090 1222 877 1222 c 0
 597 1222 417 1117 318 1046 c 9
 275 802 l 9
 797 702 l 18
 879 686 920 646 920 581 c 0
 920 570 919 559 917 547 c 2
 866 258 l 2
 854 189 813 154 742 154 c 2
 434 154 l 1
 526 674 l 1
 347 674 l 1
 228 0 l 9
 715 0 l 18
 907 0 1015 65 1038 196 c 2
 1107 588 l 18
 1110 608 1112 627 1112 645 c 0
 1112 760 1039 831 894 858 c 10
 457 940 l 17
 547 1001 691 1062 838 1062 c 0
 1066 1062 1099 924 1101 887 c 9
 1273 999 l 17
EndSplineSet
EndChar
StartChar: uni0E19
Encoding: 3609 3609 148
Width: 1430
Flags: W
HStem: -20 132<1085.86 1217.36> 804 132<390.933 478.717> 1080 132<400.498 529.693>
VStem: 255 133<938.384 1067.64> 534 165<959.461 1076.9> 950 133<114.624 192.099> 1230 134<123.851 253.305>
Fore
388 995 m 0
 388 965 410 936 449 936 c 0
 502 936 534 982 534 1022 c 0
 534 1053 515 1080 474 1080 c 0
 426 1080 388 1036 388 995 c 0
1120 -20 m 0
 1016 -20 950 55 950 150 c 0
 950 164 951 179 954 194 c 1
 847 174 702 109 521 0 c 1
 338 0 l 1
 480 807 l 1
 479 805 461 804 426 804 c 0
 317 804 255 886 255 970 c 0
 255 1097 370 1212 498 1212 c 0
 659 1212 699 1096 699 1014 c 0
 699 997 697 981 694 963 c 2
 554 171 l 1
 687 263 852 331 1049 374 c 1
 1195 1202 l 1
 1376 1202 l 1
 1231 379 l 1
 1287 378 1364 319 1364 222 c 0
 1364 91 1245 -20 1120 -20 c 0
1169 256 m 0
 1122 256 1083 214 1083 170 c 0
 1083 138 1108 112 1144 112 c 0
 1191 112 1230 154 1230 198 c 0
 1230 230 1205 256 1169 256 c 0
EndSplineSet
EndChar
StartChar: uni0E1A
Encoding: 3610 3610 149
Width: 1400
Flags: W
HStem: 0 154<551 1059> 804 132<390.933 478.717> 1080 132<400.498 529.693>
VStem: 255 133<938.384 1067.64> 534 165<959.461 1076.9>
Fore
388 995 m 0
 388 965 410 936 449 936 c 0
 502 936 534 982 534 1022 c 0
 534 1053 515 1080 474 1080 c 0
 426 1080 388 1036 388 995 c 0
498 1212 m 0
 659 1212 699 1096 699 1014 c 0
 699 997 697 981 694 963 c 2
 551 154 l 1
 1059 154 l 1
 1244 1202 l 1
 1426 1202 l 1
 1214 0 l 1
 338 0 l 1
 480 807 l 1
 479 805 461 804 426 804 c 0
 317 804 255 886 255 970 c 0
 255 1097 370 1212 498 1212 c 0
EndSplineSet
EndChar
StartChar: uni0E1B
Encoding: 3611 3611 150
Width: 1400
Flags: W
HStem: 0 154<551 1059> 804 132<390.933 478.717> 1080 132<400.498 529.693>
VStem: 255 133<938.384 1067.64> 534 165<959.461 1076.9>
AnchorPoint: "AboveBase" 1178.98 1344 basechar 0
Fore
388 995 m 0
 388 965 410 936 449 936 c 0
 502 936 534 982 534 1022 c 0
 534 1053 515 1080 474 1080 c 0
 426 1080 388 1036 388 995 c 0
498 1212 m 0
 659 1212 699 1096 699 1014 c 0
 699 997 697 981 694 963 c 2
 551 154 l 1
 1059 154 l 1
 1321 1638 l 1
 1503 1638 l 1
 1214 0 l 1
 338 0 l 1
 480 807 l 1
 479 805 461 804 426 804 c 0
 317 804 255 886 255 970 c 0
 255 1097 370 1212 498 1212 c 0
EndSplineSet
EndChar
StartChar: uni0E1C
Encoding: 3612 3612 151
Width: 1350
Flags: W
HStem: 0 21G<176 381.428 948.694 1163.53> 804 132<522.525 655.002> 1080 132<533.4 664.344>
VStem: 667 134<948.362 1077.62>
Fore
667 1021 m 0
 667 1051 645 1080 606 1080 c 0
 553 1080 521 1034 521 994 c 0
 521 963 540 936 581 936 c 0
 629 936 667 980 667 1021 c 0
801 1046 m 0
 801 919 686 804 558 804 c 0
 524 804 506 805 505 807 c 1
 415 299 l 1
 705 704 l 1
 879 704 l 1
 1030 303 l 1
 1189 1202 l 1
 1372 1202 l 1
 1160 0 l 1
 956 0 l 1
 758 542 l 1
 367 0 l 1
 176 0 l 1
 346 963 l 2
 366 1078 459 1212 629 1212 c 0
 740 1212 801 1130 801 1046 c 0
EndSplineSet
EndChar
StartChar: uni0E1D
Encoding: 3613 3613 152
Width: 1350
Flags: W
HStem: 0 21G<176 381.428 948.694 1163.53> 804 132<522.525 655.002> 1080 132<533.4 664.344>
VStem: 667 134<948.362 1077.62>
AnchorPoint: "AboveBase" 1136.28 1340 basechar 0
Fore
667 1021 m 0
 667 1051 645 1080 606 1080 c 0
 553 1080 521 1034 521 994 c 0
 521 963 540 936 581 936 c 0
 629 936 667 980 667 1021 c 0
801 1046 m 0
 801 919 686 804 558 804 c 0
 524 804 506 805 505 807 c 1
 415 299 l 1
 705 704 l 1
 879 704 l 1
 1030 303 l 1
 1266 1638 l 1
 1449 1638 l 1
 1160 0 l 1
 956 0 l 1
 758 542 l 1
 367 0 l 1
 176 0 l 1
 346 963 l 2
 366 1078 459 1212 629 1212 c 0
 740 1212 801 1130 801 1046 c 0
EndSplineSet
EndChar
StartChar: uni0E1E
Encoding: 3614 3614 153
Width: 1460
Flags: W
HStem: 0 21G<328 530.352 1052.82 1263.51> 804 132<380.933 468.717> 1080 132<390.498 519.693>
VStem: 245 133<938.384 1067.64> 524 165<959.461 1076.9>
Fore
378 995 m 0
 378 965 400 936 439 936 c 0
 492 936 524 982 524 1022 c 0
 524 1053 505 1080 464 1080 c 0
 416 1080 378 1036 378 995 c 0
488 1212 m 0
 649 1212 689 1096 689 1014 c 0
 689 997 687 981 684 963 c 2
 580 372 l 1
 900 1088 l 1
 1076 1088 l 1
 1143 376 l 1
 1289 1202 l 1
 1471 1202 l 1
 1260 0 l 1
 1055 0 l 1
 954 926 l 1
 521 0 l 1
 328 0 l 1
 470 807 l 1
 469 805 451 804 416 804 c 0
 307 804 245 886 245 970 c 0
 245 1097 360 1212 488 1212 c 0
EndSplineSet
EndChar
StartChar: uni0E1F
Encoding: 3615 3615 154
Width: 1460
Flags: W
HStem: 0 21G<328 530.352 1052.82 1263.52> 804 132<380.933 468.717> 1080 132<390.498 519.693>
VStem: 245 133<938.384 1067.64> 524 165<959.461 1076.9>
AnchorPoint: "AboveBase" 1244.52 1296 basechar 0
Fore
378 995 m 0
 378 965 400 936 439 936 c 0
 492 936 524 982 524 1022 c 0
 524 1053 505 1080 464 1080 c 0
 416 1080 378 1036 378 995 c 0
488 1212 m 0
 649 1212 689 1096 689 1014 c 0
 689 997 687 981 684 963 c 2
 580 372 l 1
 900 1088 l 1
 1076 1088 l 1
 1143 376 l 1
 1366 1638 l 1
 1548 1638 l 1
 1260 0 l 1
 1055 0 l 1
 954 926 l 1
 521 0 l 1
 328 0 l 1
 470 807 l 1
 469 805 451 804 416 804 c 0
 307 804 245 886 245 970 c 0
 245 1097 360 1212 488 1212 c 0
EndSplineSet
EndChar
StartChar: uni0E20
Encoding: 3616 3616 155
Width: 1440
Flags: W
HStem: -10 132<236.396 367.23> 266 132<245.998 377.749> 1072 160<713.577 1118.59>
VStem: 100 134<124.415 253.638> 1201 189<776.613 993.191>
Fore
234 181 m 0
 234 152 255 122 295 122 c 0
 348 122 379 168 379 208 c 0
 379 239 361 266 320 266 c 0
 272 266 234 222 234 181 c 0
979 1232 m 0
 1158 1232 1390 1160 1390 874 c 0
 1390 837 1386 798 1379 756 c 2
 1246 -1 l 1
 1061 1 l 1
 1191 740 l 2
 1198 778 1201 812 1201 843 c 0
 1201 981 1136 1072 940 1072 c 0
 787 1072 645 1009 557 950 c 1
 788 836 l 1
 762 688 l 1
 717 669 623 628 603 506 c 2
 556 239 l 2
 536 126 443 -10 271 -10 c 0
 162 -10 100 72 100 156 c 0
 100 283 215 398 343 398 c 0
 378 398 395 397 396 394 c 1
 416 506 l 2
 423 546 460 717 606 760 c 1
 386 862 l 1
 420 1056 l 17
 520 1128 699 1232 979 1232 c 0
EndSplineSet
EndChar
StartChar: uni0E21
Encoding: 3617 3617 156
Width: 1370
Flags: W
HStem: -20 152<271.612 399.992> 276 142<281.909 413.948> 804 132<431.693 519.716> 1080 132<441.083 574.557>
VStem: 134 136<135.833 263.127> 296 133<938.289 1067.29> 576 164<960.95 1076.75>
Fore
539 1212 m 0
 700 1212 740 1096 740 1014 c 0
 740 997 738 981 735 963 c 2
 634 389 l 1
 777 360 914 300 1045 209 c 1
 1220 1202 l 1
 1404 1202 l 1
 1192 0 l 1
 1002 0 l 1
 888 103 755 173 602 212 c 1
 592 157 543 -20 307 -20 c 0
 193 -20 134 56 134 151 c 0
 134 331 291 418 377 418 c 0
 429 418 451 419 453 417 c 1
 521 807 l 1
 520 805 502 804 467 804 c 0
 358 804 296 886 296 970 c 0
 296 1097 411 1212 539 1212 c 0
356 276 m 0
 313 276 270 239 270 191 c 0
 270 159 293 132 330 132 c 0
 383 132 415 178 415 219 c 0
 415 249 397 276 356 276 c 0
515 1080 m 0
 468 1080 429 1038 429 994 c 0
 429 962 454 936 490 936 c 0
 537 936 576 978 576 1022 c 0
 576 1054 551 1080 515 1080 c 0
EndSplineSet
EndChar
StartChar: uni0E22
Encoding: 3618 3618 157
Width: 1290
Flags: W
HStem: 0 154<387 951> 509 185<541.883 743> 804 132<540.551 673.002> 1080 132<549.866 683.125>
VStem: 301 165<761.404 855> 685 134<948.362 1076.76>
Fore
685 1021 m 0
 685 1051 663 1080 624 1080 c 0
 571 1080 539 1034 539 994 c 0
 539 963 558 936 599 936 c 0
 647 936 685 980 685 1021 c 0
819 1046 m 0
 819 919 704 804 576 804 c 0
 538 804 501 819 466 848 c 1
 468 783 526 694 768 694 c 2
 775 694 l 9
 743 509 l 17
 573 509 442 457 414 302 c 2
 387 154 l 1
 951 154 l 1
 1136 1202 l 1
 1320 1202 l 1
 1108 0 l 1
 162 0 l 1
 216 304 l 2
 235 408 290 546 491 606 c 1
 397 638 301 722 301 855 c 0
 301 1050 449 1212 647 1212 c 0
 764 1212 819 1124 819 1046 c 0
EndSplineSet
EndChar
StartChar: uni0E23
Encoding: 3619 3619 158
Width: 1150
Flags: W
HStem: -20 132<617.172 748.347> 256 132<627.428 759.408> 1062 160<601.035 1004.67>
VStem: 481 134<115.006 244.266> 809 195<562.303 667.201>
Back
603.731 184.059 m 128
 603.731 164.059 610.731 147.059 624.731 133.059 c 128
 638.731 119.059 655.731 112.059 675.731 112.059 c 128
 695.731 112.059 712.731 119.059 726.731 133.059 c 128
 740.731 147.059 747.731 164.059 747.731 184.059 c 128
 747.731 204.059 740.731 221.059 726.731 235.059 c 128
 712.731 249.059 695.731 256.059 675.731 256.059 c 128
 655.731 256.059 638.731 249.059 624.731 235.059 c 128
 610.731 221.059 603.731 204.059 603.731 184.059 c 128
916 229 m 2
 916 160.596 894.74 102.005 852.219 53.2266 c 128
 809.698 4.44793 750.869 -19.9414 675.731 -19.9414 c 0
 619.731 -19.9414 571.731 0.0585995 531.731 40.0586 c 128
 491.731 80.0589 471.731 128.059 471.731 184.059 c 128
 471.731 240.059 491.731 288.059 531.731 328.059 c 128
 571.731 368.059 619.731 388.059 675.731 388.059 c 0
 710.278 388.059 728.367 387.039 730 385 c 1
 730 585.917 l 2
 730 696.639 644 752 472 752 c 10
 146 752 l 17
 146 890.821 188.024 1003.86 272.072 1091.12 c 128
 356.12 1178.37 475.763 1222 631 1222 c 0
 724.333 1222 802.667 1215.5 866 1202.5 c 128
 929.333 1189.5 994.667 1170 1062 1144 c 1
 1062 974 l 1
 1006 1004.67 947.667 1027.67 887 1043 c 128
 826.333 1058.33 747.333 1066 650 1066 c 0
 572.944 1066 505.946 1046.67 449.007 1008 c 128
 392.068 969.333 359.066 932.667 350 898 c 9
 542 898 l 18
 791.333 898 916 808 916 628 c 2
 916 229 l 2
EndSplineSet
Fore
615 171 m 0
 615 141 637 112 676 112 c 0
 729 112 761 158 761 198 c 0
 761 229 742 256 701 256 c 0
 653 256 615 212 615 171 c 0
481 147 m 0
 481 275 598 388 724 388 c 0
 759 388 777 387 778 385 c 1
 806 546 l 2
 808 559 809 568 809 578 c 0
 809 641 768 682 686 702 c 10
 265 802 l 17
 308 1046 l 17
 407 1117 587 1222 867 1222 c 0
 1078 1222 1219 1128 1263 999 c 9
 1091 887 l 17
 1089 924 1056 1062 828 1062 c 0
 681 1062 540 1003 447 940 c 9
 783 858 l 18
 931 822 1004 748 1004 637 c 0
 1004 617 1002 598 1000 588 c 2
 936 229 l 2
 916 114 823 -20 652 -20 c 0
 541 -20 481 64 481 147 c 0
EndSplineSet
EndChar
StartChar: uni0E24
Encoding: 3620 3620 159
Width: 1340
Flags: W
HStem: -10 132<405.753 537.138> 266 132<458.727 546.643> 1072 160<617.528 1020.09>
VStem: 239 165<131.45 242.5> 549 134<134.362 263.778> 1107 187<776.29 990.35>
Fore
549 207 m 0
 549 236 529 266 489 266 c 0
 436 266 404 220 404 180 c 0
 404 149 423 122 464 122 c 0
 512 122 549 166 549 207 c 0
883 1232 m 0
 1119 1232 1294 1117 1294 874 c 0
 1294 837 1290 798 1283 756 c 2
 1078 -410 l 17
 896 -410 l 1
 1097 740 l 2
 1104 777 1107 810 1107 841 c 0
 1107 980 1037 1072 844 1072 c 0
 691 1072 549 1009 462 950 c 1
 692 836 l 1
 666 688 l 1
 566 652 487 574 469 464 c 2
 458 395 l 1
 459 397 477 398 512 398 c 0
 621 398 683 316 683 232 c 0
 683 105 568 -10 440 -10 c 0
 248 -10 239 156 239 187 c 0
 239 204 241 221 244 239 c 2
 284 465 l 2
 301 564 381 701 510 760 c 1
 290 862 l 1
 324 1056 l 17
 423 1127 603 1232 883 1232 c 0
EndSplineSet
EndChar
StartChar: uni0E25
Encoding: 3621 3621 160
Width: 1290
Flags: W
HStem: -10 128<387.788 523.547> 267 129<443.896 533.883> 705 162<531.955 740.975> 1072 160<484.087 962.446>
VStem: 222 161<121.402 240.402> 537 137<134.225 262.887> 1067 190<766.547 970.454>
Fore
1067 816 m 0
 1067 976 966 1072 799 1072 c 0
 609 1072 444 1022 323 972 c 9
 353 1142 l 17
 485 1201 643 1232 827 1232 c 0
 1085 1232 1257 1122 1257 871 c 0
 1257 835 1253 797 1246 756 c 2
 1113 0 l 1
 909 1 l 17
 858 473 800 705 636 705 c 0
 525 705 474 603 451 477 c 2
 435 384 l 1
 453 392 474 396 498 396 c 0
 592 396 674 340 674 238 c 0
 674 89 550 -10 413 -10 c 0
 286 -10 222 58 222 189 c 0
 222 219 225 253 232 290 c 2
 267 486 l 2
 282 575 326 660 398 744 c 0
 469 826 560 867 671 867 c 0
 810 867 871 796 902 742 c 0
 949 659 982 547 1002 406 c 1
 1060 740 l 2
 1065 767 1067 792 1067 816 c 0
537 207 m 0
 537 240 512 267 474 267 c 24
 427 267 383 228 383 181 c 0
 383 146 409 118 447 118 c 0
 492 118 537 158 537 207 c 0
EndSplineSet
EndChar
StartChar: uni0E26
Encoding: 3622 3622 161
Width: 1420
Flags: W
HStem: -10 132<236.396 367.23> 266 132<245.998 377.749> 1072 160<713.577 1118.59>
VStem: 100 134<124.415 253.638> 1201 189<776.613 993.191>
Fore
234 181 m 0
 234 152 255 122 295 122 c 0
 348 122 379 168 379 208 c 0
 379 239 361 266 320 266 c 0
 272 266 234 222 234 181 c 0
979 1232 m 0
 1158 1232 1390 1160 1390 874 c 0
 1390 837 1386 798 1379 756 c 2
 1174 -409 l 1
 989 -409 l 1
 1191 740 l 2
 1198 778 1201 812 1201 843 c 0
 1201 981 1136 1072 940 1072 c 0
 787 1072 645 1009 557 950 c 1
 788 836 l 1
 762 688 l 1
 717 669 623 628 603 506 c 2
 556 239 l 2
 536 126 443 -10 271 -10 c 0
 162 -10 100 72 100 156 c 0
 100 283 215 398 343 398 c 0
 378 398 395 397 396 394 c 1
 416 506 l 2
 423 546 460 717 606 760 c 1
 386 862 l 1
 420 1056 l 17
 520 1128 699 1232 979 1232 c 0
EndSplineSet
EndChar
StartChar: uni0E27
Encoding: 3623 3623 162
Width: 1140
Flags: W
HStem: -20 132<665.357 795.963> 256 132<674.998 806.579> 1066 156<482.846 819.073>
VStem: 529 134<114.222 243.638> 904 180<783.702 982.983>
Fore
663 171 m 0
 663 142 683 112 723 112 c 0
 777 112 808 158 808 199 c 0
 808 229 790 256 749 256 c 0
 701 256 663 212 663 171 c 0
529 146 m 0
 529 273 644 388 772 388 c 0
 807 388 825 387 826 385 c 1
 898 796 l 2
 902 819 904 840 904 860 c 0
 904 942 862 1066 630 1066 c 0
 516 1066 388 1042 252 974 c 1
 282 1144 l 1
 468 1211 597 1222 676 1222 c 0
 934 1222 1084 1116 1084 862 c 0
 1084 817 1079 768 1070 714 c 2
 984 229 l 2
 964 114 871 -20 700 -20 c 0
 591 -20 529 62 529 146 c 0
EndSplineSet
EndChar
StartChar: uni0E28
Encoding: 3624 3624 163
Width: 1350
Flags: W
HStem: 0 21G<195 400 953 1139.55> 451 132<665.142 797.773> 727 132<675.19 807.715> 1064 160<621.516 954.675>
VStem: 810 134<597.326 723.945> 1092 182<755.033 889.962>
Fore
852 1224 m 0
 1036 1224 1126 1157 1158 1128 c 1
 1215 1177 1274 1240 1334 1315 c 9
 1415 1150 l 17
 1362 1094 1306 1044 1249 1001 c 1
 1265 961 1274 912 1274 852 c 0
 1274 802 1268 745 1257 681 c 2
 1136 0 l 1
 953 0 l 1
 1084 743 l 2
 1090 774 1092 803 1092 830 c 0
 1092 851 1091 872 1087 891 c 1
 1051 868 1007 843 954 818 c 9
 898 922 l 17
 941 949 981 979 1019 1012 c 1
 962 1058 880 1064 826 1064 c 0
 511 1064 442 832 432 737 c 2
 399 428 l 1
 407 488 513 711 607 790 c 0
 661 836 716 859 772 859 c 0
 884 859 944 774 944 692 c 0
 944 562 826 451 701 451 c 0
 645 451 600 471 567 511 c 1
 485 386 422 215 378 0 c 1
 195 0 l 1
 248 678 l 2
 263 879 333 1021 458 1102 c 0
 583 1183 714 1224 852 1224 c 0
749 727 m 0
 702 727 663 685 663 641 c 0
 663 609 688 583 724 583 c 0
 771 583 810 625 810 669 c 0
 810 701 785 727 749 727 c 0
EndSplineSet
EndChar
StartChar: uni0E29
Encoding: 3625 3625 164
Width: 1420
Flags: W
HStem: 0 154<553 1061> 416 136<804.965 935.921> 696 114<814.372 944.969> 804 132<392.933 480.717> 1080 132<402.498 531.693>
VStem: 257 133<938.384 1067.64> 536 165<959.461 1076.9> 677 125<554.489 682.476> 948 125<588.705 693.632>
Back
678 634 m 132
 678 614 685 597 699 583 c 132
 713 569 730 562 750 562 c 132
 770 562 787 569 801 583 c 132
 815 597 822 614 822 634 c 132
 822 654 815 671 801 685 c 132
 787 699 770 706 750 706 c 132
 730 706 713 699 699 685 c 132
 685 671 678 654 678 634 c 132
214 1008 m 128
 214 988 221 971 235 957 c 128
 249 943 266 936 286 936 c 128
 306 936 323 943 337 957 c 128
 351 971 358 988 358 1008 c 128
 358 1028 351 1045 337 1059 c 128
 323 1073 306 1080 286 1080 c 128
 266 1080 249 1073 235 1059 c 128
 221 1045 214 1028 214 1008 c 128
932.973 567.945 m 5
 1019 607 l 13
 1019 1202 l 1
 1201 1202 l 1
 1201 703 l 29
 1297 778 l 21
 1324 616 l 5
 1201 545 l 13
 1201 0 l 1
 340 0 l 1
 340 807 l 1
 338.667 805 320.667 804 286 804 c 0
 230 804 182 824 142 864 c 128
 102 904 82 952 82 1008 c 128
 82 1064 102 1112 142 1152 c 128
 182 1192 230 1212 286 1212 c 0
 361.333 1212 420.167 1187.67 462.5 1139 c 128
 504.833 1090.33 526 1031.67 526 963 c 2
 526 154 l 1
 1019 154 l 1
 1019 477 l 21
 907.027 443 824.694 426 772 426 c 4
 705.297 426 652.498 445.182 613.603 483.547 c 132
 574.708 521.912 555.619 571.158 556.334 631.283 c 4
 556.993 686.621 577.122 732.313 616.722 768.359 c 132
 656.322 804.406 705.931 821.522 765.548 819.707 c 4
 802.119 818.594 840.739 803.835 881.408 775.431 c 132
 922.078 747.027 942.8 701.193 943.573 637.928 c 4
 944.191 609.976 940.658 586.648 932.973 567.945 c 5
EndSplineSet
Fore
390 995 m 0xde80
 390 965 412 936 451 936 c 0
 504 936 536 982 536 1022 c 0
 536 1053 517 1080 476 1080 c 0
 428 1080 390 1036 390 995 c 0xde80
917 810 m 0xed80
 966 810 1073 778 1073 669 c 0
 1073 647 1069 595 1046 558 c 1
 1139 597 l 9
 1246 1202 l 1
 1428 1202 l 1
 1338 693 l 25
 1447 768 l 17
 1446 606 l 1
 1310 535 l 9
 1216 0 l 1
 340 0 l 1
 482 807 l 1
 481 805 463 804 428 804 c 0
 319 804 257 886 257 970 c 0
 257 1097 372 1212 500 1212 c 0
 661 1212 701 1096 701 1014 c 0xde80
 701 997 699 981 696 963 c 2
 553 154 l 1
 1061 154 l 1
 1116 467 l 17
 996 432 913 416 855 416 c 0
 744 416 677 481 677 577 c 0
 677 701 778 810 917 810 c 0xed80
888 696 m 0xed80
 845 696 802 659 802 611 c 0
 802 579 825 552 862 552 c 0
 905 552 948 589 948 637 c 0
 948 669 925 696 888 696 c 0xed80
EndSplineSet
EndChar
StartChar: uni0E2A
Encoding: 3626 3626 165
Width: 1290
Flags: W
HStem: -10 128<385.734 523.547> 267 129<443.896 533.883> 705 162<528.107 740.975> 1072 160<484.207 963.92>
VStem: 223 160<121.454 240.497> 537 137<134.225 262.887> 1068 189<770.264 882.348>
Back
372.5 1602.5 m 21
 499.167 1695.83 621.667 1826.67 740 1995 c 13
 850 1830 l 21
 759.601 1708.33 625.434 1597.5 447.5 1497.5 c 13
 372.5 1602.5 l 21
702.5 1532.5 m 17
 829.167 1625.83 951.667 1756.67 1070 1925 c 9
 1135 1735 l 17
 1036.78 1613.33 917.615 1510.83 777.5 1427.5 c 9
 702.5 1532.5 l 17
108.735 1077.92 m 1
 129.735 1094.26 l 2
 201.872 1141.02 271.331 1174.32 338.114 1194.16 c 128
 404.897 1214 488.193 1223.92 588 1223.92 c 0
 712.479 1223.92 815.057 1195.61 895.735 1139 c 1
 987.735 1285.92 l 1
 1129.74 1179.92 l 1
 1005.82 1019.92 l 1
 1050.08 945.255 1072.14 854.588 1072 747.918 c 2
 1072.26 0 l 1
 869.266 -0.000976562 l 1
 845.434 77.9342 845.434 77.9342 826.993 134.967 c 128
 814.699 172.989 799.388 217.391 781.059 268.174 c 128
 762.73 318.957 745.559 362.436 729.544 398.613 c 128
 713.529 434.79 695.007 472.048 673.977 510.386 c 128
 652.947 548.723 632.357 579.754 612.208 603.478 c 128
 592.059 627.202 569.913 646.706 545.768 661.991 c 128
 521.623 677.276 497.278 684.918 472.735 684.918 c 0
 447.726 684.918 425.355 677.792 405.621 663.539 c 128
 385.887 649.286 370.354 630.68 359.023 607.719 c 128
 347.692 584.758 339.124 560.396 333.318 534.633 c 128
 327.513 508.87 324.583 482.965 324.529 456.918 c 2
 323 372 l 1
 341 380.667 364 384.667 392 384 c 0
 446.667 382 493.667 364 533 330 c 128
 572.333 296 592.333 249.333 593 190 c 0
 594.333 122 573.667 69.6667 531 33 c 128
 488.333 -3.66667 432.333 -22.3333 363 -23 c 0
 295.677 -23.5064 241.304 1.94313 199.881 53.3486 c 128
 158.457 104.754 138.006 179.62 138.529 277.947 c 2
 138.735 495.918 l 2
 138.677 521.337 142.366 548.899 149.803 578.604 c 128
 157.239 608.309 169.61 639.183 186.915 671.224 c 128
 204.22 703.266 225.154 732.2 249.717 758.026 c 128
 274.28 783.852 305.632 805.124 343.775 821.842 c 128
 381.918 838.559 423.572 846.918 468.735 846.918 c 0
 509.551 846.918 548.72 838.768 586.242 822.469 c 128
 623.764 806.17 656.2 785.185 683.549 759.515 c 128
 710.898 733.846 736.364 705.118 759.949 673.333 c 128
 783.534 641.548 803.038 610.279 818.459 579.524 c 128
 833.88 548.769 847.102 520.042 858.125 493.342 c 128
 869.147 466.641 877.093 445.657 881.962 430.388 c 128
 886.831 415.119 889.265 406.97 889.265 405.939 c 1
 889 731.918 l 2
 889 793.815 881.789 846.481 867.367 889.918 c 1
 700.735 786.918 l 1
 650.735 879.311 l 1
 788.234 1005.92 l 1
 742.019 1041.16 675.275 1060.49 588 1063.92 c 0
 522.757 1066.48 456.591 1055.95 389.503 1032.34 c 128
 322.415 1008.73 264.616 978.528 216.107 941.729 c 2
 147.735 882.918 l 1
 108.735 1077.92 l 1
385 255 m 152
 364.333 255 346.333 248 331 234 c 128
 315.667 220 308 202.667 308 182 c 128
 308 161.333 315.5 143.5 330.5 128.5 c 128
 345.5 113.5 363.333 106 384 106 c 128
 404.667 106 422.5 113.5 437.5 128.5 c 128
 452.5 143.5 460 161.333 460 182 c 0
 460 202 452.667 219.167 438 233.5 c 128
 423.333 247.833 405.667 255 385 255 c 152
EndSplineSet
Fore
413 -10 m 0
 261 -10 223 84 223 198 c 0
 223 226 226 256 232 290 c 2
 267 486 l 2
 282 575 326 660 398 744 c 0
 469 826 560 867 671 867 c 0
 810 867 871 796 902 742 c 0
 949 659 982 547 1002 406 c 1
 1060 740 l 2
 1065 768 1068 794 1068 818 c 0
 1068 843 1065 866 1060 887 c 1
 934 818 l 9
 878 922 l 17
 916 947 954 975 993 1005 c 1
 939 1057 867 1072 799 1072 c 0
 609 1072 444 1022 323 972 c 9
 353 1142 l 17
 486 1201 642 1232 827 1232 c 0
 966 1232 1072 1201 1147 1139 c 1
 1200 1192 1256 1251 1314 1315 c 9
 1395 1150 l 17
 1350 1100 1297 1052 1237 1006 c 1
 1250 967 1257 922 1257 873 c 0
 1257 837 1253 798 1246 756 c 2
 1113 0 l 1
 909 1 l 17
 858 473 800 705 636 705 c 0
 562 705 484 661 451 477 c 2
 435 384 l 1
 453 392 474 396 498 396 c 0
 592 396 674 340 674 238 c 0
 674 89 550 -10 413 -10 c 0
537 207 m 0
 537 240 512 267 474 267 c 24
 427 267 383 228 383 181 c 0
 383 146 409 118 447 118 c 0
 492 118 537 158 537 207 c 0
EndSplineSet
EndChar
StartChar: uni0E2B
Encoding: 3627 3627 166
Width: 1410
Flags: W
HStem: 0 21G<344 575 1032 1218.53> 804 132<396.933 484.717> 1080 132<406.498 536.023 1130.98 1263.33>
VStem: 261 133<938.384 1067.64> 540 165<959.497 1077.31> 985 134<938.591 1067.21> 1265 135<946.482 1077.86>
Fore
1119 995 m 0
 1119 965 1141 936 1180 936 c 0
 1233 936 1265 982 1265 1022 c 0
 1265 1053 1246 1080 1205 1080 c 0
 1157 1080 1119 1036 1119 995 c 0
394 995 m 0
 394 965 416 936 455 936 c 0
 508 936 540 982 540 1022 c 0
 540 1053 521 1080 480 1080 c 0
 432 1080 394 1036 394 995 c 0
1400 1046 m 0
 1400 996 1383 908 1271 839 c 1
 1314 810 1336 766 1336 708 c 0
 1336 692 1334 676 1331 658 c 2
 1215 0 l 1
 1032 0 l 1
 1143 631 l 2
 1145 645 1147 657 1147 668 c 0
 1147 716 1123 740 1077 740 c 0
 1042 740 1000 712 950 658 c 0
 753 441 624 240 526 0 c 1
 344 0 l 25
 486 807 l 17
 485 805 467 804 432 804 c 0
 323 804 261 886 261 970 c 0
 261 1097 376 1212 504 1212 c 0
 669 1212 705 1088 705 1014 c 0
 705 998 703 981 700 963 c 10
 610 454 l 1
 699 565 910 796 1023 864 c 1
 998 895 985 930 985 970 c 0
 985 1095 1099 1212 1229 1212 c 0
 1338 1212 1400 1130 1400 1046 c 0
EndSplineSet
EndChar
StartChar: uni0E2C
Encoding: 3628 3628 167
Width: 1480
Flags: W
HStem: 0 21G<328 531.073 1052.14 1263.5> 804 132<380.693 468.599> 998 132<1196.51 1275.5> 1080 132<390.083 523.557> 1274 132<1205.66 1337.92>
VStem: 245 133<938.289 1067.29> 525 164<960.95 1076.75> 1060 135<1131.98 1261.95>
AnchorPoint: "AboveBase" 963.524 1262 basechar 0
Fore
488 1212 m 0xdf
 649 1212 689 1096 689 1014 c 0
 689 997 687 981 684 963 c 2
 580 372 l 1
 882 988 l 1
 1058 988 l 1
 1143 376 l 1
 1253 1000 l 17
 1246 999 1238 998 1231 998 c 0xef
 1122 998 1060 1080 1060 1164 c 0
 1060 1291 1175 1406 1303 1406 c 0
 1414 1406 1471 1321 1474 1249 c 9
 1591 1300 l 1
 1635 1156 l 1
 1448 1074 l 25
 1260 0 l 1
 1055 0 l 1
 937 826 l 1
 521 0 l 1
 328 0 l 1
 470 807 l 1
 469 805 451 804 416 804 c 0
 307 804 245 886 245 970 c 0
 245 1097 360 1212 488 1212 c 0xdf
1340 1215 m 0
 1340 1247 1317 1274 1280 1274 c 0
 1226 1274 1195 1228 1195 1187 c 0
 1195 1157 1213 1130 1254 1130 c 0
 1297 1130 1340 1167 1340 1215 c 0
464 1080 m 0xdf
 417 1080 378 1038 378 994 c 0
 378 962 403 936 439 936 c 0
 486 936 525 978 525 1022 c 0
 525 1054 500 1080 464 1080 c 0xdf
EndSplineSet
EndChar
StartChar: uni0E2D
Encoding: 3629 3629 168
Width: 1220
Flags: W
HStem: 0 154<396 888> 449 132<466.067 598.002> 725 132<476.784 607.42> 1066 156<585.846 920.795>
VStem: 610 134<593.362 722.778> 1007 180<783.179 982.676>
Fore
610 666 m 0
 610 695 590 725 550 725 c 0
 496 725 465 679 465 638 c 0
 465 608 483 581 524 581 c 0
 572 581 610 625 610 666 c 0
744 691 m 0
 744 564 629 449 501 449 c 0
 467 449 450 450 449 452 c 1
 396 154 l 1
 888 154 l 1
 1001 795 l 2
 1005 817 1007 837 1007 856 c 0
 1007 999 901 1066 733 1066 c 0
 619 1066 491 1042 355 974 c 1
 385 1144 l 1
 571 1211 700 1222 779 1222 c 0
 1037 1222 1187 1116 1187 862 c 0
 1187 817 1182 768 1173 714 c 2
 1047 0 l 1
 182 0 l 1
 289 608 l 2
 309 723 402 857 572 857 c 0
 683 857 744 775 744 691 c 0
EndSplineSet
EndChar
StartChar: uni0E2E
Encoding: 3630 3630 169
Width: 1220
Flags: W
HStem: 0 154<362 865> 319 132<409.749 542.917> 595 132<420.703 552.084> 782 144<565.809 876.803> 1092 140<566.607 879.143>
VStem: 319 173<957.495 1060.85> 555 133<463.71 592.711>
Fore
1085 1105 m 9
 1236 1240 l 17
 1271 1067 l 1
 1150 972 l 1
 1157 940 1161 907 1161 870 c 0
 1161 834 1157 796 1150 756 c 2
 1017 0 l 1
 149 0 l 1
 233 478 l 2
 253 593 346 727 516 727 c 0
 627 727 688 645 688 561 c 0
 688 434 573 319 445 319 c 0
 411 319 394 320 393 322 c 9
 362 154 l 17
 865 154 l 1
 968 740 l 2
 974 771 976 803 976 835 c 0
 976 849 976 862 975 876 c 1
 891 823 777 782 645 782 c 0
 490 782 422 822 387 854 c 0
 342 895 319 940 319 989 c 0
 319 1135 505 1232 744 1232 c 0
 900 1232 1014 1189 1085 1105 c 9
492 1011 m 0
 492 943 641 926 676 926 c 0
 770 926 902 965 935 1002 c 1
 873 1072 785 1092 686 1092 c 0
 639 1092 492 1076 492 1011 c 0
469 451 m 0
 516 451 555 493 555 537 c 0
 555 569 530 595 494 595 c 0
 447 595 408 553 408 509 c 0
 408 477 433 451 469 451 c 0
EndSplineSet
EndChar
StartChar: uni0E2F
Encoding: 3631 3631 170
Width: 1200
Flags: W
HStem: 0 21G<810 996.509> 736 190<410.257 655.593> 1070 132<419.339 551.704>
VStem: 273 135<928.025 1056.14> 554 134<938.235 1067.68>
Fore
517 1202 m 0
 626 1202 688 1120 688 1036 c 0
 688 977 665 926 634 889 c 1
 814 924 941 1065 1028 1202 c 1
 1173 1026 l 1
 993 0 l 1
 810 0 l 1
 970 909 l 17
 842 788 690 736 526 736 c 0
 316 736 273 888 273 952 c 0
 273 1102 401 1202 517 1202 c 0
494 1070 m 0
 451 1070 408 1033 408 985 c 0
 408 953 431 926 468 926 c 0
 511 926 554 963 554 1011 c 0
 554 1043 531 1070 494 1070 c 0
EndSplineSet
EndChar
StartChar: uni0E30
Encoding: 3632 3632 171
Width: 1040
Flags: W
HStem: 12 196<245.429 516.375> 352 113<255.705 394.449> 679 196<364.543 633.056> 1019 113<374.763 513.377>
VStem: 124 119<212.212 338.099> 243 119<878.439 1005.68> 398 120<220.579 348.485> 517 120<888.743 1015.88>
Fore
452 1019 m 0xfd
 402 1019 362 977 362 934 c 0
 362 899 392 875 427 875 c 0
 469 875 517 912 517 959 c 0
 517 991 494 1019 452 1019 c 0xfd
547 817 m 1
 663 827 886 936 1024 1098 c 1
 1046 894 l 1
 1002 853 763 679 524 679 c 0
 434 679 370 696 332 728 c 0
 261 789 243 832 243 893 c 0
 243 982 272 1029 332 1076 c 0
 381 1113 430 1132 480 1132 c 0
 582 1132 637 1052 637 976 c 0
 637 893 583 839 547 817 c 1
333 352 m 0
 283 352 243 309 243 266 c 0
 243 231 274 208 309 208 c 0
 351 208 398 244 398 291 c 0xfe
 398 323 375 352 333 352 c 0
428 150 m 1
 632 181 786 296 905 431 c 1
 927 227 l 1
 859 162 621 12 405 12 c 0
 316 12 251 28 212 62 c 0
 146 118 124 161 124 225 c 0
 124 308 147 359 212 410 c 0
 258 447 305 465 354 465 c 0
 465 465 518 383 518 309 c 0
 518 214 450 163 428 150 c 1
EndSplineSet
EndChar
StartChar: uni0E31
Encoding: 3633 3633 172
Width: 0
Flags: HW
HStem: 1362 130<-252 -151.478> 1678 104<-410.895 -277.795>
VStem: -531 110<1545.58 1666.86> -275 109<1554.18 1676.03>
AnchorPoint: "AboveBase" -15.7217 1340 mark 0
AnchorPoint: "AboveMark" 23.748 1958 basemark 0
Fore
-334 1678 m 0
 -385 1678 -421 1638 -421 1601 c 0
 -421 1569 -398 1544 -362 1544 c 8
 -321 1544 -275 1574 -275 1621 c 0
 -275 1655 -301 1678 -334 1678 c 0
-166 1642 m 0
 -166 1579 -191 1521 -239 1492 c 1
 -108 1492 87 1539 328 1794 c 1
 347 1592 l 1
 65 1365 -176 1362 -252 1362 c 0
 -413 1362 -531 1425 -531 1558 c 0
 -531 1707 -409 1782 -310 1782 c 0
 -225 1782 -166 1726 -166 1642 c 0
EndSplineSet
EndChar
StartChar: uni0E32
Encoding: 3634 3634 173
Width: 1130
Flags: W
HStem: 1066 156<482.846 819.073>
VStem: 904 180<783.679 982.908>
Fore
630 1066 m 0
 862 1066 904 942 904 859 c 0
 904 839 902 818 898 796 c 2
 758 0 l 1
 944 0 l 25
 1070 714 l 2
 1079 768 1084 817 1084 862 c 0
 1084 1116 934 1222 676 1222 c 0
 597 1222 468 1211 282 1144 c 1
 252 974 l 1
 388 1042 516 1066 630 1066 c 0
EndSplineSet
EndChar
StartChar: uni0E34
Encoding: 3636 3636 175
Width: 0
Flags: W
HStem: 1442 130<-667.313 -311> 1707 126<-559.129 -234.638>
VStem: -870 968<1432 1542>
AnchorPoint: "AboveBase" 59.2783 1340 mark 0
AnchorPoint: "AboveMark" 70.248 1958 basemark 0
Fore
-67 1509 m 1
 -107 1588 -248 1707 -401 1707 c 0
 -519 1707 -610 1639 -668 1572 c 1
 -398 1572 l 2
 -342 1572 -278 1563 -230 1552 c 2
 -158 1534 l 2
 -90 1518 -71 1509 -67 1509 c 1
27 1344 m 1
 -93 1372 -226 1440 -430 1440 c 0
 -507 1441 -580 1442 -647 1442 c 0
 -758 1442 -826 1439 -870 1432 c 1
 -841 1593 l 1
 -732 1746 -522 1833 -370 1833 c 0
 -89 1833 59 1609 98 1542 c 1
 27 1344 l 1
EndSplineSet
EndChar
StartChar: uni0E35
Encoding: 3637 3637 176
Width: 0
Flags: W
HStem: 1435 131<-679.139 -323.875> 1701 126<-572.129 -247.56>
VStem: -883 979<1422 1857>
AnchorPoint: "AboveMark" 29.248 1958 basemark 0
AnchorPoint: "AboveBase" 47.2783 1340 mark 0
Fore
-80 1503 m 1
 -120 1582 -261 1701 -414 1701 c 0
 -532 1701 -623 1633 -681 1566 c 1
 -411 1566 l 2
 -355 1566 -291 1557 -242 1546 c 2
 -170 1528 l 2
 -103 1512 -84 1503 -80 1503 c 1
-443 1434 m 0
 -569 1434 -632 1435 -653 1435 c 0
 -768 1435 -838 1430 -883 1422 c 1
 -854 1587 l 1
 -745 1740 -535 1827 -383 1827 c 0
 -283 1827 -187 1796 -96 1733 c 1
 -75 1857 l 1
 96 1857 l 1
 49 1590 l 1
 62 1572 74 1554 85 1536 c 1
 14 1338 l 1
 -106 1366 -239 1434 -443 1434 c 0
EndSplineSet
EndChar
StartChar: uni0E36
Encoding: 3638 3638 177
Width: 0
Flags: W
HStem: 1430 130<-681.313 -325> 1695 126<-571.084 -250.122> 1790 113<-31.1927 101.135>
VStem: 104 115<1661.12 1786.82>
AnchorPoint: "AboveMark" 73.248 1958 basemark 0
AnchorPoint: "AboveBase" 47.2783 1340 mark 0
Fore
-81 1497 m 1xd0
 -122 1576 -263 1695 -415 1695 c 0
 -533 1695 -625 1627 -682 1560 c 1
 -412 1560 l 2
 -356 1560 -292 1551 -244 1540 c 2
 -172 1522 l 2
 -104 1506 -85 1497 -81 1497 c 1xd0
219 1759 m 0
 219 1691 178 1586 71 1552 c 1
 72 1551 76 1543 84 1530 c 1
 13 1332 l 1
 -106 1359 -238 1428 -444 1428 c 0
 -521 1429 -594 1430 -661 1430 c 0
 -772 1430 -840 1427 -884 1420 c 1
 -855 1581 l 1
 -746 1734 -536 1821 -384 1821 c 2
 -383 1821 l 2xd0
 -299 1821 -216 1797 -135 1750 c 1
 -114 1811 -55 1903 64 1903 c 0xb0
 165 1903 219 1841 219 1759 c 0
104 1733 m 0
 104 1764 80 1790 45 1790 c 24xb0
 1 1790 -42 1753 -42 1708 c 0
 -42 1682 -23 1651 20 1651 c 0
 64 1651 104 1688 104 1733 c 0
EndSplineSet
EndChar
StartChar: uni0E37
Encoding: 3639 3639 178
Width: 0
Flags: W
HStem: 1428 128<-681.313 -325.875> 1693 126<-571.825 -303.241>
VStem: -884 982<1418 1887>
AnchorPoint: "AboveMark" -79.752 1958 basemark 0
AnchorPoint: "AboveBase" 47.2783 1340 mark 0
Fore
-82 1493 m 1
 -120 1569 -259 1693 -415 1693 c 0
 -534 1693 -626 1623 -683 1556 c 1
 -413 1556 l 2
 -357 1556 -293 1547 -244 1536 c 2
 -172 1518 l 2
 -105 1502 -86 1493 -82 1493 c 1
13 1330 m 1
 -103 1356 -238 1426 -445 1426 c 0
 -522 1427 -594 1428 -661 1428 c 0
 -772 1428 -840 1425 -884 1418 c 1
 -856 1579 l 1
 -747 1732 -536 1819 -384 1819 c 0
 -359 1819 -329 1816 -296 1809 c 1
 -282 1888 l 1
 -126 1888 l 1
 -149 1759 l 17
 -140 1754 -91 1718 -88 1717 c 1
 -58 1887 l 1
 98 1887 l 1
 44 1585 l 1
 63 1558 76 1539 83 1528 c 1
 13 1330 l 1
EndSplineSet
EndChar
StartChar: uni0E38
Encoding: 3640 3640 179
Width: 0
Flags: W
HStem: -424 92<-498.773 -423.203> -226 106<-494.888 -388.083>
VStem: -590 91<-331.886 -230.19> -386 144<-318.895 -227.288>
AnchorPoint: "BelowBase" -212.159 -120 mark 0
Fore
-408 -120 m 0
 -311 -120 -242 -169 -242 -267 c 0
 -242 -283 -244 -300 -247 -319 c 2
 -283 -523 l 1
 -438 -523 l 1
 -419 -416 l 1
 -429 -421 -446 -424 -469 -424 c 0
 -543 -424 -590 -364 -590 -304 c 0
 -590 -208 -505 -120 -408 -120 c 0
-386 -269 m 0
 -386 -243 -407 -226 -432 -226 c 24
 -464 -226 -499 -249 -499 -287 c 0
 -499 -313 -479 -332 -451 -332 c 0
 -415 -332 -386 -301 -386 -269 c 0
EndSplineSet
EndChar
StartChar: uni0E39
Encoding: 3641 3641 180
Width: 0
Flags: W
HStem: -524 101<-590 -449> -424 92<-823.437 -747.341> -226 106<-819.862 -710.015>
VStem: -914 90<-320.068 -230.78> -710 143<-318.788 -227.151>
AnchorPoint: "BelowBase" -212.159 -120 mark 0
Fore
-732 -120 m 0x78
 -636 -120 -567 -168 -567 -267 c 0
 -567 -283 -569 -300 -572 -319 c 2
 -590 -423 l 1
 -449 -423 l 1
 -397 -126 l 1
 -242 -126 l 1
 -312 -524 l 1
 -762 -524 l 1xb8
 -743 -416 l 1
 -754 -421 -771 -424 -794 -424 c 0
 -866 -424 -914 -365 -914 -302 c 0
 -914 -212 -831 -120 -732 -120 c 0x78
-710 -269 m 0
 -710 -243 -731 -226 -757 -226 c 24
 -790 -226 -824 -251 -824 -287 c 0
 -824 -307 -810 -332 -775 -332 c 0x78
 -742 -332 -710 -304 -710 -269 c 0
EndSplineSet
EndChar
StartChar: uni0E3A
Encoding: 3642 3642 181
Width: 0
Flags: W
AnchorPoint: "BelowBase" -212.159 -120 mark 0
Fore
-481 -269 m 0
 -481 -191 -408 -112 -321 -112 c 0
 -246 -112 -208 -174 -208 -222 c 0
 -208 -309 -291 -382 -369 -382 c 0
 -436 -382 -481 -326 -481 -269 c 0
EndSplineSet
EndChar
StartChar: uni0E3F
Encoding: 3647 3647 182
Width: 1250
Flags: W
HStem: 0 170<378 541 684 855.212> 719 166<504 668 809 860.85> 1319 170<581 581 916 1039.83>
VStem: 1042 207<351.672 646.675> 1088 214<1044.25 1274.16>
Fore
916 1489 m 1xf0
 1107 1489 1302 1436 1302 1225 c 0xe8
 1302 1055 1191 922 1092 865 c 2
 1029 827 l 1
 1198 776 1249 653 1249 538 c 0
 1249 243 980 0 653 0 c 1
 630 -133 l 1
 518 -133 l 1
 541 0 l 1
 152 0 l 1
 415 1489 l 1
 804 1489 l 1
 822 1595 l 1
 934 1595 l 1
 916 1489 l 1xf0
697 885 m 1
 774 1321 l 1
 581 1321 l 1
 504 885 l 1
 697 885 l 1
809 887 m 1
 866 887 923 905 980 941 c 0
 1060 994 1088 1105 1088 1174 c 0
 1088 1261 1031 1319 886 1319 c 1
 809 887 l 1
571 170 m 1
 668 719 l 1
 475 719 l 1
 378 170 l 1
 571 170 l 1
684 174 m 1
 883 174 1042 306 1042 534 c 0xf0
 1042 620 1005 650 947 683 c 0
 906 706 850 717 779 717 c 1
 684 174 l 1
EndSplineSet
EndChar
StartChar: uni0E40
Encoding: 3648 3648 183
Width: 740
Flags: W
HStem: -10 132<384.328 516.843> 266 132<445.5 525.704>
VStem: 248 134<124.322 223.962> 528 134<134.367 263.678>
Fore
662 232 m 0
 662 316 600 398 491 398 c 0
 484 398 478 398 471 397 c 9
 613 1202 l 1
 429 1202 l 1
 251 194 l 2
 249 181 248 168 248 156 c 0
 248 72 310 -10 419 -10 c 0
 547 -10 662 105 662 232 c 0
382 181 m 0
 382 227 423 266 468 266 c 0
 505 266 528 239 528 207 c 0
 528 161 488 122 443 122 c 0
 406 122 382 149 382 181 c 0
EndSplineSet
EndChar
StartChar: uni0E41
Encoding: 3649 3649 184
Width: 1290
Flags: W
HStem: -10 132<374.328 506.843 934.672 1066.84> 266 132<437.164 515.704 992.664 1075.7>
VStem: 238 134<124.322 223.962> 518 134<134.367 263.678> 798 135<124.144 224.294> 1078 134<134.367 263.678>
Fore
1212 232 m 0
 1212 316 1150 398 1041 398 c 0
 1034 398 1028 398 1021 397 c 9
 1163 1202 l 1
 979 1202 l 1
 801 194 l 2
 799 181 798 168 798 156 c 0
 798 72 860 -10 969 -10 c 0
 1097 -10 1212 105 1212 232 c 0
1078 207 m 0
 1078 161 1038 122 993 122 c 0
 952 122 933 149 933 180 c 0
 933 220 964 266 1018 266 c 0
 1055 266 1078 239 1078 207 c 0
652 232 m 0
 652 316 590 398 481 398 c 0
 474 398 468 398 461 397 c 9
 603 1202 l 1
 419 1202 l 1
 241 194 l 2
 239 181 238 168 238 156 c 0
 238 72 300 -10 409 -10 c 0
 537 -10 652 105 652 232 c 0
372 181 m 0
 372 227 413 266 458 266 c 0
 495 266 518 239 518 207 c 0
 518 161 478 122 433 122 c 0
 396 122 372 149 372 181 c 0
EndSplineSet
EndChar
StartChar: uni0E42
Encoding: 3650 3650 185
Width: 930
Flags: W
HStem: -10 132<580.828 713.343> 266 132<642.5 722.204> 1780 160<552.726 955.849>
VStem: 445 133<124.322 223.665> 639 195<1278.23 1377.95> 724 135<134.367 263.678>
Fore
616 -10 m 0xf4
 507 -10 445 72 445 156 c 0
 445 168 446 181 448 194 c 2
 637 1264 l 2
 639 1274 639 1283 639 1292 c 0
 639 1350 597 1393 516 1420 c 10
 216 1520 l 17
 259 1764 l 17
 358 1835 538 1940 818 1940 c 0
 1029 1940 1170 1846 1214 1717 c 9
 1042 1605 l 17
 1041 1626 1019 1780 779 1780 c 0
 626 1780 485 1717 397 1658 c 9
 614 1576 l 18
 760 1520 834 1444 834 1345 c 0xf8
 834 1332 832 1319 830 1306 c 2
 669 397 l 17
 676 398 682 398 688 398 c 0
 797 398 859 316 859 232 c 0
 859 105 744 -10 616 -10 c 0xf4
664 266 m 0
 621 266 578 229 578 181 c 0
 578 149 602 122 639 122 c 0xf8
 684 122 724 161 724 207 c 0xf4
 724 239 701 266 664 266 c 0
EndSplineSet
EndChar
StartChar: uni0E43
Encoding: 3651 3651 186
Width: 830
Flags: W
HStem: -10 132<470.249 599.659> 266 132<505 608.877> 1362 144<377.746 535.48> 1776 134<644 733.032>
VStem: 212 156<1514.81 1670.54> 563 147<1533.77 1689.5> 612 137<134.367 263.678> 769 184<1546 1746.71>
Back
204 1706.5 m 24
 182.413 1706.5 163.683 1699.51 147.81 1685.52 c 128
 131.937 1671.53 124 1654.19 124 1633.5 c 0
 124 1612.5 131.333 1594.33 146 1579 c 128
 160.667 1563.67 178.333 1556 199 1556 c 128
 219.667 1556 237.667 1563.33 253 1578 c 128
 268.333 1592.67 276 1610.17 276 1630.5 c 0
 276 1651.17 269.041 1669.01 255.123 1684 c 128
 241.206 1699 224.165 1706.5 204 1706.5 c 24
284.5 1142.5 m 18
 284.5 1182.73 290.663 1220.68 302.988 1256.35 c 128
 315.314 1292.02 330.272 1322.96 347.863 1349.16 c 128
 374.25 1388.45 374.25 1388.45 400.637 1425.43 c 128
 418.228 1450.08 433.186 1476.89 445.512 1505.87 c 128
 457.837 1534.84 464 1564.55 464 1595 c 0
 464 1623.29 458.792 1650.71 448.375 1677.25 c 128
 437.958 1703.79 420.7 1726.8 396.599 1746.28 c 128
 372.498 1765.76 343.965 1775.5 311 1775.5 c 1
 325.271 1766.25 335.689 1758.94 342.255 1753.56 c 128
 348.821 1748.17 356.297 1739.95 364.682 1728.89 c 128
 373.067 1717.82 378.883 1704.23 382.13 1688.12 c 128
 385.377 1672.01 387 1652.14 387 1628.5 c 0
 387 1585.92 367.85 1545.7 329.55 1507.84 c 128
 291.25 1469.99 249.379 1451.06 203.938 1451.06 c 0
 147.796 1451.06 101.354 1468.75 64.6124 1504.12 c 128
 27.8708 1539.49 9.5 1584.29 9.5 1638.5 c 0
 9.5 1714.05 38.1494 1778.18 95.4482 1830.91 c 128
 152.747 1883.64 223.097 1910 306.5 1910 c 0
 360.764 1910 410.127 1900.7 454.589 1882.09 c 128
 499.052 1863.49 534.865 1839.13 562.028 1809.02 c 128
 589.191 1778.91 610.061 1746 624.636 1710.29 c 128
 639.212 1674.59 646.5 1638.49 646.5 1602 c 0
 646.5 1569.48 640.372 1536.18 628.115 1502.1 c 128
 615.858 1468.03 600.983 1435.83 583.49 1405.51 c 128
 557.25 1360.03 557.25 1360.03 531.01 1313.02 c 128
 513.517 1281.69 498.642 1246.78 486.385 1208.31 c 128
 474.128 1169.84 468 1131.13 468 1092.18 c 2
 468 398 l 1
 484 406 507.333 410 538 410 c 0
 592 410 639 392.5 679 357.5 c 128
 719 322.5 739 275.333 739 216 c 0
 739 147.333 717.667 94.1667 675 56.5 c 128
 632.333 18.8333 577 -1.90735e-06 509 0 c 0
 442.029 0 387.874 26.0335 346.536 78.1004 c 128
 305.198 130.167 284.529 205.45 284.529 303.947 c 2
 284.5 1142.5 l 18
531 281 m 152
 510.333 281 492.333 274 477 260 c 128
 461.667 246 454 228.667 454 208 c 128
 454 187.333 461.5 169.5 476.5 154.5 c 128
 491.5 139.5 509.333 132 530 132 c 128
 550.667 132 568.5 139.5 583.5 154.5 c 128
 598.5 169.5 606 187.333 606 208 c 0
 606 228 598.667 245.167 584 259.5 c 128
 569.333 273.833 551.667 281 531 281 c 152
EndSplineSet
Fore
663 1910 m 0xfd
 895 1910 953 1745 953 1651 c 0
 953 1602 940 1522 852 1406 c 2
 782 1313 l 2
 751 1270 697 1185 681 1092 c 2
 558 397 l 17
 565 398 571 398 578 398 c 0
 687 398 749 316 749 232 c 0xfb
 749 105 634 -10 506 -10 c 0
 397 -10 335 72 335 156 c 0
 335 168 336 181 338 194 c 2
 505 1142 l 2
 522 1229 569 1307 606 1349 c 2
 672 1425 l 2
 720 1479 769 1551 769 1635 c 0
 769 1720 719 1776 644 1776 c 1
 688 1745 710 1702 710 1648 c 0
 710 1501 579 1362 423 1362 c 0
 285 1362 212 1479 212 1568 c 0
 212 1736 396 1910 663 1910 c 0xfd
612 207 m 0
 612 239 589 266 552 266 c 0
 458 266 431 122 527 122 c 0
 572 122 612 161 612 207 c 0
482 1698 m 0
 418 1698 368 1640 368 1583 c 0
 368 1541 401 1506 449 1506 c 0
 513 1506 563 1564 563 1621 c 0xfd
 563 1663 530 1698 482 1698 c 0
EndSplineSet
EndChar
StartChar: uni0E44
Encoding: 3652 3652 187
Width: 910
Flags: W
HStem: -10 132<561.828 694.343> 266 132<623.5 703.204>
VStem: 426 133<124.322 223.665> 705 135<134.367 263.678>
Fore
597 -10 m 0
 488 -10 426 72 426 156 c 0
 426 168 427 181 429 194 c 2
 687 1654 l 17
 641 1649 585 1595 485 1356 c 1
 377 1356 l 1
 373 1507 286 1761 207 1854 c 1
 277 1996 l 1
 349 1917 455 1747 475 1606 c 1
 554 1768 668 1905 755 1905 c 2
 915 1905 l 9
 649 397 l 17
 656 398 662 398 669 398 c 0
 778 398 840 316 840 232 c 0
 840 105 725 -10 597 -10 c 0
645 266 m 0
 602 266 559 229 559 181 c 0
 559 149 583 122 620 122 c 0
 665 122 705 161 705 207 c 0
 705 239 682 266 645 266 c 0
EndSplineSet
EndChar
StartChar: uni0E45
Encoding: 3653 3653 188
Width: 970
Flags: W
HStem: 1066 156<312.846 647.788>
VStem: 734 180<782.085 986.697>
Fore
460 1066 m 0
 692 1066 734 942 734 859 c 0
 734 839 732 818 728 796 c 2
 516 -410 l 1
 702 -410 l 25
 900 714 l 2
 909 765 914 811 914 854 c 0
 914 1075 814 1222 506 1222 c 0
 427 1222 298 1211 112 1144 c 1
 82 974 l 1
 218 1042 346 1066 460 1066 c 0
EndSplineSet
EndChar
StartChar: uni0E46
Encoding: 3654 3654 189
Width: 1200
Flags: W
HStem: 586 121<381.19 525.135> 860 114<448.475 536.192> 1204 20G<871.407 936>
VStem: 244 133<711.346 842.515> 540 125<723.38 856.668> 929 188<873.47 1039.03>
Fore
426 586 m 0
 317 586 244 656 244 773 c 0
 244 837 273 970 360 1068 c 0
 417 1131 494 1183 592 1224 c 1
 591 1221 637 1185 728 1116 c 1
 904 1224 l 1
 968 1213 1023 1179 1069 1123 c 0
 1101 1084 1117 1031 1117 962 c 0
 1117 932 1113 899 1107 863 c 2
 883 -408 l 1
 700 -408 l 1
 921 847 l 2
 926 876 929 903 929 930 c 0
 929 997 916 1034 872 1044 c 1
 697 946 l 1
 549 1057 l 1
 487 1032 466 1006 448 968 c 1
 456 972 472 974 497 974 c 0
 624 974 665 904 665 828 c 0
 665 688 555 586 426 586 c 0
377 771 m 0
 377 736 403 707 444 707 c 24
 491 707 540 743 540 794 c 0
 540 827 517 860 475 860 c 0
 422 860 377 817 377 771 c 0
EndSplineSet
EndChar
StartChar: uni0E47
Encoding: 3655 3655 190
Width: 0
Flags: HW
HStem: 1369 133<-314.759 -132.066> 1469 136<-507.227 -388.478> 1614 73<-224.53 -115.123> 1742 112<-375.937 -200.897>
VStem: -748 124<1487.84 1659.8> -312 82<1507.08 1608.85> -115 79<1506.71 1613.66>
AnchorPoint: "AboveMark" -407.003 1351.88 mark 0
AnchorPoint: "AboveBase" 12.6221 1351.88 mark 0
Fore
-183 1502 m 0xbe
 -146 1502 -115 1533 -115 1569 c 0
 -115 1596 -136 1614 -163 1614 c 0
 -200 1614 -230 1582 -230 1547 c 0
 -230 1519 -210 1502 -183 1502 c 0xbe
-36 1583 m 0
 -36 1514 -109 1369 -266 1369 c 0xbe
 -347 1369 -423 1469 -463 1469 c 0
 -510 1469 -517 1380 -526 1370 c 1
 -543 1370 l 2
 -660 1370 -691 1405 -709 1430 c 0
 -736 1465 -748 1495 -748 1538 c 0
 -748 1868 -308 1854 -235 1854 c 0
 -99 1854 43 1894 104 1988 c 1
 116 1875 l 1
 8 1748 -223 1743 -330 1742 c 0
 -511 1740 -624 1670 -624 1560 c 0
 -624 1525 -607 1501 -576 1486 c 1
 -568 1515 l 2
 -563 1532 -530 1605 -442 1605 c 0x7e
 -394 1605 -351 1514 -306 1495 c 1
 -310 1510 -312 1524 -312 1537 c 0
 -312 1626 -242 1687 -145 1687 c 0
 -85 1687 -36 1646 -36 1583 c 0
EndSplineSet
EndChar
StartChar: uni0E48
Encoding: 3656 3656 191
Width: 0
Flags: W
VStem: 16 217<2043 2411>
AnchorPoint: "AboveMark" 77.248 1958 mark 0
Fore
81 2411 m 25
 233 2411 l 1
 168 2043 l 1
 16 2043 l 1
 81 2411 l 25
EndSplineSet
Substitution2: "Single Substitution lookup 5" uni0E48.low
MultipleSubs2: "Multiple Substitution lookup 4" uni0E4D uni0E48
EndChar
StartChar: uni0E49
Encoding: 3657 3657 192
Width: 0
Flags: W
HStem: 2014 77<-240 -134.926> 2169 65<-177.385 -100.556> 2364 72<-171.698 -40.3406>
VStem: -254 75<2235.78 2354.07> -38 87<2261.22 2361.89>
AnchorPoint: "AboveMark" 71.248 1958 mark 0
Fore
-254 2278 m 0
 -254 2373 -167 2436 -87 2436 c 0
 21 2436 49 2376 49 2324 c 0
 49 2287 29 2195 -25 2136 c 1
 99 2156 238 2188 426 2430 c 1
 452 2302 l 1
 195 2024 -55 2014 -217 2014 c 2
 -254 2014 l 1
 -240 2091 l 1
 -158 2091 -112 2153 -92 2175 c 1
 -102 2171 -122 2169 -149 2169 c 0
 -211 2169 -254 2214 -254 2278 c 0
-96 2364 m 0
 -137 2364 -179 2334 -179 2288 c 0
 -179 2258 -156 2234 -122 2234 c 8
 -74 2234 -38 2275 -38 2311 c 0
 -38 2343 -63 2364 -96 2364 c 0
EndSplineSet
Substitution2: "Single Substitution lookup 5" uni0E49.low
MultipleSubs2: "Multiple Substitution lookup 4" uni0E4D uni0E49
EndChar
StartChar: uni0E4A
Encoding: 3658 3658 193
Width: 0
Flags: W
HStem: 2004 75<-302.313 -181.541> 2191 68<-295.772 -178.432>
VStem: -436 133<2080.76 2241.2> -178 74<2084.76 2189.99> 92 109<2153.01 2328.31>
AnchorPoint: "AboveMark" -112.752 1958 mark 0
Fore
-229 2191 m 0
 -273 2191 -303 2149 -303 2121 c 0
 -303 2096 -280 2079 -251 2079 c 0
 -216 2079 -178 2102 -178 2142 c 0
 -178 2172 -200 2191 -229 2191 c 0
-104 2158 m 0
 -104 2096 -156 2004 -298 2004 c 0
 -376 2004 -436 2068 -436 2157 c 0
 -436 2268 -362 2380 -200 2435 c 1
 -79 2352 l 1
 60 2442 l 1
 117 2424 201 2376 201 2285 c 0
 201 2185 137 2131 128 2122 c 1
 227 2155 335 2343 381 2461 c 1
 443 2373 l 1
 393 2235 230 2014 35 2014 c 1
 -12 2087 l 1
 25 2126 l 2
 63 2168 92 2203 92 2255 c 0
 92 2302 61 2318 37 2336 c 1
 -103 2258 l 1
 -217 2334 l 1
 -275 2312 -332 2259 -343 2192 c 1
 -340 2202 -290 2259 -217 2259 c 0
 -142 2259 -104 2211 -104 2158 c 0
EndSplineSet
Substitution2: "Single Substitution lookup 5" uni0E4A.low
MultipleSubs2: "Multiple Substitution lookup 4" uni0E4D uni0E4A
EndChar
StartChar: uni0E4B
Encoding: 3659 3659 194
Width: 0
VWidth: 2104
Flags: W
HStem: 2151 152<-184 -74 105 215>
VStem: -211 453<2151 2303>
AnchorPoint: "AboveMark" -31.752 1958 mark 0
Fore
215 2151 m 1
 78 2151 l 1
 54 2014 l 1
 -98 2014 l 1
 -74 2151 l 1
 -211 2151 l 1
 -184 2303 l 1
 -47 2303 l 1
 -23 2440 l 1
 129 2440 l 1
 105 2303 l 1
 242 2303 l 1
 215 2151 l 1
EndSplineSet
Substitution2: "Single Substitution lookup 5" uni0E4B.low
MultipleSubs2: "Multiple Substitution lookup 4" uni0E4D uni0E4B
EndChar
StartChar: uni0E4C
Encoding: 3660 3660 195
Width: 0
VWidth: 2104
Flags: W
HStem: 2014 103<-188.462 -11.9056> 2315 120<-166.074 9.47799> 2338 96<69 224.247>
VStem: -308 113<2126.65 2284.93> 14 119<2143.36 2301.32>
AnchorPoint: "AboveMark" -109.752 1958 mark 0
Fore
-308 2177 m 0xb8
 -308 2294 -190 2435 -30 2435 c 0xd8
 -6 2435 29 2434 69 2434 c 0
 184 2434 346 2441 433 2490 c 1
 445 2364 l 1
 393 2337 349 2329 307 2329 c 0
 260 2329 215 2338 166 2338 c 0
 145 2338 124 2337 100 2332 c 1
 115 2314 l 2
 128 2299 133 2285 133 2264 c 0
 133 2123 15 2014 -121 2014 c 0
 -270 2014 -308 2105 -308 2177 c 0xb8
-68 2315 m 0
 -167 2315 -195 2232 -195 2192 c 0
 -195 2146 -159 2117 -107 2117 c 0
 -50 2117 14 2155 14 2242 c 0
 14 2291 -13 2315 -68 2315 c 0
EndSplineSet
Substitution2: "Single Substitution lookup 5" uni0E4C.low
MultipleSubs2: "Multiple Substitution lookup 4" uni0E4D uni0E4C
EndChar
StartChar: uni0E4D
Encoding: 3661 3661 196
Width: 0
Flags: W
HStem: 1317 102<-235.34 -94.0813> 1575 103<-223.191 -81.2718>
VStem: -341 102<1423.74 1559.07> -77 102<1437.22 1571.42>
AnchorPoint: "AboveMark" -108.37 1756 basemark 0
AnchorPoint: "AboveBase" -11.4248 1319 mark 0
Fore
-125 1678 m 0
 -28 1678 25 1604 25 1530 c 0
 25 1415 -78 1317 -189 1317 c 0
 -284 1317 -341 1385 -341 1465 c 0
 -341 1572 -241 1678 -125 1678 c 0
-239 1482 m 0
 -239 1448 -211 1419 -172 1419 c 0
 -131 1419 -77 1459 -77 1511 c 0
 -77 1547 -104 1575 -144 1575 c 0
 -203 1575 -239 1525 -239 1482 c 0
EndSplineSet
Substitution2: "Single Substitution lookup 3" uni0E4D.high
EndChar
StartChar: uni0E4E
Encoding: 3662 3662 197
Width: 0
Flags: W
HStem: 1296 110<-143.453 13 13 97> 1538 112<-88.4189 106> 1777 111<-85.5965 132.562>
VStem: -283 126<1428.81 1517.93> -215 123<1662.73 1762.63>
AnchorPoint: "AboveBase" 76.3535 1227 mark 0
Fore
-215 1698 m 0xe8
 -215 1800 -120 1888 57 1888 c 0
 112 1888 169 1880 230 1865 c 1
 210 1753 l 1
 150 1769 95 1777 46 1777 c 0
 -29 1777 -92 1760 -92 1709 c 0xe8
 -92 1670 -43 1650 56 1650 c 2
 126 1650 l 1
 106 1538 l 1
 41 1538 l 2
 -59 1538 -157 1525 -157 1472 c 0
 -157 1445 -109 1406 38 1406 c 2
 116 1406 l 1
 97 1296 l 1
 13 1296 l 2
 -215 1296 -283 1388 -283 1450 c 0xf0
 -283 1515 -221 1578 -150 1595 c 1
 -194 1620 -215 1654 -215 1698 c 0xe8
EndSplineSet
EndChar
StartChar: uni0E4F
Encoding: 3663 3663 198
Width: 1250
Flags: W
HStem: -21 121<457.932 825.302> 258 103<577.414 800.054> 658 105<615.789 837.077> 917 123<585.069 955.618>
VStem: 179 110<266.236 556.806> 448 103<388.744 595.632> 863 102<423.152 631.946> 1125 111<398.897 749.305>
Fore
1125 582 m 0
 1125 752 999 917 779 917 c 0
 521 917 289 689 289 434 c 0
 289 262 416 100 635 100 c 0
 889 100 1125 323 1125 582 c 0
551 478 m 0
 551 424 587 361 681 361 c 0
 790 361 863 451 863 538 c 0
 863 606 816 658 733 658 c 0
 623 658 551 570 551 478 c 0
1236 609 m 0
 1236 281 943 -21 612 -21 c 0
 469 -21 356 31 273 134 c 0
 203 221 179 323 179 439 c 0
 179 483 199 706 406 885 c 0
 525 988 656 1040 799 1040 c 0
 1080 1040 1236 828 1236 609 c 0
965 560 m 0
 965 409 845 258 661 258 c 0
 523 258 448 345 448 462 c 0
 448 605 565 763 751 763 c 0
 888 763 965 675 965 560 c 0
EndSplineSet
EndChar
StartChar: uni0E50
Encoding: 3664 3664 199
Width: 1260
Flags: W
HStem: -10 173<499.865 826.178> 751 173<591.682 910.948>
VStem: 222 175<261.621 560.838> 1025 177<356.986 642.97>
Fore
397 400 m 0
 397 255 512 163 654 163 c 0
 852 163 1025 328 1025 510 c 0
 1025 638 920 751 757 751 c 0
 565 751 397 586 397 400 c 0
620 -10 m 0
 302 -10 222 260 222 348 c 0
 222 731 543 924 785 924 c 0
 1073 924 1202 720 1202 557 c 0
 1202 233 920 -10 620 -10 c 0
EndSplineSet
EndChar
StartChar: uni0E51
Encoding: 3665 3665 200
Width: 1200
Flags: W
HStem: 129 196<445.681 671.505> 470 131<586.657 718.765> 758 168<536.089 897.776>
VStem: 193 183<339.611 592.091> 441 134<335.457 458.048> 721 134<339.608 468.087> 1004 175<353.591 658.864>
Back
336.827 1807.14 m 5
 332.836 1817.41 330.894 1827.87 331 1838.5 c 4
 330.409 1893.73 349.704 1942.36 388.884 1984.39 c 132
 428.064 2026.42 483.103 2047.13 554 2046.5 c 4
 654.121 2046.5 732.277 2017.92 788.466 1960.76 c 132
 844.655 1903.6 873.5 1827.18 875 1731.5 c 4
 876.615 1639.39 846.019 1567.2 783.211 1514.92 c 132
 720.404 1462.64 638.667 1436.5 538 1436.5 c 4
 474 1436.5 411.667 1444.17 351 1459.5 c 132
 290.333 1474.83 232 1497.83 176 1528.5 c 5
 176 1358.5 l 5
 243.333 1332.5 308.667 1313 372 1300 c 132
 435.333 1287 497 1280.5 557 1280.5 c 4
 719 1280.5 841.667 1322.5 925 1406.5 c 132
 1008.33 1490.5 1050 1617.83 1050 1788.5 c 20
 1049.84 1877.67 1007.53 1969.1 923.06 2062.78 c 132
 838.594 2156.46 721.907 2204.37 573 2206.5 c 4
 438.674 2208.43 333.695 2169.21 258.062 2088.85 c 132
 182.429 2008.5 144.408 1925.38 144 1839.5 c 4
 143.484 1741.48 176.262 1663.11 242.335 1604.4 c 132
 308.408 1545.69 394.629 1515.72 501 1514.5 c 4
 569.355 1513.7 623.777 1533.5 664.266 1573.9 c 132
 704.755 1614.3 725 1662.5 725 1718.5 c 132
 725 1774.5 705 1822.5 665 1862.5 c 132
 625 1902.5 577 1922.5 521 1922.5 c 132
 465 1922.5 417 1902.5 377 1862.5 c 4
 359.994 1845.49 346.603 1827.04 336.827 1807.14 c 5
449 1718.5 m 132
 449 1738.5 456 1755.5 470 1769.5 c 132
 484 1783.5 501 1790.5 521 1790.5 c 132
 541 1790.5 558 1783.5 572 1769.5 c 132
 586 1755.5 593 1738.5 593 1718.5 c 132
 593 1698.5 586 1681.5 572 1667.5 c 132
 558 1653.5 541 1646.5 521 1646.5 c 132
 501 1646.5 484 1653.5 470 1667.5 c 132
 456 1681.5 449 1698.5 449 1718.5 c 132
180 84 m 1
 195 243 l 1
 269.667 179.667 377.667 147.333 519 146 c 0
 655.381 150.353 748.643 186.941 798.786 255.764 c 128
 848.929 324.588 873.333 389.667 872 451 c 0
 869.333 559 842.667 638 792 688 c 128
 741.333 738 664.333 764 561 766 c 0
 495.667 766 440.667 745.333 396 704 c 128
 351.333 662.667 328.667 608.667 328 542 c 0
 328 447.177 368.333 384.011 449 352.5 c 0
 495.025 334.521 535.025 339.688 569 368 c 1
 526.333 366.667 490.833 379.167 462.5 405.5 c 128
 434.167 431.833 420 466.167 420 508.5 c 128
 420 550.833 434.5 586.333 463.5 615 c 128
 492.5 643.667 534.5 658 589.5 658 c 128
 644.5 658 688.333 638.333 721 599 c 128
 753.667 559.667 769.333 510.667 768 452 c 128
 766.667 393.333 742.167 339.667 694.5 291 c 128
 646.833 242.333 588 218 518 218 c 128
 448 218 386.333 230.167 333 254.5 c 128
 279.667 278.833 235.833 316.833 201.5 368.5 c 128
 167.167 420.167 150 481.833 150 553.5 c 128
 150 625.167 169.667 689.667 209 747 c 128
 248.333 804.333 299.667 848.333 363 879 c 128
 426.333 909.667 487.167 925 545.5 925 c 128
 603.833 925 654.667 920.167 698 910.5 c 128
 741.333 900.833 784.667 884.167 828 860.5 c 128
 871.333 836.833 918.988 796.575 970.965 739.726 c 128
 1022.94 682.876 1047.62 587.634 1045 454 c 0
 1043.67 387.333 1030.5 326.833 1005.5 272.5 c 128
 980.5 218.167 949.333 174 912 140 c 128
 874.667 106 822.867 72.6667 756.6 40 c 128
 690.333 7.33334 603.177 -8.99999 495.131 -9 c 128
 387.085 -9 282.041 22 180 84 c 1
526.5 553 m 128
 514.833 541.667 509 527.667 509 511 c 128
 509 494.333 514.833 480.333 526.5 469 c 128
 538.167 457.667 552.667 452 570 452 c 128
 587.333 452 602.167 457.833 614.5 469.5 c 128
 626.833 481.167 633 495.833 633 513.5 c 128
 633 531.167 627.167 545 615.5 555 c 128
 603.833 565 589 570 571 570 c 128
 553 570 538.167 564.333 526.5 553 c 128
EndSplineSet
Fore
685 601 m 0
 555 601 441 489 441 361 c 0
 441 349 442 337 444 326 c 1
 407 333 376 389 376 449 c 0
 376 496 417 758 716 758 c 0
 944 758 1004 625 1004 522 c 0
 1004 219 680 63 480 17 c 1
 582 -100 l 1
 770 -59 903 38 1017 159 c 0
 1136 285 1179 467 1179 567 c 0
 1179 766 1031 926 769 926 c 0
 459 926 193 699 193 412 c 0
 193 294 254 129 496 129 c 0
 714 129 855 296 855 436 c 0
 855 523 791 601 685 601 c 0
635 325 m 0
 599 325 575 353 575 384 c 0
 575 430 615 470 660 470 c 0
 697 470 721 443 721 411 c 0
 721 366 680 325 635 325 c 0
EndSplineSet
EndChar
StartChar: uni0E52
Encoding: 3666 3666 201
Width: 1320
Flags: W
HStem: 0 154<319 954.618> 246 132<619.009 751.36> 522 132<666.177 761.715> 1182 20G<333.421 377.5>
VStem: 272 160<496.367 1104.83> 465 152<381.51 507.877> 764 134<392.326 518.945> 1091 175<451.234 761.018>
Fore
432 924 m 0
 432 770 404 532 319 154 c 1
 859 154 l 2
 1044 154 1091 510 1091 627 c 0
 1091 697 1074 743 1043 766 c 1
 880 669 l 1
 741 770 l 1
 698 746 668 703 653 640 c 1
 677 649 701 654 726 654 c 0
 838 654 898 569 898 487 c 0
 898 357 779 246 654 246 c 0
 588 246 465 283 465 444 c 0
 465 549 511 849 786 926 c 1
 914 813 l 1
 1071 926 l 1
 1201 904 1266 809 1266 641 c 0
 1266 594 1261 541 1251 483 c 0
 1195 161 1058 0 841 0 c 2
 112 0 l 1
 219 408 272 698 272 873 c 0
 272 966 256 1026 224 1050 c 1
 350 1202 l 1
 405 1167 432 1075 432 924 c 0
703 522 m 0
 656 522 617 480 617 436 c 0
 617 404 642 378 678 378 c 0
 725 378 764 420 764 464 c 0
 764 496 739 522 703 522 c 0
EndSplineSet
EndChar
StartChar: uni0E53
Encoding: 3667 3667 202
Width: 1400
Flags: W
HStem: -10 132<394.99 526.843> 266 132<403.426 535.704> 737 189<501.845 719.415 1018.05 1170.72>
VStem: 170 222<125.354 412.062> 538 134<134.367 263.678> 1204 181<400.113 706.551>
Fore
672 232 m 0
 672 316 610 398 501 398 c 0
 445 398 394 378 347 338 c 9
 355 392 l 18
 410 706 566 737 619 737 c 0
 682 737 739 712 739 613 c 0
 739 595 737 574 733 551 c 2
 714 440 l 9
 893 440 l 17
 912 551 l 2
 931 660 980 737 1083 737 c 0
 1131 737 1204 711 1204 560 c 0
 1204 499 1184 339 1129 210 c 0
 1102 148 1064 78 1013 0 c 1
 1203 0 l 1
 1359 262 1385 489 1385 604 c 0
 1385 693 1367 761 1331 811 c 0
 1276 887 1210 926 1132 926 c 0
 1076 926 949 919 862 786 c 1
 833 879 758 926 638 926 c 16
 542 926 450 883 361 797 c 0
 219 660 170 417 170 285 c 0
 170 151 248 -10 429 -10 c 0
 557 -10 672 105 672 232 c 0
392 181 m 0
 392 227 433 266 478 266 c 0
 515 266 538 239 538 207 c 0
 538 161 498 122 453 122 c 0
 416 122 392 149 392 181 c 0
EndSplineSet
EndChar
StartChar: uni0E54
Encoding: 3668 3668 203
Width: 1480
Flags: W
HStem: 0 170<1072.76 1230> 0 156<456.979 712.579> 534 132<759.251 890.715>
VStem: 177 184<244.305 554.046> 609 137<348.414 521.361> 893 134<402.353 530.945>
Fore
597 0 m 0x7c
 261 0 177 196 177 363 c 0
 177 623 327 745 397 797 c 0
 707 1026 1303 832 1630 1058 c 1
 1600 888 l 1
 1356 776 1064 771 928 771 c 0
 719 771 577 737 502 671 c 0
 403 584 361 493 361 374 c 0
 361 287 409 156 644 156 c 0x7c
 672 156 699 157 724 160 c 1
 648 226 609 305 609 396 c 0
 609 592 760 666 855 666 c 0
 967 666 1027 581 1027 499 c 0
 1027 386 941 303 864 273 c 1
 940 208 1072 173 1260 170 c 1
 1230 0 l 1xbc
 1111 11 1009 29 925 56 c 1
 768 6 663 0 597 0 c 0x7c
832 534 m 0
 785 534 746 492 746 448 c 0
 746 416 771 390 807 390 c 0
 854 390 893 432 893 476 c 0
 893 508 868 534 832 534 c 0
EndSplineSet
EndChar
StartChar: uni0E55
Encoding: 3669 3669 204
Width: 1480
Flags: W
HStem: 0 170<1072.76 1230> 0 156<456.979 712.579> 534 132<759.251 890.715> 771 156<983 1115.26> 1091 132<757.07 888.198>
VStem: 177 184<244.305 555.946> 609 137<348.414 521.361 949.141 1079.61> 890 135<402.353 530.945 957.952 1087.99>
Fore
1025 1054 m 0x7f
 1025 1003 1006 958 983 927 c 1
 1349 929 1530 989 1630 1058 c 1
 1600 888 l 1
 1356 776 1064 771 928 771 c 0
 719 771 577 737 502 671 c 0
 403 584 361 493 361 374 c 0
 361 287 409 156 644 156 c 0x7f
 672 156 699 157 724 160 c 1
 648 226 609 305 609 396 c 0
 609 592 760 666 855 666 c 0
 967 666 1027 581 1027 499 c 0
 1027 386 941 303 864 273 c 1
 940 208 1072 173 1260 170 c 1
 1230 0 l 1xbf
 1111 11 1009 29 925 56 c 1
 768 6 663 0 597 0 c 0
 261 0 177 196 177 363 c 0
 177 453 195 797 634 895 c 1
 618 920 610 948 610 979 c 0
 610 1116 731 1223 854 1223 c 0
 962 1223 1025 1142 1025 1054 c 0x7f
830 1091 m 0
 783 1091 744 1049 744 1005 c 0
 744 973 769 947 805 947 c 0
 858 947 890 993 890 1033 c 0
 890 1064 871 1091 830 1091 c 0
832 534 m 0
 785 534 746 492 746 448 c 0
 746 416 771 390 807 390 c 0
 854 390 893 432 893 476 c 0
 893 508 868 534 832 534 c 0
EndSplineSet
EndChar
StartChar: uni0E56
Encoding: 3670 3670 205
Width: 1220
Flags: W
HStem: -16 178<455.671 737.297> 306 132<467.212 598.307> 760 168<566.65 901.135>
VStem: 320 134<164.333 293.172> 601 133<197.552 303.711> 1023 179<325.416 645.98>
Fore
1202 534 m 0
 1202 237 974 -16 616 -16 c 0
 502 -16 422 12 376 67 c 16
 339 112 320 158 320 203 c 0
 320 316 430 438 563 438 c 0
 672 438 734 356 734 272 c 0
 734 233 723 185 694 142 c 1
 868 161 1023 290 1023 501 c 0
 1023 658 906 760 707 760 c 0
 594 760 489 741 392 702 c 1
 371 893 315 1017 226 1076 c 1
 289 1256 l 1
 407 1173 477 1050 498 885 c 1
 579 914 658 928 737 928 c 0
 1034 928 1202 761 1202 534 c 0
540 306 m 0
 493 306 454 264 454 220 c 0
 454 188 479 162 515 162 c 0
 562 162 601 204 601 248 c 0
 601 280 576 306 540 306 c 0
EndSplineSet
EndChar
StartChar: uni0E57
Encoding: 3671 3671 206
Width: 1540
Flags: W
HStem: -10 132<395.649 526.843> 266 132<403.627 535.704> 737 189<502.572 679.796 973.941 1111.7> 1196 20G<1528.5 1567.89>
VStem: 170 222<125.672 419.331> 538 134<134.367 263.678> 1144 181<396.648 706.786> 1542 145<504.452 1125.2>
Fore
1243 200 m 1
 1448 398 1515 912 1542 1216 c 9
 1687 1104 l 17
 1651 847 1594 599 1515 360 c 0
 1436 120 1312 0 1143 0 c 2
 953 0 l 1
 1045 142 1101 253 1129 422 c 0
 1139 476 1144 523 1144 562 c 0
 1144 699 1080 737 1031 737 c 0
 947 737 894 674 872 551 c 2
 853 440 l 9
 674 440 l 17
 693 551 l 2
 697 573 699 592 699 610 c 0
 699 659 692 737 589 737 c 0
 557 737 516 711 465 659 c 0
 414 606 377 517 355 392 c 10
 347 338 l 17
 394 378 445 398 501 398 c 0
 610 398 672 316 672 232 c 0
 672 105 557 -10 429 -10 c 0
 256 -10 170 135 170 292 c 0
 170 395 211 652 361 797 c 0
 450 883 535 926 618 926 c 8
 725 926 793 879 822 786 c 1
 907 916 1024 926 1082 926 c 0
 1153 926 1216 887 1271 811 c 0
 1307 761 1325 693 1325 604 c 0
 1325 465 1281 294 1243 200 c 1
478 266 m 0
 435 266 392 229 392 181 c 0
 392 149 416 122 453 122 c 0
 498 122 538 161 538 207 c 0
 538 239 515 266 478 266 c 0
EndSplineSet
EndChar
StartChar: uni0E58
Encoding: 3672 3672 207
Width: 1500
Flags: W
HStem: 0 158<857.204 956> 368 132<1059.89 1190.57>
VStem: 196 184<275.094 553.798> 913 134<226.492 355.003> 1193 134<257.668 365.104>
Fore
1156 500 m 0
 1264 500 1327 421 1327 331 c 0
 1327 290 1316 200 1210 96 c 0
 1145 32 1061 0 960 0 c 0
 807 0 706 79 656 236 c 9
 552 0 l 17
 358 0 196 118 196 355 c 0
 196 566 284 699 417 797 c 0
 734 1031 1319 829 1650 1058 c 1
 1620 888 l 1
 1367.12 772.309 1059 771 919 771 c 0
 729 771 597 737 522 671 c 0
 426 586 380 493 380 374 c 0
 380 342 383 243 470 195 c 1
 606 497 l 9
 770 470 l 17
 800 284 852 158 925 158 c 0
 935 158 945 154 956 154 c 1
 927 186 913 223 913 265 c 0
 913 377 1022 500 1156 500 c 0
1133 368 m 0
 1090 368 1047 331 1047 283 c 0
 1047 251 1070 224 1107 224 c 0
 1150 224 1193 261 1193 309 c 0
 1193 341 1170 368 1133 368 c 0
EndSplineSet
EndChar
StartChar: uni0E59
Encoding: 3673 3673 208
Width: 1480
Flags: W
HStem: 0 161<450.98 681.374> 305 132<566.463 698.059> 765 161<500.812 739.007 1053.73 1212.36>
VStem: 175 167<221.7 590.235> 427 128<179.44 292.147> 701 134<174.774 302.678>
Fore
1249 608 m 1
 1239 739 1171 765 1118 765 c 0
 1089 765 1041 752 970 667 c 1
 1067 484 1140 222 1190 0 c 9
 1026 0 l 17
 981 187 927 363 862 526 c 0
 773 754 679 771 633 771 c 0
 487 771 342 619 342 391 c 0
 342 291 376 208 429 177 c 1
 428 187 427 198 427 208 c 0
 427 346 559 437 661 437 c 0
 664 437 l 0
 773 437 835 355 835 271 c 0
 835 118 680 0 502 0 c 0
 286 0 175 144 175 385 c 0
 175 596 314 924 666 926 c 0
 748 927 825 880 896 786 c 1
 988 908 1071 926 1136 926 c 256
 1305 926 1339 827 1347 807 c 1
 1449 866 1526 962 1585 1072 c 1
 1642 944 l 1
 1553 788 1424 673 1249 608 c 1
641 305 m 0
 598 305 555 268 555 220 c 0
 555 188 578 161 615 161 c 0
 658 161 701 198 701 246 c 0
 701 278 678 305 641 305 c 0
EndSplineSet
EndChar
StartChar: uni0E5A
Encoding: 3674 3674 209
Width: 1400
Flags: W
HStem: 0 21G<810 995.528 1075 1259.53> 736 190<412.713 542.336> 1070 132<419.339 551.489>
VStem: 273 135<929.077 1056.14> 553 135<936.521 1068.02>
Fore
517 1202 m 0
 626 1202 688 1120 688 1036 c 0
 688 977 665 926 634 889 c 1
 814 924 941 1065 1028 1202 c 1
 1173 1026 l 1
 992 0 l 1
 810 0 l 1
 970 909 l 17
 842 788 690 736 526 736 c 2
 524 736 l 2
 323 736 273 881 273 952 c 0
 273 1102 401 1202 517 1202 c 0
494 1070 m 0
 451 1070 408 1033 408 985 c 0
 408 953 431 926 468 926 c 0
 522 926 553 972 553 1013 c 0
 553 1043 535 1070 494 1070 c 0
1256 0 m 1
 1075 0 l 1
 1265 1076 l 1
 1414 895 l 1
 1256 0 l 1
EndSplineSet
EndChar
StartChar: uni0E5B
Encoding: 3675 3675 210
Width: 2370
Flags: W
HStem: 0 176<405.033 736.631> 248 138<2117.32 2372> 301 131<611.273 741.642> 577 131<621.609 753.952> 789 180<483.897 753.407>
VStem: 139 173<259.949 601.148> 475 133<434.338 563.471> 756 221<498.388 729.535>
Back
1776 340 m 0
 1765.33 340 1751.33 318.333 1734 275 c 0
 1707.33 208.333 1688.33 165.667 1677 147 c 0
 1653.67 111.667 1628 94 1600 94 c 128
 1572 94 1548.67 117.667 1530 165 c 0
 1523.33 183 1515.83 206 1507.5 234 c 128
 1499.17 262 1492.67 283 1488 297 c 0
 1484 309.667 1478 321.833 1470 333.5 c 128
 1462 345.167 1455.33 351 1450 351 c 0
 1440 351 1429 332.333 1417 295 c 0
 1404 258 1404 258 1390.5 218.5 c 128
 1381.5 192.167 1376 176.333 1374 171 c 0
 1354 115.667 1326.67 88 1292 88 c 0
 1268 88 1249 94.5 1235 107.5 c 128
 1221 120.5 1208 141.333 1196 170 c 0
 1192.67 178 1180 226.333 1158 315 c 0
 1157.33 317 1155.67 327.5 1153 346.5 c 128
 1150.33 365.5 1147.67 375 1145 375 c 0
 1139 375 1134 371.667 1130 365 c 128
 1126 358.333 1119.67 344 1111 322 c 0
 1093.67 278.667 1077.5 244.5 1062.5 219.5 c 128
 1047.5 194.5 1028 167.333 1004 138 c 0
 961.333 86 907.833 48.3333 843.5 25 c 128
 779.167 1.66667 699.333 -10 604 -10 c 0
 482 -10 374 36.6667 280 130 c 0
 230.667 178.667 193.833 229.667 169.5 283 c 128
 145.167 336.333 133 403 133 483 c 0
 133 602.333 160 703.667 214 787 c 0
 254.667 845.667 307.5 893.5 372.5 930.5 c 128
 437.5 967.5 506 986 578 986 c 0
 722 986 826.667 940 892 848 c 0
 938 782.667 961 703.667 961 611 c 0
 961 569 952.167 526.5 934.5 483.5 c 128
 916.833 440.5 897 408.667 875 388 c 0
 794.333 310.667 706.667 272 612 272 c 0
 538 272 478.667 297.333 434 348 c 0
 416 368.667 402.5 389.833 393.5 411.5 c 128
 384.5 433.167 380 462.667 380 500 c 0
 380 559.333 399.333 614.667 438 666 c 0
 452 685.333 470.333 701.333 493 714 c 128
 515.667 726.667 538.333 733 561 733 c 0
 607.667 733 645.167 720.167 673.5 694.5 c 128
 701.833 668.833 716 637.333 716 600 c 0
 716 556 701.833 522 673.5 498 c 128
 645.167 474 615.333 462 584 462 c 0
 576.667 462 567.5 463.5 556.5 466.5 c 2
 540 471 l 1
 550 443.667 583.333 430 640 430 c 0
 663.333 430 684.167 434.667 702.5 444 c 128
 720.833 453.333 733 461.667 739 469 c 128
 745 476.333 753.333 487.333 764 502 c 0
 774 516 781.833 535.5 787.5 560.5 c 128
 793.167 585.5 796 607.333 796 626 c 0
 796 674.667 777.333 718.333 740 757 c 0
 724.667 772.333 699.833 785.333 665.5 796 c 128
 631.167 806.667 600 812 572 812 c 0
 533.333 812 496.5 804.333 461.5 789 c 128
 426.5 773.667 398 754 376 730 c 0
 316.667 666.667 287 584.333 287 483 c 0
 287 387 314.667 310.667 370 254 c 0
 400.667 222 436.833 196.333 478.5 177 c 128
 520.167 157.667 563.333 148 608 148 c 0
 672 148 733.667 160.5 793 185.5 c 128
 852.333 210.5 896.333 242.667 925 282 c 0
 945 309.333 960.667 332.333 972 351 c 128
 983.333 369.667 993.5 389 1002.5 409 c 128
 1016 439 1016 439 1039 489 c 0
 1049.67 511 1059 531.333 1067 550 c 128
 1075 568.667 1086.17 584.167 1100.5 596.5 c 128
 1114.83 608.833 1131.67 615 1151 615 c 0
 1176.33 615 1196.83 606.167 1212.5 588.5 c 128
 1228.17 570.833 1241 544 1251 508 c 0
 1254.33 495.333 1257.67 475 1261 447 c 128
 1264.33 419 1268.17 397 1272.5 381 c 128
 1276.83 365 1283.33 357 1292 357 c 0
 1308.67 357 1322.67 376.667 1334 416 c 0
 1338.67 431.333 1342.83 450.333 1346.5 473 c 128
 1350.17 495.667 1353 510.667 1355 518 c 0
 1369 582.667 1403 615 1457 615 c 0
 1476.33 615 1494 606.833 1510 590.5 c 128
 1526 574.167 1537.33 552 1544 524 c 0
 1548 506 1548 506 1554 478.5 c 128
 1558 460.167 1561.83 444.333 1565.5 431 c 128
 1569.17 417.667 1573.33 404 1578 390 c 0
 1582 378.667 1587.5 368.833 1594.5 360.5 c 128
 1601.5 352.167 1608.67 348 1616 348 c 0
 1631.33 348 1645 362.667 1657 392 c 0
 1672.33 432.667 1683 456.333 1689 463 c 0
 1701.67 479.667 1713 491.167 1723 497.5 c 128
 1733 503.833 1745.33 507 1760 507 c 0
 1771.33 507 1783.17 502.167 1795.5 492.5 c 128
 1807.83 482.833 1818 471 1826 457 c 0
 1828.67 452.333 1832.33 445.333 1837 436 c 128
 1841.67 426.667 1846.33 418.333 1851 411 c 128
 1855.67 403.667 1861 396.333 1867 389 c 0
 1902.33 347 1939.67 326 1979 326 c 2
 2358 326 l 1
 2358 218 l 1
 1973 218 l 2
 1940.33 218 1911 225 1885 239 c 128
 1859 253 1832 276.667 1804 310 c 0
 1787.33 330 1778 340 1776 340 c 0
632 605 m 0
 632 620.333 627.167 633 617.5 643 c 128
 607.833 653 594.667 658 578 658 c 0
 562.667 658 549.833 652.833 539.5 642.5 c 128
 529.167 632.167 524 618.667 524 602 c 0
 524 586.667 529.167 574.167 539.5 564.5 c 128
 549.833 554.833 563.333 550 580 550 c 0
 595.333 550 607.833 555 617.5 565 c 128
 627.167 575 632 588.333 632 605 c 0
EndSplineSet
Fore
627 789 m 0xbf
 501 789 312 688 312 406 c 0
 312 287 369 179 575 176 c 0
 818 173 1005 326 1136 635 c 17
 1274 564 l 1
 1286 356 l 1
 1289 356 l 0
 1352 356 1423 449 1501 635 c 9
 1639 564 l 9
 1654 356 l 1
 1657 356 l 0
 1714 356 1781 449 1859 635 c 9
 1997 564 l 1
 2016 446 2149 387 2396 386 c 1
 2372 248 l 1xdf
 2350 248 2328 249 2307 249 c 0
 2029 249 1888 304 1883 393 c 1
 1804 251 1685 180 1525 180 c 1
 1525 393 l 17
 1456 253 1334 182 1157 180 c 1
 1160 393 l 17
 984 161 772 0 513 0 c 0
 263 0 139 169 139 368 c 0
 139 727 419 969 674 969 c 0
 850 969 977 865 977 687 c 0
 977 465 809 301 650 301 c 0
 528 301 475 389 475 468 c 0
 475 590 585 708 717 708 c 0
 746 708 768 703 788 696 c 1
 779 728 730 789 627 789 c 0xbf
756 518 m 0
 756 550 731 577 695 577 c 0
 653 577 608 539 608 492 c 0
 608 465 628 432 670 432 c 0xbf
 715 432 756 474 756 518 c 0
EndSplineSet
EndChar
StartChar: afii301
Encoding: 8205 8205 212
Width: 0
Flags: W
VStem: -84 544<-275 1364>
Fore
-12 -275 m 1
 -84 -275 l 1
 160 1114 l 1
 2 978 l 1
 -38 1027 l 1
 163 1196 l 1
 22 1364 l 1
 79 1413 l 1
 219 1242 l 1
 419 1413 l 1
 460 1364 l 1
 259 1196 l 1
 400 1027 l 1
 342 978 l 1
 232 1114 l 1
 -12 -275 l 1
EndSplineSet
EndChar
StartChar: afii299
Encoding: 8206 8206 213
Width: 0
Flags: W
HStem: 1163 71<240 506>
VStem: -84 725<-275 1198>
Fore
641 1198 m 1
 387 984 l 1
 346 1033 l 1
 506 1163 l 1
 240 1163 l 1
 -13 -275 l 1
 -84 -275 l 1
 182 1234 l 1
 519 1234 l 1
 405 1364 l 1
 462 1413 l 1
 641 1198 l 1
EndSplineSet
EndChar
StartChar: afii300
Encoding: 8207 8207 214
Width: 0
Flags: W
HStem: 1163 71<-84 169>
VStem: -220 473<1198 1234>
Fore
-13 -275 m 1
 -84 -275 l 1
 169 1163 l 1
 -97 1163 l 1
 17 1033 l 1
 -40 984 l 1
 -220 1198 l 1
 35 1413 l 1
 76 1364 l 1
 -84 1234 l 1
 253 1234 l 1
 -13 -275 l 1
EndSplineSet
EndChar
StartChar: uni2010
Encoding: 8208 8208 215
Width: 973
Flags: W
HStem: 580 165<321 917>
VStem: 292 654<580 745>
Fore
321 745 m 1
 946 745 l 1
 917 580 l 1
 292 580 l 1
 321 745 l 1
EndSplineSet
EndChar
StartChar: endash
Encoding: 8211 8211 216
Width: 1024
Flags: W
HStem: 489 144<112 1110>
Fore
112 633 m 1
 1136 633 l 1
 1110 489 l 1
 86 489 l 1
 112 633 l 1
EndSplineSet
EndChar
StartChar: emdash
Encoding: 8212 8212 217
Width: 2048
Flags: W
HStem: 489 144<112 2134>
Fore
112 633 m 1
 2160 633 l 1
 2134 489 l 1
 86 489 l 1
 112 633 l 1
EndSplineSet
EndChar
StartChar: afii00208
Encoding: 8213 8213 218
Width: 1862
Flags: W
HStem: 572 160<239 1853>
Fore
1853 572 m 1
 211 572 l 1
 239 732 l 1
 1881 732 l 1
 1853 572 l 1
EndSplineSet
EndChar
StartChar: underscoredbl
Encoding: 8215 8215 219
Width: 1118
Flags: W
HStem: -423 130<-68 1059> -212 130<-30 1097>
Fore
1097 -212 m 1
 -53 -212 l 1
 -30 -82 l 1
 1120 -82 l 1
 1097 -212 l 1
1059 -423 m 1
 -91 -423 l 1
 -68 -293 l 1
 1082 -293 l 1
 1059 -423 l 1
EndSplineSet
EndChar
StartChar: quoteleft
Encoding: 8216 8216 220
Width: 651
Flags: W
HStem: 1001 492<562 601>
VStem: 351 379<1001 1493>
Fore
562 1001 m 1
 351 1001 l 1
 381 1174 l 1
 601 1493 l 1
 730 1493 l 1
 592 1174 l 1
 562 1001 l 1
EndSplineSet
EndChar
StartChar: quoteright
Encoding: 8217 8217 221
Width: 651
Flags: W
HStem: 1022 471<487 523>
VStem: 358 376<1022 1493>
Fore
523 1493 m 1
 734 1493 l 1
 707 1341 l 1
 487 1022 l 1
 358 1022 l 1
 496 1341 l 1
 523 1493 l 1
EndSplineSet
EndChar
StartChar: quotesinglbase
Encoding: 8218 8218 222
Width: 651
Flags: W
HStem: -238 492<261 301>
VStem: 132 380<-238 254>
Fore
301 254 m 1
 512 254 l 1
 481 82 l 1
 261 -238 l 1
 132 -238 l 1
 270 82 l 1
 301 254 l 1
EndSplineSet
EndChar
StartChar: quotereversed
Encoding: 8219 8219 223
Width: 432
Flags: W
HStem: 997 559<354 609>
VStem: 112 497<997 1556>
Fore
609 1556 m 1
 354 997 l 1
 112 997 l 1
 471 1556 l 1
 609 1556 l 1
EndSplineSet
EndChar
StartChar: quotedblleft
Encoding: 8220 8220 224
Width: 1061
Flags: W
HStem: 1001 492<562 601>
VStem: 351 789<1001 1493>
Fore
562 1001 m 1
 351 1001 l 1
 381 1174 l 1
 601 1493 l 1
 730 1493 l 1
 592 1174 l 1
 562 1001 l 1
972 1001 m 1
 761 1001 l 1
 791 1174 l 1
 1011 1493 l 1
 1140 1493 l 1
 1002 1174 l 1
 972 1001 l 1
EndSplineSet
EndChar
StartChar: quotedblright
Encoding: 8221 8221 225
Width: 1061
Flags: W
HStem: 1001 492<480 519>
VStem: 351 789<1001 1493>
Fore
519 1493 m 1
 730 1493 l 1
 700 1321 l 1
 480 1001 l 1
 351 1001 l 1
 489 1321 l 1
 519 1493 l 1
929 1493 m 1
 1140 1493 l 1
 1110 1321 l 1
 890 1001 l 1
 761 1001 l 1
 899 1321 l 1
 929 1493 l 1
EndSplineSet
EndChar
StartChar: quotedblbase
Encoding: 8222 8222 226
Width: 1061
Flags: W
HStem: -238 492<671 711>
VStem: 132 790<-238 254>
Fore
711 254 m 1
 922 254 l 1
 891 82 l 1
 671 -238 l 1
 542 -238 l 1
 680 82 l 1
 711 254 l 1
301 254 m 1
 512 254 l 1
 481 82 l 1
 261 -238 l 1
 132 -238 l 1
 270 82 l 1
 301 254 l 1
EndSplineSet
EndChar
StartChar: dagger
Encoding: 8224 8224 227
Width: 1024
Flags: W
HStem: 920 153<246 586 789 1129> 1473 20G<683.476 863>
VStem: 219 937<920 1073>
Fore
687 1493 m 1
 863 1493 l 1
 789 1073 l 1
 1156 1073 l 1
 1129 920 l 1
 762 920 l 1
 565 -197 l 1
 389 -197 l 1
 586 920 l 1
 219 920 l 1
 246 1073 l 1
 613 1073 l 1
 687 1493 l 1
EndSplineSet
EndChar
StartChar: daggerdbl
Encoding: 8225 8225 228
Width: 1024
Flags: W
HStem: 223 154<123 463 666 1006> 920 153<246 586 789 1129> 1473 20G<683.476 863>
Fore
1006 223 m 1
 639 223 l 1
 565 -197 l 1
 389 -197 l 1
 463 223 l 1
 96 223 l 1
 123 377 l 1
 490 377 l 1
 586 920 l 1
 219 920 l 1
 246 1073 l 1
 613 1073 l 1
 687 1493 l 1
 863 1493 l 1
 789 1073 l 1
 1156 1073 l 1
 1129 920 l 1
 762 920 l 1
 666 377 l 1
 1033 377 l 1
 1006 223 l 1
EndSplineSet
EndChar
StartChar: bullet
Encoding: 8226 8226 229
Width: 1208
Flags: W
Fore
436 701 m 0
 436 902 606 1057 792 1057 c 0
 952 1057 1040 942 1040 818 c 0
 1040 625 868 465 692 465 c 0
 686 465 l 256
 513 465 436 595 436 701 c 0
EndSplineSet
EndChar
StartChar: ellipsis
Encoding: 8230 8230 230
Width: 2048
Flags: W
HStem: 0 254<281 449 963 1130 1644 1812>
Fore
963 254 m 1
 1175 254 l 1
 1130 0 l 1
 918 0 l 1
 963 254 l 1
1644 254 m 1
 1857 254 l 1
 1812 0 l 1
 1599 0 l 1
 1644 254 l 1
281 254 m 1
 494 254 l 1
 449 0 l 1
 236 0 l 1
 281 254 l 1
EndSplineSet
EndChar
StartChar: perthousand
Encoding: 8240 8240 231
Width: 2748
Flags: W
HStem: -29 127<1405.05 1621.74 2207.66 2424.68> 657 127<1492.1 1705.2 2292.22 2507.77> 707 127<503.024 725.112> 1393 127<584.389 803.783>
VStem: 299 160<875.749 1229.21> 848 161<993.382 1348.79> 1199 162<141.922 496.005> 1749 160<260.084 612.947> 2002 161<141.956 496.524> 2552 160<258.175 613.017>
Fore
2552 472 m 0xdfc0
 2552 582 2503 657 2408 657 c 0
 2241 657 2163 443 2163 287 c 0
 2163 200 2192 98 2309 98 c 0
 2489 98 2552 341 2552 472 c 0xdfc0
2002 272 m 0
 2002 466 2114 784 2430 784 c 0
 2656 784 2712 614 2712 485 c 0
 2712 291 2604 -29 2287 -29 c 0
 2059 -29 2002 139 2002 272 c 0
299 1005 m 0
 299 1265 457 1520 725 1520 c 256
 952 1520 1009 1349 1009 1222 c 0
 1009 1017 894 707 582 707 c 256xbfc0
 355 707 299 875 299 1005 c 0
1628 1520 m 1
 1788 1520 l 1
 581 -29 l 1
 421 -29 l 1
 1628 1520 l 1
848 1206 m 0
 848 1290 819 1393 703 1393 c 0
 508 1393 459 1121 459 1024 c 0
 459 934 487 834 604 834 c 256
 799 834 848 1103 848 1206 c 0
1199 272 m 0
 1199 466 1311 784 1627 784 c 0xdfc0
 1853 784 1909 614 1909 485 c 0
 1909 291 1801 -29 1484 -29 c 0
 1256 -29 1199 139 1199 272 c 0
1749 473 m 0
 1749 554 1720 657 1605 657 c 0
 1438 657 1361 441 1361 286 c 0
 1361 200 1390 98 1506 98 c 0
 1700 98 1749 369 1749 473 c 0
EndSplineSet
EndChar
StartChar: minute
Encoding: 8242 8242 232
Width: 602
Flags: W
HStem: 870 619<426 834>
VStem: 290 544<870 1489>
Fore
834 1489 m 1
 426 870 l 1
 290 870 l 1
 594 1489 l 1
 834 1489 l 1
EndSplineSet
EndChar
StartChar: second
Encoding: 8243 8243 233
Width: 972
Flags: W
HStem: 870 619<422 830>
VStem: 290 934<870 1489>
Fore
830 1489 m 1
 422 870 l 1
 290 870 l 1
 594 1489 l 1
 830 1489 l 1
1224 1489 m 1
 816 870 l 1
 684 870 l 1
 988 1489 l 1
 1224 1489 l 1
EndSplineSet
EndChar
StartChar: guilsinglleft
Encoding: 8249 8249 234
Width: 819
Flags: W
HStem: 141 918<652 814>
VStem: 257 557<559 1059>
Fore
814 1059 m 1
 780 868 l 1
 432 600 l 1
 686 332 l 1
 652 141 l 1
 257 559 l 1
 271 641 l 1
 814 1059 l 1
EndSplineSet
EndChar
StartChar: guilsinglright
Encoding: 8250 8250 235
Width: 819
Flags: W
HStem: 141 918<218 380>
VStem: 218 557<141 641>
Fore
380 1059 m 1
 775 641 l 1
 761 559 l 1
 218 141 l 1
 252 332 l 1
 600 600 l 1
 346 868 l 1
 380 1059 l 1
EndSplineSet
EndChar
StartChar: uni203E
Encoding: 8254 8254 237
Width: 1118
Flags: W
HStem: 1658 131<267 1410>
Fore
1410 1658 m 1
 244 1658 l 1
 267 1789 l 1
 1433 1789 l 1
 1410 1658 l 1
EndSplineSet
EndChar
StartChar: fraction
Encoding: 8260 8260 238
Width: 886
Flags: W
HStem: 0 21G<-29 150.009>
Fore
1179 1489 m 1
 136 0 l 1
 -29 0 l 1
 1014 1489 l 1
 1179 1489 l 1
EndSplineSet
EndChar
StartChar: uni207F
Encoding: 8319 8319 239
Width: 1010
Flags: W
HStem: 1368 151<729.879 906.55>
VStem: 928 177<1178.68 1343.22>
Fore
854 1519 m 0
 1055 1519 1105 1388 1105 1269 c 0
 1105 1236 1102 1201 1095 1163 c 2
 990 566 l 1
 818 566 l 1
 910 1088 l 2
 920 1148 928 1209 928 1240 c 0
 928 1334 882 1368 782 1368 c 0
 729 1368 656 1352 517 1254 c 1
 396 566 l 1
 225 566 l 1
 387 1488 l 1
 558 1488 l 1
 541 1388 l 1
 705 1511 791 1519 854 1519 c 0
EndSplineSet
EndChar
StartChar: dottedcircle
Encoding: 9676 9676 240
Width: 1255
Flags: W
HStem: 7 121<568.292 677.918> 68 121<873.014 983.206> 98 121<319.207 430.292> 234 121<1068.21 1178.66> 249 121<202.338 313.206> 438 121<1179.21 1290.29> 445 121<116.684 226.771> 679 121<172.142 283.094 1208.18 1318.09> 868 121<312.014 422.206> 891 121<1138.18 1249.39> 1011 121<526.207 636.247> 1034 121<975.207 1086.08> 1079 121<764.207 874.247>
VStem: 110 123<450.848 559.781> 166 123<684.524 794.279> 196 123<254.346 364.139> 306 122<873.015 983.872> 313 123<104.097 213.139> 520 122<1016.35 1126.01> 562 123<13.6871 100.828> 758 122<1084.35 1194.01> 867 122<73.0154 183.872> 969 123<1040.62 1149.14> 1062 123<239.861 349.139> 1132 123<897.097 1006.45> 1173 123<444.097 553.139> 1202 122<684.359 794.708>
Fore
356 868 m 0x018080
 321 868 306 891 306 917 c 0
 306 950 332 989 377 989 c 0
 412 989 428 966 428 940 c 0
 428 906 402 868 356 868 c 0x018080
570 1011 m 0x012020
 535 1011 520 1033 520 1059 c 0
 520 1092 547 1132 592 1132 c 0
 626 1132 642 1109 642 1083 c 0
 642 1049 616 1011 570 1011 c 0x012020
808 1079 m 0x010808
 773 1079 758 1101 758 1127 c 0
 758 1160 785 1200 830 1200 c 0
 864 1200 880 1177 880 1151 c 0
 880 1117 854 1079 808 1079 c 0x010808
110 492 m 0x0304
 110 530 142 566 182 566 c 0
 217 566 233 543 233 517 c 0
 233 484 206 445 160 445 c 0
 130 445 110 464 110 492 c 0x0304
247 249 m 0x0901
 212 249 196 271 196 297 c 0
 196 331 223 370 268 370 c 0
 303 370 319 347 319 321 c 0
 319 287 293 249 247 249 c 0x0901
385 219 m 0x210040
 418 219 436 197 436 169 c 0
 436 133 404 98 363 98 c 0
 328 98 313 121 313 146 c 0
 313 180 340 219 385 219 c 0x210040
634 128 m 0x810010
 671 128 685 98 685 79 c 0
 685 46 653 7 612 7 c 0
 578 7 562 30 562 55 c 0
 562 89 589 128 634 128 c 0x810010
917 68 m 0x410004
 882 68 867 91 867 117 c 0
 867 150 893 189 938 189 c 0
 973 189 989 166 989 140 c 0
 989 106 963 68 917 68 c 0x410004
1112 234 m 0x110001
 1077 234 1062 257 1062 282 c 0
 1062 316 1089 355 1134 355 c 0
 1169 355 1185 333 1185 307 c 0
 1185 273 1158 234 1112 234 c 0x110001
1245 559 m 0x05000040
 1278 559 1296 537 1296 509 c 0
 1296 473 1264 438 1223 438 c 0
 1188 438 1173 461 1173 486 c 0
 1173 520 1200 559 1245 559 c 0x05000040
1324 752 m 0x01000020
 1324 709 1290 679 1252 679 c 0
 1217 679 1202 701 1202 727 c 0
 1202 761 1229 800 1273 800 c 0
 1302 800 1324 781 1324 752 c 0x01000020
1255 962 m 0x01400080
 1255 921 1218 891 1182 891 c 0
 1147 891 1132 914 1132 939 c 0
 1132 973 1159 1012 1203 1012 c 0
 1238 1012 1255 986 1255 962 c 0x01400080
1092 1105 m 0x011002
 1092 1068 1058 1034 1019 1034 c 0
 984 1034 969 1057 969 1082 c 0
 969 1116 996 1155 1041 1155 c 0
 1072 1155 1092 1135 1092 1105 c 0x011002
166 728 m 0x0102
 166 762 195 800 238 800 c 0
 274 800 289 774 289 752 c 0
 289 709 255 679 217 679 c 0
 186 679 166 699 166 728 c 0x0102
EndSplineSet
EndChar
StartChar: uni0E10.descless
Encoding: 63232 63232 241
Width: 1170
Flags: W
HStem: 0 21G<683 876.039> 269 126<400.358 538.453> 544 125<414.446 549.055> 1062 160<611.035 1014.67>
VStem: 269 130<397.162 529.685> 899 201<591.421 745>
Back
949.922 658.918 m 10
 949.922 0 l 1
 764 0 l 1
 747.273 40.8519 728.542 79.8772 707.805 117.076 c 128
 687.068 154.275 668.583 185.034 652.35 209.353 c 128
 628 245.833 628 245.833 559.5 344.635 c 1
 549.239 322.296 528.307 303.711 496.705 288.88 c 128
 465.104 274.05 432.369 266.635 398.5 266.635 c 0
 347.445 266.635 302.015 285.189 262.209 322.296 c 128
 222.403 359.404 202.5 406.517 202.5 463.635 c 0
 202.5 522.689 221.983 571.286 260.95 609.426 c 128
 299.917 647.565 351.433 666.635 415.5 666.635 c 0
 440.817 666.635 465.582 662.775 489.797 655.054 c 128
 514.012 647.333 535.725 637.602 554.938 625.86 c 128
 574.151 614.118 593.303 599.042 612.392 580.631 c 128
 631.481 562.22 647.814 544.651 661.389 527.923 c 128
 674.964 511.196 689.017 491.505 703.546 468.85 c 128
 718.075 446.195 729.591 427.233 738.094 411.966 c 128
 750.847 389.064 750.847 389.064 766.5 358.85 c 1
 766.5 594.917 l 2
 766.5 625.1 754.897 652.519 731.692 677.176 c 128
 708.487 701.833 677.768 722.009 639.537 737.704 c 128
 601.306 753.399 557.606 767.697 508.438 780.597 c 128
 459.269 793.496 408.722 803.281 356.796 809.95 c 128
 278.907 819.953 278.907 819.953 203.016 829.858 c 128
 152.422 836.461 106.583 841.314 65.5 844.417 c 1
 65.5 1047.42 l 1
 128.094 1091.74 182.21 1125.6 227.848 1149 c 128
 273.486 1172.39 326.032 1190.73 385.485 1204.01 c 128
 444.938 1217.28 513.943 1223.92 592.5 1223.92 c 0
 683.248 1223.92 762.748 1208.64 831 1178.08 c 0
 873.221 1165.22 873.221 1165.22 891.783 1159.49 c 128
 904.158 1155.67 918.268 1152.21 934.113 1149.1 c 128
 949.958 1145.99 959.955 1144.2 964.104 1143.74 c 128
 968.253 1143.28 975.978 1144.04 987.279 1146.01 c 128
 998.58 1147.98 1006.08 1150.09 1009.79 1152.36 c 128
 1013.5 1154.63 1022.62 1158.97 1037.16 1165.38 c 128
 1058.97 1175.01 1058.97 1175.01 1075.5 1181.92 c 1
 1075.5 997.917 l 1
 980.16 964.558 876.917 973.225 765.77 1023.92 c 0
 717.515 1050.59 659.759 1063.92 592.5 1063.92 c 0
 537.487 1063.92 482.167 1056.22 426.54 1040.83 c 128
 370.913 1025.43 320.567 1004.56 275.5 978.207 c 1
 305 975.712 337.246 971.937 372.237 966.88 c 128
 407.228 961.823 443.296 956.918 480.441 952.163 c 128
 517.586 947.408 554.973 940.577 592.602 931.668 c 128
 630.231 922.759 666.434 913.205 701.211 903.006 c 128
 735.987 892.807 768.502 879.734 798.757 863.789 c 128
 829.012 847.843 855.336 830.456 877.731 811.628 c 128
 900.126 792.799 917.756 770.301 930.623 744.133 c 128
 943.489 717.966 949.922 689.561 949.922 658.918 c 10
403.5 392.635 m 24
 424.454 392.635 442.526 399.69 457.716 413.801 c 128
 472.905 427.912 480.5 445.19 480.5 465.635 c 0
 480.5 486.593 473.073 504.499 458.219 519.354 c 128
 443.365 534.208 425.459 541.635 404.5 541.635 c 128
 383.541 541.635 365.635 534.208 350.781 519.354 c 128
 335.927 504.499 328.5 486.593 328.5 465.635 c 0
 328.5 445.35 335.865 428.113 350.596 413.922 c 128
 365.327 399.731 382.961 392.635 403.5 392.635 c 24
EndSplineSet
Fore
552 481 m 0
 552 511 530 544 488 544 c 0
 433 544 399 495 399 453 c 0
 399 422 418 395 461 395 c 0
 510 395 552 438 552 481 c 0
1101 887 m 17
 1099 924 1066 1062 838 1062 c 0
 691 1062 550 1003 457 940 c 9
 867 878 l 18
 1022 854 1100 794 1100 696 c 0
 1100 669 1094 640 1083 608 c 10
 869 0 l 1
 683 0 l 1
 683 6 l 0
 683 49 671 222 619 348 c 1
 615 341 561 269 441 269 c 8
 325 269 269 343 269 429 c 0
 269 550 363 669 524 669 c 0
 705 669 789 478 794 286 c 1
 890 566 l 2
 896 584 899 600 899 616 c 0
 899 672 856 708 769 722 c 10
 275 802 l 17
 318 1046 l 17
 417 1117 597 1222 877 1222 c 0
 1088 1222 1229 1128 1273 999 c 9
 1101 887 l 17
EndSplineSet
EndChar
StartChar: uni0E48.low
Encoding: 63242 63242 251
Width: 0
Flags: W
VStem: -115 244<1450 1864>
AnchorPoint: "AboveBase" 43.2783 1340 mark 0
Fore
-42 1864 m 25
 129 1864 l 1
 56 1450 l 1
 -115 1450 l 1
 -42 1864 l 25
EndSplineSet
EndChar
StartChar: uni0E49.low
Encoding: 63243 63243 252
Width: 0
Flags: W
HStem: 1344 86<-540 -429.601> 1518 73<-467.788 -383.165> 1737 81<-459.701 -315.346>
VStem: -556 85<1593.81 1723.88> -312 97<1624.76 1734.03>
AnchorPoint: "AboveBase" -47.7217 1340 mark 0
Fore
-556 1641 m 0
 -556 1736 -468 1818 -367 1818 c 0
 -246 1818 -215 1751 -215 1692 c 0
 -215 1657 -235 1549 -298 1481 c 1
 -158 1503 -2 1539 211 1812 c 1
 239 1668 l 1
 -49 1356 -330 1344 -512 1344 c 2
 -555 1344 l 1
 -540 1430 l 1
 -448 1430 -396 1500 -373 1525 c 1
 -384 1520 -406 1518 -436 1518 c 0
 -506 1518 -556 1568 -556 1641 c 0
-378 1737 m 0
 -424 1737 -471 1703 -471 1653 c 0
 -471 1619 -445 1591 -406 1591 c 8
 -362 1591 -312 1627 -312 1677 c 0
 -312 1714 -341 1737 -378 1737 c 0
EndSplineSet
EndChar
StartChar: uni0E4A.low
Encoding: 63244 63244 253
Width: 0
Flags: W
HStem: 1332 85<-496.524 -365.302> 1543 76<-486.43 -360.125>
VStem: -648 151<1418.92 1593.4> -358 83<1424.53 1541.42> -54 124<1509.07 1691.72>
AnchorPoint: "AboveBase" 51.2783 1340 mark 0
Fore
-414 1543 m 0
 -462 1543 -497 1499 -497 1463 c 0
 -497 1435 -473 1417 -440 1417 c 0
 -394 1417 -358 1445 -358 1488 c 0
 -358 1522 -382 1543 -414 1543 c 0
-275 1505 m 0
 -275 1415 -354 1332 -492 1332 c 0
 -579 1332 -648 1404 -648 1504 c 0
 -648 1601 -593 1746 -382 1817 c 1
 -246 1724 l 1
 -90 1825 l 1
 -25 1805 70 1752 70 1650 c 0
 70 1537 0 1478 -13 1465 c 1
 99 1502 220 1714 272 1847 c 1
 342 1748 l 1
 286 1592 102 1344 -117 1344 c 1
 -171 1426 l 1
 -129 1470 l 2
 -89 1514 -54 1555 -54 1616 c 0
 -54 1667 -88 1685 -115 1706 c 1
 -273 1618 l 1
 -402 1704 l 1
 -467 1679 -531 1619 -544 1544 c 1
 -539 1555 -483 1619 -401 1619 c 0
 -317 1619 -275 1566 -275 1505 c 0
EndSplineSet
EndChar
StartChar: uni0E4B.low
Encoding: 63245 63245 254
Width: 0
VWidth: 2104
Flags: W
HStem: 1499 170<-386 -261 -61 64>
VStem: -416 510<1499 1669>
AnchorPoint: "AboveBase" -12.7217 1340 mark 0
Fore
64 1499 m 1
 -91 1499 l 1
 -118 1344 l 1
 -288 1344 l 1
 -261 1499 l 1
 -416 1499 l 1
 -386 1669 l 1
 -231 1669 l 1
 -203 1824 l 1
 -33 1824 l 1
 -61 1669 l 1
 94 1669 l 1
 64 1499 l 1
EndSplineSet
EndChar
StartChar: uni0E4C.low
Encoding: 63246 63246 255
Width: 0
VWidth: 2104
Flags: W
HStem: 1344 116<-397.574 -209.325> 1683 135<-371.217 -181.272> 1709 108<-112 55.5465>
VStem: -536 127<1472.69 1645.76> -175 135<1494.04 1665.76>
AnchorPoint: "AboveBase" -79.7217 1340 mark 0
Fore
-536 1528 m 0xb8
 -536 1655 -406 1818 -223 1818 c 0xd8
 -196 1818 -157 1817 -112 1817 c 0
 17 1817 200 1825 297 1880 c 1
 310 1738 l 1
 252 1708 203 1699 156 1699 c 0
 103 1699 52 1709 -3 1709 c 0
 -27 1709 -50 1708 -77 1702 c 1
 -60 1682 l 2
 -46 1665 -40 1650 -40 1625 c 0
 -40 1465 -175 1344 -326 1344 c 0
 -495 1344 -536 1447 -536 1528 c 0xb8
-266 1683 m 0
 -371 1683 -409 1597 -409 1545 c 0
 -409 1494 -369 1460 -310 1460 c 0
 -247 1460 -175 1501 -175 1602 c 0
 -175 1656 -205 1683 -266 1683 c 0
EndSplineSet
EndChar
StartChar: uni0E0D.descless
Encoding: 63247 63247 256
Width: 1800
Flags: W
HStem: -10 132<393.074 524.843> 0 156<1134 1461> 266 132<444.741 533.704> 1072 160<601.854 989.877>
VStem: 226 165<131.858 241.649> 537 132<134.367 263.678> 1065 186<786.024 999.17>
Fore
859 1232 m 0xbe
 1038 1232 1251 1162 1251 880 c 0
 1251 842 1247 801 1239 756 c 2
 1134 156 l 1
 1461 156 l 1
 1645 1204 l 1
 1830 1204 l 1
 1618 0 l 1
 924 0 l 1x7e
 1053 740 l 2
 1061 783 1065 821 1065 855 c 0
 1065 985 1005 1072 821 1072 c 0
 672 1072 526 1003 448 950 c 1
 678 836 l 1
 651 688 l 1
 608 672 480 614 455 464 c 2
 444 395 l 1
 445 397 463 398 498 398 c 0
 607 398 669 316 669 232 c 0
 669 105 554 -10 426 -10 c 0
 242 -10 226 145 226 174 c 0
 226 194 226 216 230 239 c 2
 270 465 l 2
 287 564 367 701 496 760 c 1
 276 862 l 1
 310 1056 l 17
 488 1184 681 1232 859 1232 c 0xbe
452 122 m 0xbe
 497 122 537 161 537 207 c 0
 537 239 514 266 477 266 c 0
 434 266 391 229 391 181 c 0
 391 149 415 122 452 122 c 0xbe
EndSplineSet
EndChar
StartChar: uni0E38.low
Encoding: 63256 63256 265
Width: 0
Flags: W
HStem: -782 92<-561.898 -486.328> -584 106<-558.013 -451.208>
VStem: -653.125 91<-689.886 -588.19> -449.125 144<-676.895 -585.288>
Back
-408 -410 m 0
 -300 -410 -264 -463 -264 -542 c 0
 -264 -560 -266 -579 -270 -600 c 2
 -306 -804 l 1
 -437 -804 l 1
 -415 -682 l 1
 -430 -694 -456 -694 -466 -694 c 0
 -549 -694 -578 -620 -578 -579 c 0
 -578 -493 -490 -410 -408 -410 c 0
-375 -547 m 0
 -375 -517 -399 -496 -429 -496 c 24
 -470 -496 -508 -526 -508 -570 c 0
 -508 -599 -484 -622 -452 -622 c 0
 -412 -622 -375 -588 -375 -547 c 0
EndSplineSet
Refer: 179 3640 N 1 0 0 1 -63.125 -358 2
EndChar
StartChar: uni0E39.low
Encoding: 63257 63257 266
Width: 0
Flags: W
HStem: -882 101<-653.125 -512.125> -782 92<-886.562 -810.466> -584 106<-882.987 -773.14>
VStem: -977.125 90<-678.068 -588.78> -773.125 143<-676.788 -585.151>
Back
-529 -569 m 0
 -529 -584 -531 -601 -534 -617 c 2
 -552 -722 l 1
 -417 -722 l 1
 -365 -428 l 1
 -231 -428 l 1
 -300 -816 l 1
 -700 -816 l 1
 -674 -672 l 1
 -692 -688 -704 -688 -732 -688 c 0
 -795 -688 -837 -639 -837 -582 c 0
 -837 -502 -767 -417 -667 -417 c 0
 -557 -417 -529 -494 -529 -569 c 0
-634 -541 m 0
 -634 -516 -656 -495 -685 -495 c 24
 -726 -495 -763 -531 -763 -570 c 0
 -763 -595 -745 -620 -711 -620 c 0
 -663 -620 -634 -573 -634 -541 c 0
EndSplineSet
Refer: 180 3641 N 1 0 0 1 -63.125 -358 2
EndChar
StartChar: uniF71B
Encoding: 63259 63259 268
Width: 1000
Flags: W
VStem: 226 795<61 1085>
Fore
1021 1085 m 1
 841 61 l 1
 226 61 l 1
 406 1085 l 1
 1021 1085 l 1
EndSplineSet
EndChar
StartChar: uniF71C
Encoding: 63260 63260 269
Width: 700
Flags: W
HStem: -423 269<32 217>
VStem: 32 427<-423 -154>
Fore
32 -423 m 1
 217 -154 l 1
 459 -154 l 1
 170 -423 l 1
 32 -423 l 1
EndSplineSet
EndChar
StartChar: uniF71D
Encoding: 63261 63261 270
Width: 800
Flags: W
HStem: -236 211<178 224 510 574> -127 102<244 510>
VStem: 140 472<-236 -25>
Fore
574 -236 m 1xa0
 490 -236 l 1xa0
 510 -127 l 1
 244 -127 l 1x60
 224 -236 l 1
 140 -236 l 1
 178 -25 l 1xa0
 612 -25 l 1x60
 574 -236 l 1xa0
EndSplineSet
EndChar
StartChar: afii61664
Encoding: 8204 8204 271
Width: 0
Flags: W
VStem: -84 347<-275 1289>
Fore
263 1289 m 1
 -12 -275 l 1
 -84 -275 l 1
 191 1289 l 1
 263 1289 l 1
EndSplineSet
EndChar
StartChar: uni00B9
Encoding: 185 185 274
Width: 821
Flags: W
HStem: 668 110<293 497 641 827> 1483 20G<510.462 769>
VStem: 274 572<668 778>
Fore
293 778 m 1
 497 778 l 1
 605 1389 l 1
 375 1348 l 1
 395 1464 l 1
 632 1503 l 1
 769 1503 l 1
 641 778 l 1
 846 778 l 1
 827 668 l 1
 274 668 l 1
 293 778 l 1
EndSplineSet
EndChar
StartChar: ordmasculine
Encoding: 186 186 275
Width: 965
Flags: W
HStem: 469 123<243 910> 698 117<504.899 761.186> 1405 115<591.54 852.228>
VStem: 282 158<881.658 1224.09> 917 156<998.017 1342.43>
Fore
243 592 m 1
 931 592 l 1
 910 469 l 1
 222 469 l 1
 243 592 l 1
282 1005 m 0
 282 1250 432 1520 751 1520 c 256
 1008 1520 1073 1347 1073 1212 c 0
 1073 980 936 698 606 698 c 256
 347 698 282 874 282 1005 c 0
917 1194 m 0
 917 1325 850 1405 731 1405 c 0
 545 1405 440 1209 440 1025 c 0
 440 942 477 815 627 815 c 0
 826 815 917 1032 917 1194 c 0
EndSplineSet
EndChar
StartChar: guillemotright
Encoding: 187 187 276
Width: 1253
Flags: W
HStem: 141 918<218 380>
VStem: 218 991<141 641>
Fore
380 1059 m 1
 775 641 l 1
 761 559 l 1
 218 141 l 1
 252 332 l 1
 600 600 l 1
 346 868 l 1
 380 1059 l 1
814 1059 m 1
 1209 641 l 1
 1195 559 l 1
 652 141 l 1
 686 332 l 1
 1034 600 l 1
 780 868 l 1
 814 1059 l 1
EndSplineSet
EndChar
StartChar: onequarter
Encoding: 188 188 277
Width: 1985
Flags: HW
HStem: 0 21G<592 771.009 1640 1787.55> 186 109<1383 1673 1836 1952> 668 110<293 497 641 827> 1483 20<510.462 769>
VStem: 274 572<668 778> 1259 712<186 295>
Fore
1766 714 m 1
 1383 295 l 1
 1692 295 l 1
 1766 714 l 1
1765 835 m 1
 1931 835 l 1
 1836 295 l 1
 1971 295 l 1
 1952 186 l 1
 1817 186 l 1
 1784 0 l 1
 1640 0 l 1
 1673 186 l 1
 1259 186 l 1
 1280 307 l 1
 1765 835 l 1
EndSplineSet
Refer: 238 8260 N 1 0 0 1 621 0 2
Refer: 274 185 N 1 0 0 1 0 0 2
EndChar
StartChar: threequarters
Encoding: 190 190 279
Width: 1985
Flags: HW
HStem: 0 21G<592 771.009 1640 1787.55> 186 109<1383 1673 1836 1952> 653 109<377.101 649.494> 1061 108<466 696.915> 1411 109<541.6 753.708>
VStem: 729 153<833.28 1010.67> 775 154<1253.46 1383.9> 1259 712<186 295>
Fore
1766 714 m 1xf9
 1383 295 l 1
 1692 295 l 1
 1766 714 l 1xf9
1765 835 m 1
 1931 835 l 1
 1836 295 l 1
 1971 295 l 1
 1952 186 l 1
 1817 186 l 1
 1784 0 l 1
 1640 0 l 1
 1673 186 l 1
 1259 186 l 1
 1280 307 l 1
 1765 835 l 1
EndSplineSet
Refer: 238 8260 N 1 0 0 1 621 0 2
Refer: 118 179 N 1 0 0 1 0 0 2
EndChar
StartChar: questiondown
Encoding: 191 191 280
Width: 1087
Flags: W
HStem: -29 164<459.162 801.641> 1239 254<757 914>
VStem: 194 207<191.24 426.178>
Fore
546 -29 m 0
 330 -29 194 79 194 257 c 0
 194 407 278 510 415 623 c 2
 518 709 l 2
 630 803 644 823 671 969 c 2
 693 1092 l 1
 883 1092 l 1
 855 936 l 2
 829 790 781 723 654 618 c 2
 548 530 l 2
 462 462 401 390 401 296 c 0
 401 225 450 135 610 135 c 0
 761 135 929 236 988 272 c 1
 955 84 l 1
 846 24 710 -29 546 -29 c 0
914 1239 m 1
 712 1239 l 1
 757 1493 l 1
 959 1493 l 1
 914 1239 l 1
EndSplineSet
EndChar
StartChar: Agrave
Encoding: 192 192 281
Width: 1401
Flags: W
HStem: 0 21<16 239.653 1170.45 1384> 383 168<523 1072> 1473 20<837.841 1082.1>
VStem: 791 336<1635 1899>
Fore
978 1899 m 1
 1127 1635 l 1
 974 1635 l 1
 791 1899 l 1
 978 1899 l 1
EndSplineSet
Refer: 37 65 N 1 0 0 1 0 0 3
EndChar
StartChar: Aacute
Encoding: 193 193 282
Width: 1401
Flags: W
HStem: 0 21<16 239.653 1170.45 1384> 383 168<523 1072> 1473 20<837.841 1082.1> 1635 264<1000 1090>
VStem: 847 428<1635 1899>
Fore
1090 1899 m 5
 1275 1899 l 5
 1000 1635 l 5
 847 1635 l 5
 1090 1899 l 5
EndSplineSet
Refer: 37 65 N 1 0 0 1 0 0 3
EndChar
StartChar: Acircumflex
Encoding: 194 194 283
Width: 1401
Flags: W
HStem: 0 21<16 239.653 1170.45 1384> 383 168<523 1072> 1473 20<837.841 1082.1> 1635 266<941 1293>
VStem: 683 610<1635 1635>
Fore
941 1901 m 5
 1129 1901 l 5
 1293 1635 l 5
 1154 1635 l 5
 1020 1813 l 5
 822 1635 l 5
 683 1635 l 5
 941 1901 l 5
EndSplineSet
Refer: 37 65 N 1 0 0 1 0 0 3
EndChar
StartChar: Atilde
Encoding: 195 195 284
Width: 1401
Flags: W
HStem: 0 21<16 239.653 1170.45 1384> 383 168<523 1072> 1473 20<837.841 1082.1> 1667 121<1081.4 1216.7> 1768 118<809.791 944.196>
VStem: 664 699<1843 1886 1667 1886> 664 125<1679.32 1775.01>
Fore
1363 1886 m 1xec
 1339 1767 1260 1667 1135 1667 c 0xf4
 1080 1667 1047 1682 998 1710 c 2
 946 1743 l 2
 923 1758 903 1768 883 1768 c 0xec
 799 1768 789 1667 789 1667 c 1xf2
 664 1667 l 1xf4
 686 1789 766 1886 892 1886 c 0xec
 957 1886 992 1867 1029 1843 c 2
 1081 1813 l 2
 1116 1790 1135 1788 1148 1788 c 0xf4
 1223 1788 1237 1885 1238 1886 c 1
 1363 1886 l 1xec
EndSplineSet
Refer: 37 65 N 1 0 0 1 0 0 3
EndChar
StartChar: Adieresis
Encoding: 196 196 285
Width: 1401
Flags: W
HStem: 0 21<16 239.653 1170.45 1384> 383 168<523 1072> 1473 20<837.841 1082.1> 1667 203<733 900 1124 1291>
VStem: 697 630<1667 1870>
Fore
1124 1870 m 5
 1327 1870 l 5
 1291 1667 l 5
 1088 1667 l 5
 1124 1870 l 5
733 1870 m 5
 936 1870 l 5
 900 1667 l 5
 697 1667 l 5
 733 1870 l 5
EndSplineSet
Refer: 37 65 N 1 0 0 1 0 0 3
EndChar
StartChar: Aring
Encoding: 197 197 286
Width: 1401
Flags: W
HStem: 0 21G<16 239.653 1170.45 1384> 383 168<525 1070> 1778 123<899.997 1112.04>
VStem: 708 125<1519.05 1712.25> 1142 125<1540.66 1749.99>
Fore
960 1475 m 256
 1055 1475 1142 1558 1142 1654 c 0
 1142 1717 1096 1778 1014 1778 c 0
 912 1778 833 1690 833 1598 c 0
 833 1532 880 1475 960 1475 c 256
928 1294 m 1
 525 551 l 1
 1070 551 l 1
 928 1294 l 1
1267 1677 m 0
 1267 1621 1246 1487 1098 1397 c 1
 1384 0 l 1
 1174 0 l 1
 1106 383 l 1
 433 383 l 1
 229 0 l 1
 16 0 l 1
 795 1397 l 1
 711 1462 708 1542 708 1572 c 0
 708 1747 858 1901 1035 1901 c 0
 1183 1901 1267 1791 1267 1677 c 0
EndSplineSet
EndChar
StartChar: AE
Encoding: 198 198 287
Width: 1995
Flags: W
HStem: 0 170<1134 1864> 383 168<539 969> 711 170<1259 1940> 1323 170<1337 2078> 1335 158<1007 1136>
Fore
2108 1493 m 1xe8
 2078 1323 l 1
 1337 1323 l 1xf0
 1259 881 l 1
 1970 881 l 1
 1940 711 l 1
 1229 711 l 1
 1134 170 l 1
 1894 170 l 1
 1864 0 l 1
 901 0 l 1
 969 383 l 1
 441 383 l 1
 213 0 l 1
 8 0 l 1
 896 1493 l 1
 2108 1493 l 1xe8
1007 1335 m 1xe8
 539 551 l 1
 998 551 l 1
 1136 1335 l 1
 1007 1335 l 1xe8
EndSplineSet
EndChar
StartChar: Egrave
Encoding: 200 200 289
Width: 1294
Flags: W
HStem: 0 170<433 1163> 711 170<558 1239> 1323 170<636 1378>
VStem: 761 336<1635 1899>
Fore
948 1899 m 5
 1097 1635 l 5
 944 1635 l 5
 761 1899 l 5
 948 1899 l 5
EndSplineSet
Refer: 41 69 N 1 0 0 1 0 0 3
EndChar
StartChar: Eacute
Encoding: 201 201 290
Width: 1294
Flags: W
HStem: 0 170<433 1163> 711 170<558 1239> 1323 170<636 1378> 1635 264<970 1060>
VStem: 817 428<1635 1899>
Fore
1060 1899 m 5
 1245 1899 l 5
 970 1635 l 5
 817 1635 l 5
 1060 1899 l 5
EndSplineSet
Refer: 41 69 N 1 0 0 1 0 0 3
EndChar
StartChar: Ecircumflex
Encoding: 202 202 291
Width: 1294
Flags: W
HStem: 0 170<433 1163> 711 170<558 1239> 1323 170<636 1378> 1635 266<911 1263>
VStem: 653 610<1635 1635>
Fore
911 1901 m 5
 1099 1901 l 5
 1263 1635 l 5
 1124 1635 l 5
 990 1813 l 5
 792 1635 l 5
 653 1635 l 5
 911 1901 l 5
EndSplineSet
Refer: 41 69 N 1 0 0 1 0 0 3
EndChar
StartChar: Edieresis
Encoding: 203 203 292
Width: 1294
Flags: W
HStem: 0 170<433 1163> 711 170<558 1239> 1323 170<636 1378> 1667 203<703 870 1094 1261>
VStem: 667 630<1667 1870>
Fore
1094 1870 m 5
 1297 1870 l 5
 1261 1667 l 5
 1058 1667 l 5
 1094 1870 l 5
703 1870 m 5
 906 1870 l 5
 870 1667 l 5
 667 1667 l 5
 703 1870 l 5
EndSplineSet
Refer: 41 69 N 1 0 0 1 0 0 3
EndChar
StartChar: Igrave
Encoding: 204 204 293
Width: 604
Flags: W
HStem: 0 21<201 406.523> 1473 20<460.477 666>
VStem: 201 465<0 1493> 394 336<1635 1899>
Fore
581 1899 m 5xd0
 730 1635 l 5
 577 1635 l 5
 394 1899 l 5
 581 1899 l 5xd0
EndSplineSet
Refer: 45 73 N 1 0 0 1 0 0 3
EndChar
StartChar: Iacute
Encoding: 205 205 294
Width: 604
Flags: W
HStem: 0 21<201 406.523> 1473 20<460.477 666> 1635 264<603 693>
VStem: 201 465<0 1493> 450 428<1635 1899>
Fore
693 1899 m 5xe8
 878 1899 l 5
 603 1635 l 5
 450 1635 l 5
 693 1899 l 5xe8
EndSplineSet
Refer: 45 73 N 1 0 0 1 0 0 3
EndChar
StartChar: Icircumflex
Encoding: 206 206 295
Width: 604
Flags: W
HStem: 0 21<201 406.523> 1473 20<460.477 666> 1635 266<544 896>
VStem: 201 465<0 1493> 286 610<1635 1635>
Fore
544 1901 m 5xe8
 732 1901 l 5
 896 1635 l 5
 757 1635 l 5
 623 1813 l 5
 425 1635 l 5
 286 1635 l 5
 544 1901 l 5xe8
EndSplineSet
Refer: 45 73 N 1 0 0 1 0 0 3
EndChar
StartChar: Idieresis
Encoding: 207 207 296
Width: 604
Flags: W
HStem: 0 21<201 406.523> 1473 20<460.477 666> 1667 203<336 503 727 894>
VStem: 201 465<0 1493> 300 630<1667 1870>
Fore
727 1870 m 5xe8
 930 1870 l 5
 894 1667 l 5
 691 1667 l 5
 727 1870 l 5xe8
336 1870 m 5
 539 1870 l 5
 503 1667 l 5
 300 1667 l 5
 336 1870 l 5
EndSplineSet
Refer: 45 73 N 1 0 0 1 0 0 3
EndChar
StartChar: Eth
Encoding: 208 208 297
Width: 1587
Flags: W
HStem: 0 166<443 987.889> 700 144<159 334 563 873> 1327 166<648 1162.44>
VStem: 1401 216<632.752 1125.62>
Fore
890 1493 m 2
 1443 1493 1617 1276 1617 950 c 0
 1617 690 1524 358 1294 181 c 0
 1138 60 915 0 627 0 c 2
 211 0 l 1
 334 700 l 1
 133 700 l 1
 159 844 l 1
 360 844 l 1
 474 1493 l 1
 890 1493 l 2
1401 918 m 0
 1401 1163 1281 1327 891 1327 c 2
 648 1327 l 1
 563 844 l 1
 899 844 l 1
 873 700 l 1
 537 700 l 1
 443 166 l 1
 704 166 l 2
 901 166 1054 215 1164 306 c 0
 1346 458 1401 748 1401 918 c 0
EndSplineSet
EndChar
StartChar: Ntilde
Encoding: 209 209 298
Width: 1532
Flags: W
HStem: 0 21<201 400.523 1051.92 1334.52> 1473 20<460.477 743.078 1394.48 1594> 1667 121<1147.4 1282.7> 1768 118<875.791 1010.2>
VStem: 730 699<1843 1886 1667 1886> 730 125<1679.32 1775.01>
Fore
1429 1886 m 1xd8
 1405 1767 1326 1667 1201 1667 c 0xe8
 1146 1667 1113 1682 1064 1710 c 2
 1012 1743 l 2
 989 1758 969 1768 949 1768 c 0xd8
 865 1768 855 1667 855 1667 c 1xe4
 730 1667 l 1xe8
 752 1789 832 1886 958 1886 c 0xd8
 1023 1886 1058 1867 1095 1843 c 2
 1147 1813 l 2
 1182 1790 1201 1788 1214 1788 c 0xe8
 1289 1788 1303 1885 1304 1886 c 1
 1429 1886 l 1xd8
EndSplineSet
Refer: 50 78 N 1 0 0 1 0 0 3
EndChar
StartChar: Ograve
Encoding: 210 210 299
Width: 1612
Flags: W
HStem: -29 164<643.778 1038.31> 1356 164<845.568 1231.79>
VStem: 228 215<348.068 859.685> 898 336<1635 1899> 1432 215<625.951 1146.67>
Fore
1085 1899 m 5
 1234 1635 l 5
 1081 1635 l 5
 898 1899 l 5
 1085 1899 l 5
EndSplineSet
Refer: 51 79 N 1 0 0 1 0 0 3
EndChar
StartChar: Oacute
Encoding: 211 211 300
Width: 1612
Flags: W
HStem: -29 164<643.778 1038.31> 1356 164<845.568 1231.79> 1635 264<1107 1197>
VStem: 228 215<348.068 859.685> 954 428<1635 1899> 1432 215<625.951 1146.67>
Fore
1197 1899 m 5
 1382 1899 l 5
 1107 1635 l 5
 954 1635 l 5
 1197 1899 l 5
EndSplineSet
Refer: 51 79 N 1 0 0 1 0 0 3
EndChar
StartChar: Ocircumflex
Encoding: 212 212 301
Width: 1612
Flags: W
HStem: -29 164<643.778 1038.31> 1356 164<845.568 1231.79> 1635 266<1048 1400>
VStem: 228 215<348.068 859.685> 790 610<1635 1635> 1432 215<625.951 1146.67>
Fore
1048 1901 m 5
 1236 1901 l 5
 1400 1635 l 5
 1261 1635 l 5
 1127 1813 l 5
 929 1635 l 5
 790 1635 l 5
 1048 1901 l 5
EndSplineSet
Refer: 51 79 N 1 0 0 1 0 0 3
EndChar
StartChar: Otilde
Encoding: 213 213 302
Width: 1612
Flags: W
HStem: -29 164<643.778 1038.31> 1356 164<845.568 1231.79> 1667 121<1188.4 1323.7> 1768 118<916.791 1051.2>
VStem: 228 215<348.068 859.685> 771 699<1843 1886 1667 1886> 771 125<1679.32 1775.01> 1432 215<625.951 1146.67>
Fore
1470 1886 m 1xdc
 1446 1767 1367 1667 1242 1667 c 0xec
 1187 1667 1154 1682 1105 1710 c 2
 1053 1743 l 2
 1030 1758 1010 1768 990 1768 c 0xdc
 906 1768 896 1667 896 1667 c 1xea
 771 1667 l 1xec
 793 1789 873 1886 999 1886 c 0xdc
 1064 1886 1099 1867 1136 1843 c 2
 1188 1813 l 2
 1223 1790 1242 1788 1255 1788 c 0xec
 1330 1788 1344 1885 1345 1886 c 1
 1470 1886 l 1xdc
EndSplineSet
Refer: 51 79 N 1 0 0 1 0 0 3
EndChar
StartChar: Odieresis
Encoding: 214 214 303
Width: 1612
Flags: W
HStem: -29 164<643.778 1038.31> 1356 164<845.568 1231.79> 1667 203<840 1007 1231 1398>
VStem: 228 215<348.068 859.685> 804 630<1667 1870> 1432 215<625.951 1146.67>
Fore
1231 1870 m 5xf8
 1434 1870 l 5
 1398 1667 l 5
 1195 1667 l 5
 1231 1870 l 5xf8
840 1870 m 5
 1043 1870 l 5
 1007 1667 l 5
 804 1667 l 5
 840 1870 l 5
EndSplineSet
Refer: 51 79 N 1 0 0 1 0 0 3
EndChar
StartChar: multiply
Encoding: 215 215 304
Width: 1716
Flags: W
HStem: 1201 20G<591.025 630.471 1508.47 1548.2>
Fore
1630 1100 m 1
 1092 641 l 1
 1468 184 l 1
 1328 63 l 1
 950 522 l 1
 410 63 l 1
 313 184 l 1
 850 641 l 1
 475 1100 l 1
 614 1221 l 1
 992 762 l 1
 1532 1221 l 1
 1630 1100 l 1
EndSplineSet
EndChar
StartChar: Oslash
Encoding: 216 216 305
Width: 1612
Flags: W
HStem: -29 164<644.87 1043.91> 1356 164<843.084 1237.83>
VStem: 228 214<427.334 857.408> 1432 214<633.039 1063.76>
Fore
831 135 m 0
 1255 135 1432 594 1432 925 c 0
 1432 971 1428 1042 1402 1112 c 1
 536 266 l 1
 607 177 711 135 828 135 c 0
 831 135 l 0
1042 1356 m 0
 652 1356 442 944 442 561 c 0
 442 489 452 427 472 377 c 1
 1340 1225 l 1
 1277 1306 1181 1356 1042 1356 c 0
802 -29 m 0
 620 -29 485 27 388 121 c 1
 193 -70 l 1
 105 18 l 1
 311 219 l 1
 257 311 228 423 228 553 c 0
 228 1055 554 1520 1073 1520 c 0
 1256 1520 1392 1463 1486 1368 c 1
 1682 1559 l 1
 1768 1470 l 1
 1563 1272 l 1
 1617 1179 1646 1065 1646 934 c 0
 1646 489 1364 -29 802 -29 c 0
EndSplineSet
EndChar
StartChar: Ugrave
Encoding: 217 217 306
Width: 1499
Flags: W
HStem: -29 164<577.538 985.391> 1473 20<437.481 644 1377.47 1584>
VStem: 261 207<242.045 506.916> 841 336<1635 1899>
Fore
1028 1899 m 5
 1177 1635 l 5
 1024 1635 l 5
 841 1899 l 5
 1028 1899 l 5
EndSplineSet
Refer: 57 85 N 1 0 0 1 0 0 3
EndChar
StartChar: Uacute
Encoding: 218 218 307
Width: 1499
Flags: W
HStem: -29 164<577.538 985.391> 1473 20<437.481 644 1377.47 1584> 1635 264<1050 1140>
VStem: 261 207<242.045 506.916> 897 428<1635 1899>
Fore
1140 1899 m 5
 1325 1899 l 5
 1050 1635 l 5
 897 1635 l 5
 1140 1899 l 5
EndSplineSet
Refer: 57 85 N 1 0 0 1 0 0 3
EndChar
StartChar: Ucircumflex
Encoding: 219 219 308
Width: 1499
Flags: W
HStem: -29 164<577.538 985.391> 1473 20<437.481 644 1377.47 1584> 1635 266<991 1343>
VStem: 261 207<242.045 506.916> 733 610<1635 1635>
Fore
991 1901 m 5
 1179 1901 l 5
 1343 1635 l 5
 1204 1635 l 5
 1070 1813 l 5
 872 1635 l 5
 733 1635 l 5
 991 1901 l 5
EndSplineSet
Refer: 57 85 N 1 0 0 1 0 0 3
EndChar
StartChar: Udieresis
Encoding: 220 220 309
Width: 1499
Flags: W
HStem: -29 164<577.538 985.391> 1473 20<437.481 644 1377.47 1584> 1667 203<783 950 1174 1341>
VStem: 261 207<242.045 506.916> 747 630<1667 1870>
Fore
1174 1870 m 5
 1377 1870 l 5
 1341 1667 l 5
 1138 1667 l 5
 1174 1870 l 5
783 1870 m 5
 986 1870 l 5
 950 1667 l 5
 747 1667 l 5
 783 1870 l 5
EndSplineSet
Refer: 57 85 N 1 0 0 1 0 0 3
EndChar
StartChar: Yacute
Encoding: 221 221 310
Width: 1251
Flags: W
HStem: 0 21<524 730.516> 1473 20<259 485.967 1284.09 1518> 1635 264<927 1017>
VStem: 774 428<1635 1899>
Fore
1017 1899 m 5
 1202 1899 l 5
 927 1635 l 5
 774 1635 l 5
 1017 1899 l 5
EndSplineSet
Refer: 61 89 N 1 0 0 1 0 0 3
EndChar
StartChar: Thorn
Encoding: 222 222 311
Width: 1239
Flags: W
HStem: 0 21G<201 406.55> 338 166<492 926.898> 1063 166<620 1017.55> 1473 20G<460.477 666>
VStem: 1097 216<670.349 985.597>
Fore
1313 892 m 0
 1313 706 1227 338 718 338 c 2
 463 338 l 1
 403 0 l 1
 201 0 l 1
 464 1493 l 1
 666 1493 l 1
 620 1229 l 1
 874 1229 l 2
 1098 1229 1313 1162 1313 892 c 0
1097 853 m 0
 1097 998 996 1063 845 1063 c 2
 590 1063 l 1
 492 504 l 1
 747 504 l 2
 1027 504 1097 723 1097 853 c 0
EndSplineSet
EndChar
StartChar: germandbls
Encoding: 223 223 312
Width: 1290
Flags: W
HStem: -29 154<558.66 971.382> 1403 153<712.527 1039.74>
VStem: 720 187<757.13 970.157> 1067 192<219.103 452.391> 1102 175<1184.08 1343.13>
Fore
1102 1221 m 0xe8
 1102 1344 1016 1403 886 1403 c 0
 636 1403 586 1208 573 1133 c 2
 373 0 l 1
 186 0 l 1
 386 1137 l 2
 432 1395 615 1556 917 1556 c 0
 1205 1556 1277 1387 1277 1221 c 0xe8
 1277 1184 1274 1143 1267 1100 c 1
 996 1086 907 954 907 856 c 0
 907 798 944 754 1002 711 c 2
 1053 674 l 2
 1220 554 1259 488 1259 391 c 0
 1259 246 1173 -29 755 -29 c 0
 649 -29 553 -2 491 20 c 1
 519 184 l 1
 593 155 688 125 794 125 c 0
 1027 125 1067 273 1067 351 c 0xf0
 1067 411 1043 449 940 520 c 2
 857 575 l 2
 767 637 720 707 720 800 c 0
 720 995 867 1145 1100 1188 c 1
 1101 1199 1102 1210 1102 1221 c 0xe8
EndSplineSet
EndChar
StartChar: ae
Encoding: 230 230 319
Width: 2011
Flags: W
HStem: -29 154<421.173 742.733 1279.74 1662.88> 516 144<1179 1834> 563 144<493.181 984> 991 156<594.826 928.37 1398.15 1742.64>
VStem: 173 190<179.458 449.094> 1841 182<663.643 895.876>
Fore
1841 740 m 0xdc
 1841 888 1755 991 1590 991 c 0
 1367 991 1230 852 1179 660 c 1
 1834 660 l 1
 1839 688 1841 715 1841 740 c 0xdc
1459 125 m 0
 1497 125 1661 115 1901 231 c 1
 1870 57 l 1
 1715 -4 1570 -29 1441 -29 c 0
 1204 -29 1061 63 991 211 c 1
 865 50 707 -29 517 -29 c 0
 242 -29 173 127 173 231 c 0
 173 568 413 707 752 707 c 2
 1010 707 l 1xbc
 1012 721 1018 750 1018 779 c 0
 1018 949 874 991 742 991 c 0
 628 991 500 967 364 899 c 1
 393 1069 l 1
 580 1136 709 1147 788 1147 c 0
 978 1147 1113 1080 1165 963 c 1
 1269 1067 1417 1147 1615 1147 c 0
 1941 1147 2023 918 2023 744 c 0
 2023 701 2019 655 2010 606 c 2
 1994 516 l 1
 1148 516 l 1
 1145 490 1143 466 1143 443 c 0
 1143 189 1320 125 1459 125 c 0
363 290 m 0
 363 224 396 125 581 125 c 0
 733 125 927 242 977 522 c 2
 984 563 l 1
 801 563 l 2
 507 560 363 511 363 290 c 0
EndSplineSet
EndChar
StartChar: eth
Encoding: 240 240 329
Width: 1253
Flags: W
HStem: -29 156<498.711 810.496> 948 150<636.854 889.551> 1536 20G<585 827.069>
VStem: 195 196<239.125 657.86> 1055 196<427.994 831.27>
Fore
649 127 m 0
 918 127 1055 412 1055 687 c 0
 1055 755 1046 839 999 915 c 1
 934 939 878 948 826 948 c 0
 478 948 391 600 391 420 c 0
 391 295 443 127 649 127 c 0
195 401 m 0
 195 758 439 1098 801 1098 c 0
 830 1098 869 1093 914 1088 c 1
 787 1268 l 1
 449 1161 l 1
 433 1260 l 1
 730 1352 l 1
 585 1556 l 1
 813 1556 l 1
 915 1411 l 1
 1267 1522 l 1
 1283 1425 l 1
 971 1327 l 1
 1102 1141 l 2
 1192 1013 1251 876 1251 699 c 0
 1251 298 999 -29 622 -29 c 0
 339 -29 195 157 195 401 c 0
EndSplineSet
EndChar
StartChar: divide
Encoding: 247 247 336
Width: 1716
Flags: W
HStem: 150 245<805 1007> 557 170<345 1597> 889 246<935 1138>
Fore
935 1135 m 1
 1181 1135 l 1
 1138 889 l 1
 892 889 l 1
 935 1135 l 1
805 395 m 1
 1051 395 l 1
 1007 150 l 1
 761 150 l 1
 805 395 l 1
345 727 m 1
 1627 727 l 1
 1597 557 l 1
 315 557 l 1
 345 727 l 1
EndSplineSet
EndChar
StartChar: oslash
Encoding: 248 248 337
Width: 1253
Flags: W
HStem: -29 156<494.739 808.794> 991 156<639.586 953.372> 1192 20G<1278.88 1319.51>
VStem: 198 192<332.838 668.558> 1059 195<446.636 784.75>
Fore
649 127 m 0
 932 127 1059 454 1059 701 c 0
 1059 738 1054 771 1046 801 c 1
 455 209 l 1
 481 176 533 127 649 127 c 0
802 991 m 0
 472 991 390 575 390 418 c 0
 390 381 394 348 402 317 c 1
 994 909 l 1
 952 960 891 991 802 991 c 0
622 -29 m 0
 490 -29 389 8 320 74 c 1
 151 -94 l 1
 69 -16 l 1
 250 166 l 1
 217 229 198 310 198 406 c 0
 198 646 324 1147 829 1147 c 0
 961 1147 1057 1109 1130 1044 c 1
 1299 1212 l 1
 1380 1133 l 1
 1202 954 l 1
 1246 870 1254 780 1254 714 c 0
 1254 356 1046 -29 622 -29 c 0
EndSplineSet
EndChar
